<?xml version="1.0" encoding="UTF-8"?>
<svg xmlns="http://www.w3.org/2000/svg" version="1.1" viewBox="0 0 1024 1024">
  <defs>
    <style>
      .cls-1 {
        fill: #97999c;
      }
    </style>
  </defs>
  <!-- Generator: Adobe Illustrator 28.7.6, SVG Export Plug-In . SVG Version: 1.2.0 Build 188)  -->
  <g>
    <g id="Layer_1">
      <path class="cls-1" d="M896,455.1c-17.1,0-34.1,2.8-51.2,11.4,5.7-11.4,8.5-25.6,8.5-39.8,0-62.6-51.2-113.8-113.8-113.8s-45.5,8.5-65.4,19.9c-28.4-108.1-128-190.6-247.5-190.6s-256,113.8-256,256,0,22.8,2.8,31.3c-11.4-2.8-19.9-2.8-31.3-2.8C62.6,426.7,0,489.2,0,568.9s62.6,142.2,142.2,142.2h753.8c71.1,0,128-56.9,128-128s-56.9-128-128-128Z"/>
    </g>
  </g>
</svg>