<?xml version="1.0" encoding="UTF-8"?>
<svg id="Layer_1" xmlns="http://www.w3.org/2000/svg" version="1.1" xmlns:xlink="http://www.w3.org/1999/xlink" viewBox="0 0 147.12 82.08">
  <!-- Generator: Adobe Illustrator 29.4.0, SVG Export Plug-In . SVG Version: 2.1.0 Build 152)  -->
  <defs>
    <style>
      .st0 {
        opacity: .05;
      }

      .st0, .st1 {
        stroke: #000;
      }

      .st0, .st1, .st2 {
        fill: none;
      }

      .st1 {
        opacity: .03;
      }

      .st3 {
        clip-path: url(#clippath);
      }
    </style>
    <clipPath id="clippath">
      <rect class="st2" x="-254.75" y="-144.48" width="665.68" height="373.87"/>
    </clipPath>
  </defs>
  <g class="st3">
    <path d="M21.6,6.07c-2.14,0-3.27-.13-3.4-.38-.06-.13-.09-.38-.09-.76,0-1.51.35-2.55,1.04-3.12.13-.06.66-.09,1.6-.09,2.58.13,6.86.19,12.84.19h5.95c1.83,0,3.24-.03,4.25-.09,1.01-.06,1.64-.06,1.89,0,1.01,0,1.51.31,1.51.94,0,.13-.06.57-.19,1.32-.31,1.07-.63,1.7-.94,1.89h-1.32c-.25,0-.53.03-.85.09-.31.06-.6.06-.85,0-2.45.06-4.03.16-4.72.28-.69.13-1.26.47-1.7,1.04-.19.25-1.2,4.12-3.02,11.61-.44,1.64-.91,3.46-1.42,5.48-.5,2.01-.88,3.49-1.13,4.44l-.38,1.42c0,.13,4.56.19,13.69.19h13.69l.09-.28c0-.19.98-4.06,2.93-11.61,1.76-7.24,2.64-11.11,2.64-11.61s-1.79-.82-5.38-.94c-1.45,0-2.39-.06-2.83-.19-.44-.13-.66-.41-.66-.85,0-.13.06-.5.19-1.13.25-1.07.44-1.67.57-1.79.13-.13.63-.22,1.51-.28.31,0,1.64.03,3.97.09s5.29.09,8.87.09c3.9,0,6.89-.03,8.97-.09,2.08-.06,3.21-.09,3.4-.09,1.07,0,1.6.31,1.6.94,0,1.7-.38,2.77-1.13,3.21h-1.32c-.25,0-.54.03-.85.09-.31.06-.6.06-.85,0-2.45.06-4.03.16-4.72.28-.69.13-1.26.47-1.7,1.04-.19.31-2.45,9.22-6.8,26.72-4.34,17.5-6.55,26.37-6.61,26.62,0,.44.13.66.38.66.5.19,2.2.35,5.1.47h2.93c.38.5.57.79.57.85s-.09.63-.28,1.7c-.25.82-.57,1.42-.94,1.79h-1.42c-2.33-.13-6.55-.19-12.65-.19h-10.29c-1.07,0-1.73.03-1.98.09-1.07,0-1.6-.28-1.6-.85,0-.31.09-.76.28-1.32.31-1.2.63-1.86.94-1.98.25-.06.72-.09,1.42-.09h.57c1.7,0,3.59-.09,5.66-.28.38-.06.63-.09.76-.09s.31-.16.57-.47c.25-.31.44-.6.57-.85.13-.25.31-.82.57-1.7.25-.88.47-1.76.66-2.64.19-.88.53-2.23,1.04-4.06.44-1.76.79-3.18,1.04-4.25,2.08-8.31,3.12-12.49,3.12-12.56s-4.56-.09-13.69-.09h-13.69l-3.12,12.74c-2.14,8.43-3.21,12.81-3.21,13.12,0,.44.25.72.76.85.5.13,2.08.22,4.72.28h2.93c.38.5.57.79.57.85s-.09.63-.28,1.7c-.25.82-.57,1.42-.94,1.79h-1.42c-2.33-.13-6.55-.19-12.65-.19H6.59c-1.07,0-1.73.03-1.98.09-1.07,0-1.6-.28-1.6-.85,0-.13.09-.57.28-1.32.31-1.2.63-1.86.94-1.98.25-.06.72-.09,1.42-.09h.57c1.7,0,3.59-.09,5.66-.28.88-.19,1.48-.57,1.79-1.13.19-.25,2.45-9,6.8-26.24,4.34-17.24,6.51-26.34,6.51-27.28,0-.44-1.79-.72-5.38-.85Z"/>
    <path class="st0" d="M21.6,6.07c-2.14,0-3.27-.13-3.4-.38-.06-.13-.09-.38-.09-.76,0-1.51.35-2.55,1.04-3.12.13-.06.66-.09,1.6-.09,2.58.13,6.86.19,12.84.19h5.95c1.83,0,3.24-.03,4.25-.09,1.01-.06,1.64-.06,1.89,0,1.01,0,1.51.31,1.51.94,0,.13-.06.57-.19,1.32-.31,1.07-.63,1.7-.94,1.89h-1.32c-.25,0-.53.03-.85.09-.31.06-.6.06-.85,0-2.45.06-4.03.16-4.72.28-.69.13-1.26.47-1.7,1.04-.19.25-1.2,4.12-3.02,11.61-.44,1.64-.91,3.46-1.42,5.48-.5,2.01-.88,3.49-1.13,4.44l-.38,1.42c0,.13,4.56.19,13.69.19h13.69l.09-.28c0-.19.98-4.06,2.93-11.61,1.76-7.24,2.64-11.11,2.64-11.61s-1.79-.82-5.38-.94c-1.45,0-2.39-.06-2.83-.19-.44-.13-.66-.41-.66-.85,0-.13.06-.5.19-1.13.25-1.07.44-1.67.57-1.79.13-.13.63-.22,1.51-.28.31,0,1.64.03,3.97.09s5.29.09,8.87.09c3.9,0,6.89-.03,8.97-.09,2.08-.06,3.21-.09,3.4-.09,1.07,0,1.6.31,1.6.94,0,1.7-.38,2.77-1.13,3.21h-1.32c-.25,0-.54.03-.85.09-.31.06-.6.06-.85,0-2.45.06-4.03.16-4.72.28-.69.13-1.26.47-1.7,1.04-.19.31-2.45,9.22-6.8,26.72-4.34,17.5-6.55,26.37-6.61,26.62,0,.44.13.66.38.66.5.19,2.2.35,5.1.47h2.93c.38.5.57.79.57.85s-.09.63-.28,1.7c-.25.82-.57,1.42-.94,1.79h-1.42c-2.33-.13-6.55-.19-12.65-.19h-10.29c-1.07,0-1.73.03-1.98.09-1.07,0-1.6-.28-1.6-.85,0-.31.09-.76.28-1.32.31-1.2.63-1.86.94-1.98.25-.06.72-.09,1.42-.09h.57c1.7,0,3.59-.09,5.66-.28.38-.06.63-.09.76-.09s.31-.16.57-.47c.25-.31.44-.6.57-.85.13-.25.31-.82.57-1.7.25-.88.47-1.76.66-2.64.19-.88.53-2.23,1.04-4.06.44-1.76.79-3.18,1.04-4.25,2.08-8.31,3.12-12.49,3.12-12.56s-4.56-.09-13.69-.09h-13.69l-3.12,12.74c-2.14,8.43-3.21,12.81-3.21,13.12,0,.44.25.72.76.85.5.13,2.08.22,4.72.28h2.93c.38.5.57.79.57.85s-.09.63-.28,1.7c-.25.82-.57,1.42-.94,1.79h-1.42c-2.33-.13-6.55-.19-12.65-.19H6.59c-1.07,0-1.73.03-1.98.09-1.07,0-1.6-.28-1.6-.85,0-.13.09-.57.28-1.32.31-1.2.63-1.86.94-1.98.25-.06.72-.09,1.42-.09h.57c1.7,0,3.59-.09,5.66-.28.88-.19,1.48-.57,1.79-1.13.19-.25,2.45-9,6.8-26.24,4.34-17.24,6.51-26.34,6.51-27.28,0-.44-1.79-.72-5.38-.85Z"/>
    <path d="M87.78,66.08c0,3.07.87,5.85,2.6,8.34,1.74,2.49,4.14,3.74,7.21,3.74,5.25,0,10.08-3.56,14.48-10.68l-2.07-2.67c-2.71-3.52-4.74-5.83-6.07-6.94-2.18-1.91-4.43-2.87-6.74-2.87-2.76,0-5.01,1.09-6.74,3.27-1.74,2.18-2.63,4.78-2.67,7.81ZM142.18,65.88c0-3.03-.85-5.78-2.54-8.28-1.69-2.49-4.09-3.74-7.21-3.74-.93,0-1.85.11-2.74.33-.89.22-1.74.53-2.54.93s-1.56.82-2.27,1.27c-.71.44-1.36.98-1.94,1.6-.58.62-1.13,1.18-1.67,1.67-.53.49-.98,1.05-1.33,1.67s-.69,1.11-1,1.47c-.31.36-.56.73-.73,1.13l-.33.53,2.07,2.67c1.38,1.78,2.45,3.11,3.2,4s1.69,1.87,2.8,2.94c1.11,1.07,2.22,1.8,3.34,2.2,1.11.4,2.25.62,3.4.67,2.76,0,5.03-1.09,6.81-3.27,1.78-2.18,2.67-4.78,2.67-7.81ZM85.31,65.88c0-3.92,1.25-7.39,3.74-10.41,2.49-3.03,5.67-4.56,9.54-4.61,3.92,0,7.59,1.36,11.01,4.07,1.69,1.38,3.34,3.11,4.94,5.21l.93,1.27.47-.67c4.63-6.59,9.81-9.88,15.55-9.88,3.83,0,6.96,1.51,9.41,4.54,2.45,3.03,3.69,6.59,3.74,10.68,0,3.83-1.22,7.28-3.67,10.35-2.45,3.07-5.7,4.63-9.74,4.67-3.83,0-7.45-1.36-10.88-4.07-1.69-1.38-3.34-3.11-4.94-5.21l-.93-1.27-.47.67c-4.63,6.59-9.81,9.88-15.55,9.88-3.83,0-6.96-1.51-9.41-4.54-2.45-3.03-3.69-6.59-3.74-10.68Z"/>
    <path class="st1" d="M87.78,66.08c0,3.07.87,5.85,2.6,8.34,1.74,2.49,4.14,3.74,7.21,3.74,5.25,0,10.08-3.56,14.48-10.68l-2.07-2.67c-2.71-3.52-4.74-5.83-6.07-6.94-2.18-1.91-4.43-2.87-6.74-2.87-2.76,0-5.01,1.09-6.74,3.27-1.74,2.18-2.63,4.78-2.67,7.81ZM142.18,65.88c0-3.03-.85-5.78-2.54-8.28-1.69-2.49-4.09-3.74-7.21-3.74-.93,0-1.85.11-2.74.33-.89.22-1.74.53-2.54.93s-1.56.82-2.27,1.27c-.71.44-1.36.98-1.94,1.6-.58.62-1.13,1.18-1.67,1.67-.53.49-.98,1.05-1.33,1.67s-.69,1.11-1,1.47c-.31.36-.56.73-.73,1.13l-.33.53,2.07,2.67c1.38,1.78,2.45,3.11,3.2,4s1.69,1.87,2.8,2.94c1.11,1.07,2.22,1.8,3.34,2.2,1.11.4,2.25.62,3.4.67,2.76,0,5.03-1.09,6.81-3.27,1.78-2.18,2.67-4.78,2.67-7.81ZM85.31,65.88c0-3.92,1.25-7.39,3.74-10.41,2.49-3.03,5.67-4.56,9.54-4.61,3.92,0,7.59,1.36,11.01,4.07,1.69,1.38,3.34,3.11,4.94,5.21l.93,1.27.47-.67c4.63-6.59,9.81-9.88,15.55-9.88,3.83,0,6.96,1.51,9.41,4.54,2.45,3.03,3.69,6.59,3.74,10.68,0,3.83-1.22,7.28-3.67,10.35-2.45,3.07-5.7,4.63-9.74,4.67-3.83,0-7.45-1.36-10.88-4.07-1.69-1.38-3.34-3.11-4.94-5.21l-.93-1.27-.47.67c-4.63,6.59-9.81,9.88-15.55,9.88-3.83,0-6.96-1.51-9.41-4.54-2.45-3.03-3.69-6.59-3.74-10.68Z"/>
  </g>
</svg>