<?xml version="1.0" encoding="UTF-8"?>
<svg id="Layer_1" xmlns="http://www.w3.org/2000/svg" version="1.1" viewBox="0 0 56.7 56.7">
  <!-- Generator: Adobe Illustrator 29.4.0, SVG Export Plug-In . SVG Version: 2.1.0 Build 152)  -->
  <defs>
    <style>
      .st0 {
        fill: #23388e;
      }
    </style>
  </defs>
  <path class="st0" d="M53.17,14.6h0s0,0,0,0v-1.18c0-2.25-1.84-4.09-4.09-4.09h0s0,0,0,0h0s-41.69,0-41.69,0h.02s-.02,0-.02,0c-2.25,0-4.09,1.84-4.09,4.09v27.91c0,2.25,1.84,4.09,4.09,4.09h40.11c4.29-.05,5.57-1.11,5.67-4.08V14.6ZM46.04,10.33l-17.87,13.16L10.42,10.33h35.62ZM9.86,20.55l16.55,11.4h.02s-16.58,11.54-16.58,11.54v-22.94ZM10.29,44.4l17.02-11.83.3.21c.17.12.37.18.57.18s.88-.39.88-.39l17.02,11.83s-35.78,0-35.78,0ZM46.5,43.48l-16.57-11.52,9.24-6.36,7.33-5.05v22.93Z"/>
</svg>