<?xml version="1.0" encoding="UTF-8"?>
<svg id="Capa_1" xmlns="http://www.w3.org/2000/svg" version="1.1" viewBox="0 0 800 800">
  <!-- Generator: Adobe Illustrator 29.4.0, SVG Export Plug-In . SVG Version: 2.1.0 Build 152)  -->
  <defs>
    <style>
      .st0 {
        fill: #23388e;
      }
    </style>
  </defs>
  <path class="st0" d="M400,0C179.03,0,0,179.02,0,400s179.02,400,400,400,400-179.02,400-400S620.98,0,400,0ZM245.57,145.98c17.6,0,31.63,14.32,31.63,31.5s-14.02,31.63-31.63,31.63c-17.3-.1-31.5-14.17-31.5-31.62s14.07-31.5,31.5-31.5h0ZM221.6,247.13h48.08v334.78h-48.08V247.13ZM340.37,247.13h129.93c123.7,0,178.12,88.53,178.12,167.58,0,85.97-67.18,167.47-177.47,167.47h-130.6l.02-335.05ZM388.4,290.63v248.18h76.58c109.12,0,134.12-82.8,134.12-124.1,0-67.18-42.82-124.07-136.6-124.07h-74.1Z"/>
</svg>