<?xml version="1.0" encoding="UTF-8"?>
<svg id="Layer_1" xmlns="http://www.w3.org/2000/svg" version="1.1" viewBox="0 0 800 800">
  <!-- Generator: Adobe Illustrator 29.4.0, SVG Export Plug-In . SVG Version: 2.1.0 Build 152)  -->
  <defs>
    <style>
      .st0 {
        fill: #23388e;
      }
    </style>
  </defs>
  <path class="st0" d="M263.48,230.71c16.96-15.55,18.11-41.91,2.56-58.87-15.55-16.96-41.91-18.11-58.87-2.56l56.31,61.43ZM48.73,371.05l28.16,30.72h0l-28.16-30.72ZM48.73,395.62l28.16-30.72h0l-28.16,30.72ZM207.17,597.38c16.96,15.55,43.32,14.41,58.87-2.56,15.55-16.96,14.4-43.32-2.56-58.87l-56.31,61.43ZM207.17,169.29L20.58,340.33l56.31,61.43,186.6-171.05-56.31-61.43ZM20.58,426.33l186.6,171.05,56.31-61.43-186.6-171.05-56.31,61.43ZM20.58,340.33c-25.22,23.12-25.22,62.88,0,86l56.31-61.43c10.81,9.91,10.81,26.95,0,36.86l-56.31-61.43Z"/>
  <path class="st0" d="M535.19,535.95c-16.96,15.55-18.11,41.91-2.56,58.87,15.55,16.96,41.91,18.11,58.87,2.56l-56.31-61.43ZM749.94,395.62l-28.15-30.72h0l28.15,30.72ZM749.94,371.05l-28.15,30.72h0l28.15-30.72ZM591.5,169.29c-16.96-15.55-43.32-14.4-58.87,2.56-15.55,16.96-14.41,43.32,2.56,58.87l56.31-61.43ZM591.5,597.38l186.6-171.05-56.31-61.43-186.6,171.05,56.31,61.43ZM778.1,340.33l-186.6-171.05-56.31,61.43,186.6,171.05,56.31-61.43ZM778.1,426.33c25.22-23.12,25.22-62.88,0-86l-56.31,61.43c-10.81-9.91-10.81-26.95,0-36.86l56.31,61.43Z"/>
  <path class="st0" d="M507.09,126.77c5.58-22.32-7.99-44.95-30.32-50.53-22.33-5.58-44.95,7.99-50.53,30.32l80.85,20.21ZM292.91,639.89c-5.58,22.33,7.99,44.95,30.32,50.53,22.33,5.58,44.95-7.99,50.53-30.32l-80.85-20.21ZM426.24,106.56l-133.33,533.33,80.85,20.21L507.09,126.77l-80.85-20.21Z"/>
</svg>