<?xml version="1.0" encoding="UTF-8"?>
<svg id="Layer_1" xmlns="http://www.w3.org/2000/svg" version="1.1" viewBox="0 0 800 800">
  <!-- Generator: Adobe Illustrator 29.4.0, SVG Export Plug-In . SVG Version: 2.1.0 Build 152)  -->
  <defs>
    <style>
      .st0 {
        fill: #23388e;
      }
    </style>
  </defs>
  <path class="st0" d="M203.57,767.44c-31.93,0-64.17-9.39-92.33-28.93l-5.93-4.12c-73.49-51.03-91.77-152.36-40.73-225.84l154.79-206.53c24.26-34.96,61.36-58.8,104.01-66.49,42.66-7.71,85.74,1.69,121.34,26.41l5.93,4.11c30.22,20.98,52.61,51.96,63.06,87.22,3.48,11.77-3.23,24.13-15.01,27.61-11.76,3.46-24.12-3.22-27.61-15.01-7.68-25.97-23.51-47.87-45.77-63.31l-5.93-4.11c-25.87-17.97-57.18-24.79-88.12-19.19-30.97,5.59-57.91,22.9-75.87,48.76l-154.78,206.52c-36.59,52.71-23.32,126.28,30.04,163.34l5.93,4.12c53.34,37.04,126.92,23.8,163.99-29.56l47.29-68.07c7.01-10.06,20.83-12.54,30.93-5.57,10.07,7.01,12.57,20.86,5.57,30.93l-47.29,68.06c-31.48,45.33-82.1,69.64-133.51,69.64Z"/>
  <path class="st0" d="M447.74,567.14c-31.97,0-64.27-9.38-92.48-28.96l-5.98-4.17c-30.2-20.98-52.57-51.93-62.99-87.17-3.48-11.78,3.24-24.13,15.01-27.61,11.81-3.48,24.14,3.23,27.61,15.01,7.67,25.94,23.49,47.83,45.74,63.29l5.98,4.17c53.32,37.02,126.9,23.76,163.97-29.6l154.78-206.56c36.6-52.71,23.33-126.28-30.03-163.34l-5.89-4.06c-25.91-18.01-57.19-24.8-88.18-19.23-30.97,5.59-57.91,22.9-75.87,48.76l-47.28,68.06c-7,10.09-20.84,12.58-30.92,5.58s-12.58-20.84-5.58-30.92l47.28-68.06c24.72-35.61,61.82-59.46,104.49-67.14,42.64-7.68,85.76,1.7,121.36,26.43l5.88,4.06c73.56,51.09,91.82,152.41,40.78,225.89l-154.78,206.56c-31.17,44.86-81.6,69.02-132.9,69.02Z"/>
  <path class="st0" d="M586.22,367.84c-2.32,0-4.66-.72-6.66-2.22-4.91-3.68-5.91-10.64-2.22-15.54l6.09-8.11c3.68-4.91,10.66-5.89,15.54-2.22,4.91,3.68,5.91,10.64,2.22,15.54l-6.09,8.11c-2.18,2.92-5.51,4.44-8.89,4.44Z"/>
  <path class="st0" d="M611.63,333.96c-2.32,0-4.66-.72-6.66-2.22-4.91-3.68-5.91-10.64-2.22-15.54l49.18-65.6c11.79-16.98,16.34-37.93,12.6-58.67-3.74-20.74-15.33-38.79-32.64-50.8l-3.81-2.63c-5.04-3.5-6.3-10.42-2.81-15.47,3.48-5.04,10.4-6.31,15.47-2.81l3.82,2.64c22.19,15.41,37.04,38.53,41.84,65.11s-1.04,53.44-16.44,75.62l-49.41,65.93c-2.2,2.9-5.52,4.43-8.91,4.43Z"/>
</svg>