<?xml version="1.0" encoding="UTF-8"?>
<svg id="Capa_1" xmlns="http://www.w3.org/2000/svg" version="1.1" viewBox="0 0 800 800">
  <!-- Generator: Adobe Illustrator 29.4.0, SVG Export Plug-In . SVG Version: 2.1.0 Build 152)  -->
  <defs>
    <style>
      .st0 {
        fill: #23388e;
      }
    </style>
  </defs>
  <path class="st0" d="M336.65,315.82c4.33,45.2,6.42,131.12-27.92,198.69-2.79,5.45-5.55,10.75-8.32,15.82-59.74,18.33-122.83,53.03-133.35,91.25-4.12,15.1-.33,30.2,10.39,41.44,11.19,11.65,25.08,17.84,40.29,17.84,36.78,0,75.02-35.09,116.79-107.17,15.15-3.74,102.46-14.38,120.81-14.18,50.35,51.47,91.09,76.48,124.37,76.48,20.89,0,38.88-10.55,49.37-29,7.27-12.9,7.29-27.8.08-40.88-20.89-37.73-102.23-53.08-151.01-56.59-4.2-4.58-8.45-9.34-12.8-14.28-49.96-57.08-70.39-140.93-77.94-184.75-.95-10.03-2.02-18.38-2.92-24.49-3.22-23.19-17.79-26.67-26.18-26.67-7.29,0-14.28,3.15-19.12,8.65-7.81,8.86-6.63,18.43-5.86,24.83.72,6.3,1.84,14.59,3.33,23.01ZM219.89,629.64c4.79-5.3,14.13-13.1,28.28-21.55-13.21,14.33-22.93,20.25-28.28,21.55ZM577.04,585.03c-4.27-.54-12.41-2.69-25.47-10.7,11.26,3.66,19.84,7.45,25.47,10.7ZM381.01,458.66c9.34,18.97,19.73,36.24,31.15,51.73-5.58.54-44.94,5.63-48.43,6.07,7.27-17.81,13.03-37.14,17.28-57.79Z"/>
  <path class="st0" d="M283.82,0L76.66,218.74v581.26h646.69V0h-439.52ZM265.55,91.99v96.93h-91.81l91.81-96.93ZM673.3,749.99H126.64V238.93h188.92V50.01h357.79v699.97h-.05Z"/>
</svg>