<?xml version="1.0" encoding="UTF-8"?>
<svg xmlns="http://www.w3.org/2000/svg" version="1.1" xmlns:xlink="http://www.w3.org/1999/xlink" viewBox="0 0 327.1 327.1">
  <defs>
    <style>
      .cls-1 {
        opacity: 0;
      }

      .cls-1, .cls-2, .cls-3, .cls-4, .cls-5, .cls-6, .cls-7, .cls-8, .cls-9, .cls-10, .cls-11 {
        fill: none;
      }

      .cls-1, .cls-2, .cls-4, .cls-5, .cls-6, .cls-7, .cls-8, .cls-9, .cls-10, .cls-11 {
        stroke: #000;
      }

      .cls-12 {
        fill: #97999c;
      }

      .cls-2 {
        opacity: 0;
      }

      .cls-13 {
        fill: #fff;
      }

      .cls-4 {
        opacity: 0;
      }

      .cls-14 {
        clip-path: url(#clippath-1);
      }

      .cls-5 {
        opacity: 0;
      }

      .cls-6, .cls-7 {
        stroke-width: .6px;
      }

      .cls-6, .cls-9 {
        stroke-miterlimit: 10;
      }

      .cls-8 {
        opacity: 0;
      }

      .cls-9 {
        stroke-width: .3px;
      }

      .cls-10 {
        opacity: 0;
      }

      .cls-15 {
        clip-path: url(#clippath-2);
      }

      .cls-16 {
        opacity: .1;
      }

      .cls-11 {
        opacity: 0;
      }

      .cls-17 {
        clip-path: url(#clippath);
      }

      .cls-18 {
        opacity: 0;
      }

      .cls-19 {
        fill: #e6e6e6;
      }
    </style>
    <clipPath id="clippath">
      <rect class="cls-3" x="-36.4" y="-36.4" width="400" height="400"/>
    </clipPath>
    <clipPath id="clippath-1">
      <rect class="cls-3" x="125.3" y="268" width="70" height="38.9"/>
    </clipPath>
    <clipPath id="clippath-2">
      <rect class="cls-3" x="-36.4" y="-36.4" width="400" height="400"/>
    </clipPath>
  </defs>
  <!-- Generator: Adobe Illustrator 28.7.6, SVG Export Plug-In . SVG Version: 1.2.0 Build 188)  -->
  <g>
    <g id="Layer_1">
      <g class="cls-17">
        <rect class="cls-13" x="194" y="184.4" width="120" height="63.9"/>
        <rect class="cls-7" x="194" y="184.4" width="120" height="63.9"/>
        <rect class="cls-13" x="11.9" y="113.4" width="92.2" height="87.6"/>
        <rect class="cls-7" x="11.9" y="113.4" width="92.2" height="87.6"/>
        <path d="M26.8,119.4h5.3v.4h-5.3v-.4ZM26.5,128.3v-5.3h.4v5.3h-.4ZM26.5,138.8v-5.3h.4v5.3h-.4ZM30.3,146.1h-3.7v-2h.4v1.8h-.2v-.2h3.5v.4ZM40.8,146.1h-5.3v-.4h5.3v.4ZM51.3,146.1h-5.3v-.4h5.3v.4ZM52.4,136.2v5.3h-.4v-5.3h.4ZM52.4,125.7v5.3h-.4v-5.3h.4ZM47.8,119.4h4.6v1.1h-.4v-.9h.2v.2h-4.4v-.4ZM37.3,119.4h5.3v.4h-5.3v-.4Z"/>
        <path d="M74.9,147.4h5.3v.4h-5.3v-.4ZM74.7,156.3v-5.3h.4v5.3h-.4ZM74.7,166.9v-5.3h.4v5.3h-.4ZM78.4,174.1h-3.7v-2h.4v1.8h-.2v-.2h3.5v.4ZM88.9,174.1h-5.3v-.4h5.3v.4ZM99.4,174.1h-5.3v-.4h5.3v.4ZM100.5,164.2v5.3h-.4v-5.3h.4ZM100.5,153.7v5.3h-.4v-5.3h.4ZM95.9,147.4h4.6v1.1h-.4v-.9h.2v.2h-4.4v-.4ZM85.4,147.4h5.3v.4h-5.3v-.4Z"/>
        <path d="M19.1,168.4h5.3v.4h-5.3v-.4ZM18.9,177.4v-5.3h.4v5.3h-.4ZM18.9,187.9v-5.3h.4v5.3h-.4ZM22.6,195.1h-3.7v-2h.4v1.8h-.2v-.2h3.5v.4ZM33.1,195.1h-5.3v-.4h5.3v.4ZM43.6,195.1h-5.3v-.4h5.3v.4ZM44.7,185.2v5.3h-.4v-5.3h.4ZM44.7,174.7v5.3h-.4v-5.3h.4ZM40.1,168.4h4.6v1.1h-.4v-.9h.2v.2h-4.4v-.4ZM29.6,168.4h5.3v.4h-5.3v-.4Z"/>
        <path class="cls-19" d="M152,60.9c0-21,0-31.5,17.5-31.5-11.7,0-11.7-21,0-21s11.7,21,0,21c17.5,0,17.5,10.5,17.5,31.5h-35Z"/>
        <path class="cls-6" d="M152,60.9c0-21,0-31.5,17.5-31.5-11.7,0-11.7-21,0-21s11.7,21,0,21c17.5,0,17.5,10.5,17.5,31.5h-35Z"/>
        <path class="cls-19" d="M265.8,131c0-21,0-31.5,17.5-31.5-11.7,0-11.7-21,0-21s11.7,21,0,21c17.5,0,17.5,10.5,17.5,31.5h-35Z"/>
        <path class="cls-6" d="M265.8,131c0-21,0-31.5,17.5-31.5-11.7,0-11.7-21,0-21s11.7,21,0,21c17.5,0,17.5,10.5,17.5,31.5h-35Z"/>
        <path class="cls-19" d="M134.5,183.5c0-21,0-31.5,17.5-31.5-11.7,0-11.7-21,0-21s11.7,21,0,21c17.5,0,17.5,10.5,17.5,31.5h-35Z"/>
        <path class="cls-6" d="M134.5,183.5c0-21,0-31.5,17.5-31.5-11.7,0-11.7-21,0-21s11.7,21,0,21c17.5,0,17.5,10.5,17.5,31.5h-35Z"/>
        <line class="cls-6" x1="154.3" y1="121.5" x2="167.1" y2="70.4"/>
        <polygon points="152.2 130 151.5 120.8 157.2 122.2 152.2 130"/>
        <polygon class="cls-6" points="152.2 130 151.5 120.8 157.2 122.2 152.2 130"/>
        <polygon points="169.2 61.9 170 71.1 164.3 69.6 169.2 61.9"/>
        <polygon class="cls-6" points="169.2 61.9 170 71.1 164.3 69.6 169.2 61.9"/>
        <line class="cls-6" x1="261.3" y1="99.2" x2="195" y2="53.3"/>
        <polygon points="268.5 104.1 259.6 101.6 262.9 96.7 268.5 104.1"/>
        <polygon class="cls-6" points="268.5 104.1 259.6 101.6 262.9 96.7 268.5 104.1"/>
        <polygon points="187.8 48.3 196.7 50.9 193.3 55.7 187.8 48.3"/>
        <polygon class="cls-6" points="187.8 48.3 196.7 50.9 193.3 55.7 187.8 48.3"/>
        <line class="cls-6" x1="257.2" y1="122.5" x2="178" y2="165.7"/>
        <polygon points="264.9 118.3 258.6 125 255.8 119.9 264.9 118.3"/>
        <polygon class="cls-6" points="264.9 118.3 258.6 125 255.8 119.9 264.9 118.3"/>
        <polygon points="170.3 169.9 176.6 163.1 179.4 168.3 170.3 169.9"/>
        <polygon class="cls-6" points="170.3 169.9 176.6 163.1 179.4 168.3 170.3 169.9"/>
        <path d="M228.2,152.3c-.3-.9-.7-1.3-1.2-1.3s-.8.2-1.1.5c-.4.3-.6.8-.8,1.3-.3.9-.5,1.8-.7,2.7v.2c0,0,0,.2,0,.2,0,.5,0,.8.3,1,.2.2.4.3.7.3.6,0,1.2-.4,1.8-1.2v-.2c.1,0,1-3.6,1-3.6ZM228.5,146.5s.4,0,1.2,0c.8,0,1.2,0,1.2,0,.1,0,.2,0,.2.1s-.4,1.7-1.2,5c-.8,3.2-1.2,4.9-1.2,4.9,0,0,0,.1,0,.2,0,.5.2.7.5.7,0,0,.2,0,.3-.1.2-.2.5-.7.7-1.6,0-.2.1-.3.2-.3,0,0,0,0,.2,0h.1c.2,0,.2,0,.2.1s0,.1,0,.3c-.1.5-.3,1-.5,1.3-.2.3-.3.6-.5.7-.1,0-.3.2-.5.3,0,0-.2,0-.4,0-.4,0-.7,0-.9-.2s-.4-.3-.5-.5v-.2c-.1,0-.1,0-.2,0,0,0,0,0,0,0-.6.6-1.3.9-2,.9s-1.1-.2-1.6-.7-.7-1.1-.7-2.1.1-1.1.3-1.6.5-1,.8-1.4c.5-.6,1-1.1,1.5-1.3s1-.4,1.4-.4c.6,0,1.1.2,1.4.7,0,0,0,0,0,0,0,0,.2-.6.4-1.8.3-1.2.4-1.8.5-1.8,0-.1,0-.2-.1-.3s-.3,0-.6,0h-.3c0,0,0-.1,0-.1s0-.1,0-.3c0-.2.1-.3.2-.3Z"/>
        <path class="cls-8" d="M228.2,152.3c-.3-.9-.7-1.3-1.2-1.3s-.8.2-1.1.5c-.4.3-.6.8-.8,1.3-.3.9-.5,1.8-.7,2.7v.2c0,0,0,.2,0,.2,0,.5,0,.8.3,1,.2.2.4.3.7.3.6,0,1.2-.4,1.8-1.2v-.2c.1,0,1-3.6,1-3.6ZM228.5,146.5s.4,0,1.2,0c.8,0,1.2,0,1.2,0,.1,0,.2,0,.2.1s-.4,1.7-1.2,5c-.8,3.2-1.2,4.9-1.2,4.9,0,0,0,.1,0,.2,0,.5.2.7.5.7,0,0,.2,0,.3-.1.2-.2.5-.7.7-1.6,0-.2.1-.3.2-.3,0,0,0,0,.2,0h.1c.2,0,.2,0,.2.1s0,.1,0,.3c-.1.5-.3,1-.5,1.3-.2.3-.3.6-.5.7-.1,0-.3.2-.5.3,0,0-.2,0-.4,0-.4,0-.7,0-.9-.2s-.4-.3-.5-.5v-.2c-.1,0-.1,0-.2,0,0,0,0,0,0,0-.6.6-1.3.9-2,.9s-1.1-.2-1.6-.7-.7-1.1-.7-2.1.1-1.1.3-1.6.5-1,.8-1.4c.5-.6,1-1.1,1.5-1.3s1-.4,1.4-.4c.6,0,1.1.2,1.4.7,0,0,0,0,0,0,0,0,.2-.6.4-1.8.3-1.2.4-1.8.5-1.8,0-.1,0-.2-.1-.3s-.3,0-.6,0h-.3c0,0,0-.1,0-.1s0-.1,0-.3c0-.2.1-.3.2-.3Z"/>
        <path d="M232.8,155.2c-.2,0-.4,0-.5-.2-.1-.1-.2-.3-.2-.5,0-.5.2-1,.6-1.4.4-.4.9-.6,1.5-.6s1.3.2,1.8.7c.5.4.7,1,.7,1.7,0,.3,0,.7-.2,1-.2.3-.3.6-.6.8-.2.2-.5.5-.9.9-.3.2-.7.6-1.2,1.1l-.7.7h.9c1.2,0,1.9,0,1.9,0,0,0,.1-.4.3-1h0s.5,0,.5,0h0c0,0,0,.4-.2,1.1,0,.7-.2,1-.2,1.1h0s-4.3,0-4.3,0v-.2h0c0-.2,0-.3,0-.3s.2-.2.3-.4c.2-.2.4-.5.6-.7,0,0,.2-.2.4-.4.2-.2.3-.4.4-.4s.2-.2.3-.4c.2-.2.3-.3.3-.4,0,0,.2-.2.3-.3.1-.1.2-.3.2-.4,0-.1.1-.2.2-.3,0-.1.1-.2.2-.4,0-.1,0-.2,0-.3,0-.1,0-.2,0-.4,0-.5-.1-.9-.4-1.3-.3-.4-.6-.5-1.1-.5s-.5,0-.7.2-.3.3-.4.4c0,.1-.1.2-.1.2s0,0,0,0c.1,0,.3,0,.4.2s.2.3.2.5,0,.4-.2.5-.3.2-.5.2Z"/>
        <path class="cls-4" d="M232.8,155.2c-.2,0-.4,0-.5-.2-.1-.1-.2-.3-.2-.5,0-.5.2-1,.6-1.4.4-.4.9-.6,1.5-.6s1.3.2,1.8.7c.5.4.7,1,.7,1.7,0,.3,0,.7-.2,1-.2.3-.3.6-.6.8-.2.2-.5.5-.9.9-.3.2-.7.6-1.2,1.1l-.7.7h.9c1.2,0,1.9,0,1.9,0,0,0,.1-.4.3-1h0s.5,0,.5,0h0c0,0,0,.4-.2,1.1,0,.7-.2,1-.2,1.1h0s-4.3,0-4.3,0v-.2h0c0-.2,0-.3,0-.3s.2-.2.3-.4c.2-.2.4-.5.6-.7,0,0,.2-.2.4-.4.2-.2.3-.4.4-.4s.2-.2.3-.4c.2-.2.3-.3.3-.4,0,0,.2-.2.3-.3.1-.1.2-.3.2-.4,0-.1.1-.2.2-.3,0-.1.1-.2.2-.4,0-.1,0-.2,0-.3,0-.1,0-.2,0-.4,0-.5-.1-.9-.4-1.3-.3-.4-.6-.5-1.1-.5s-.5,0-.7.2-.3.3-.4.4c0,.1-.1.2-.1.2s0,0,0,0c.1,0,.3,0,.4.2s.2.3.2.5,0,.4-.2.5-.3.2-.5.2Z"/>
        <path d="M230.9,56c-.3-.9-.7-1.3-1.2-1.3s-.8.2-1.1.5c-.4.3-.6.8-.8,1.3-.3.9-.5,1.8-.7,2.7v.2c0,0,0,.2,0,.2,0,.5,0,.8.3,1,.2.2.4.3.7.3.6,0,1.2-.4,1.8-1.2v-.2c.1,0,1-3.6,1-3.6ZM231.1,50.1s.4,0,1.2,0,1.2,0,1.2,0c.1,0,.2,0,.2.1s-.4,1.7-1.2,5c-.8,3.2-1.2,4.9-1.2,4.9,0,0,0,.1,0,.2,0,.5.2.7.5.7,0,0,.2,0,.3-.1.2-.2.5-.7.7-1.6,0-.2.1-.3.2-.3,0,0,0,0,.2,0h.1c.2,0,.2,0,.2.1s0,.1,0,.3c-.1.5-.3,1-.5,1.3-.2.3-.3.6-.5.7-.1,0-.3.2-.5.3,0,0-.2,0-.4,0-.4,0-.7,0-.9-.2s-.4-.3-.5-.5v-.2c-.1,0-.1,0-.2,0,0,0,0,0,0,0-.6.6-1.3.9-2,.9s-1.1-.2-1.6-.7-.7-1.1-.7-2.1.1-1.1.3-1.6c.2-.5.5-1,.8-1.4.5-.6,1-1.1,1.5-1.3.5-.2,1-.4,1.4-.4.6,0,1.1.2,1.4.7,0,0,0,0,0,0,0,0,.2-.6.4-1.8.3-1.2.4-1.8.5-1.8,0-.1,0-.2-.1-.3s-.3,0-.6,0h-.3c0,0,0-.1,0-.1s0-.1,0-.3c0-.2.1-.3.2-.3Z"/>
        <path class="cls-8" d="M230.9,56c-.3-.9-.7-1.3-1.2-1.3s-.8.2-1.1.5c-.4.3-.6.8-.8,1.3-.3.9-.5,1.8-.7,2.7v.2c0,0,0,.2,0,.2,0,.5,0,.8.3,1,.2.2.4.3.7.3.6,0,1.2-.4,1.8-1.2v-.2c.1,0,1-3.6,1-3.6ZM231.1,50.1s.4,0,1.2,0,1.2,0,1.2,0c.1,0,.2,0,.2.1s-.4,1.7-1.2,5c-.8,3.2-1.2,4.9-1.2,4.9,0,0,0,.1,0,.2,0,.5.2.7.5.7,0,0,.2,0,.3-.1.2-.2.5-.7.7-1.6,0-.2.1-.3.2-.3,0,0,0,0,.2,0h.1c.2,0,.2,0,.2.1s0,.1,0,.3c-.1.5-.3,1-.5,1.3-.2.3-.3.6-.5.7-.1,0-.3.2-.5.3,0,0-.2,0-.4,0-.4,0-.7,0-.9-.2s-.4-.3-.5-.5v-.2c-.1,0-.1,0-.2,0,0,0,0,0,0,0-.6.6-1.3.9-2,.9s-1.1-.2-1.6-.7-.7-1.1-.7-2.1.1-1.1.3-1.6c.2-.5.5-1,.8-1.4.5-.6,1-1.1,1.5-1.3.5-.2,1-.4,1.4-.4.6,0,1.1.2,1.4.7,0,0,0,0,0,0,0,0,.2-.6.4-1.8.3-1.2.4-1.8.5-1.8,0-.1,0-.2-.1-.3s-.3,0-.6,0h-.3c0,0,0-.1,0-.1s0-.1,0-.3c0-.2.1-.3.2-.3Z"/>
        <path d="M236.6,57.1h-.2c-.1,0-.3.1-.5.2-.2,0-.4,0-.7,0h-.2v-.5h.2c.4,0,.7,0,1-.2s.5-.2.7-.3c.1,0,.2-.2.3-.3,0,0,0,0,.1,0s.1,0,.2,0v7c0,0,.1,0,.2.1,0,0,.1,0,.3,0,.1,0,.4,0,.7,0h.3v.5h-.1c-.2,0-.8,0-1.8,0s-1.7,0-1.8,0h-.1v-.5h.7c.1,0,.2,0,.3,0,0,0,.1,0,.2,0s0,0,0,0,0,0,0,0c0,0,0,0,0,0v-6Z"/>
        <path class="cls-4" d="M236.6,57.1h-.2c-.1,0-.3.1-.5.2-.2,0-.4,0-.7,0h-.2v-.5h.2c.4,0,.7,0,1-.2s.5-.2.7-.3c.1,0,.2-.2.3-.3,0,0,0,0,.1,0s.1,0,.2,0v7c0,0,.1,0,.2.1,0,0,.1,0,.3,0,.1,0,.4,0,.7,0h.3v.5h-.1c-.2,0-.8,0-1.8,0s-1.7,0-1.8,0h-.1v-.5h.7c.1,0,.2,0,.3,0,0,0,.1,0,.2,0s0,0,0,0,0,0,0,0c0,0,0,0,0,0v-6Z"/>
        <path d="M140.7,91c-.3-.9-.7-1.3-1.2-1.3s-.8.2-1.1.5c-.4.3-.6.8-.8,1.3-.3.9-.5,1.8-.7,2.7v.2c0,0,0,.2,0,.2,0,.5,0,.8.3,1,.2.2.4.3.7.3.6,0,1.2-.4,1.8-1.2v-.2c.1,0,1-3.6,1-3.6ZM140.9,85.2s.4,0,1.2,0c.8,0,1.2,0,1.2,0,.1,0,.2,0,.2.1s-.4,1.7-1.2,5c-.8,3.2-1.2,4.9-1.2,4.9,0,0,0,.1,0,.2,0,.5.2.7.5.7,0,0,.2,0,.3-.1.2-.2.5-.7.7-1.6,0-.2.1-.3.2-.3,0,0,0,0,.2,0h.1c.2,0,.2,0,.2.1s0,.1,0,.3c-.1.5-.3,1-.5,1.3s-.3.6-.5.7c-.1,0-.3.2-.5.3,0,0-.2,0-.4,0-.4,0-.7,0-.9-.2-.3-.2-.4-.3-.5-.5v-.2c-.1,0-.1,0-.2,0,0,0,0,0,0,0-.6.6-1.3.9-2,.9s-1.1-.2-1.6-.7-.7-1.1-.7-2.1.1-1.1.3-1.6c.2-.5.5-1,.8-1.4.5-.6,1-1.1,1.5-1.3s1-.4,1.4-.4c.6,0,1.1.2,1.4.7,0,0,0,0,0,0,0,0,.2-.6.4-1.8.3-1.1.4-1.8.5-1.8,0-.1,0-.2-.1-.3,0,0-.3,0-.6,0h-.3c0,0,0-.1,0-.1s0-.1,0-.3c0-.2.1-.3.2-.3Z"/>
        <path class="cls-8" d="M140.7,91c-.3-.9-.7-1.3-1.2-1.3s-.8.2-1.1.5c-.4.3-.6.8-.8,1.3-.3.9-.5,1.8-.7,2.7v.2c0,0,0,.2,0,.2,0,.5,0,.8.3,1,.2.2.4.3.7.3.6,0,1.2-.4,1.8-1.2v-.2c.1,0,1-3.6,1-3.6ZM140.9,85.2s.4,0,1.2,0c.8,0,1.2,0,1.2,0,.1,0,.2,0,.2.1s-.4,1.7-1.2,5c-.8,3.2-1.2,4.9-1.2,4.9,0,0,0,.1,0,.2,0,.5.2.7.5.7,0,0,.2,0,.3-.1.2-.2.5-.7.7-1.6,0-.2.1-.3.2-.3,0,0,0,0,.2,0h.1c.2,0,.2,0,.2.1s0,.1,0,.3c-.1.5-.3,1-.5,1.3s-.3.6-.5.7c-.1,0-.3.2-.5.3,0,0-.2,0-.4,0-.4,0-.7,0-.9-.2-.3-.2-.4-.3-.5-.5v-.2c-.1,0-.1,0-.2,0,0,0,0,0,0,0-.6.6-1.3.9-2,.9s-1.1-.2-1.6-.7-.7-1.1-.7-2.1.1-1.1.3-1.6c.2-.5.5-1,.8-1.4.5-.6,1-1.1,1.5-1.3s1-.4,1.4-.4c.6,0,1.1.2,1.4.7,0,0,0,0,0,0,0,0,.2-.6.4-1.8.3-1.1.4-1.8.5-1.8,0-.1,0-.2-.1-.3,0,0-.3,0-.6,0h-.3c0,0,0-.1,0-.1s0-.1,0-.3c0-.2.1-.3.2-.3Z"/>
        <path d="M145.5,93.5c-.2,0-.4,0-.5-.2-.1-.1-.2-.3-.2-.5,0-.4.2-.8.6-1.1.4-.3.8-.5,1.3-.5s.4,0,.5,0c.6,0,1,.3,1.3.6.3.3.5.7.5,1,0,.4-.1.8-.4,1.2-.3.4-.6.7-1.1.8h0s0,0,.1,0c0,0,.2,0,.3.1.2,0,.3.1.4.2.6.4,1,1,1,1.6s-.2,1.1-.7,1.6c-.5.5-1.1.7-1.8.7s-1.2-.2-1.6-.5c-.4-.3-.7-.8-.7-1.3s0-.4.2-.5.3-.2.5-.2c.2,0,.4,0,.5.2.1.1.2.3.2.5s0,.2,0,.2c0,0,0,.1,0,.2,0,0,0,.1-.1.1,0,0-.1,0-.1,0,0,0,0,0-.1,0,0,0,0,0,0,0h0c.4.4.9.5,1.4.5s.7-.2,1-.6c.1-.3.2-.6.2-1.2v-.2c0-.7-.2-1.2-.7-1.5-.1,0-.4,0-.7,0h-.5s0,0,0,0c0,0,0,0,0-.2s0-.2,0-.2c.2,0,.4,0,.7,0,.3,0,.5-.2.7-.5.2-.3.3-.7.3-1.3h0c0-.5-.1-.8-.4-1-.2-.1-.4-.2-.5-.2s-.5,0-.7.1c-.2,0-.4.2-.4.3,0,0-.1.1-.1.1h0s0,0,0,0c0,0,0,0,.1,0,0,0,0,0,.1,0,0,0,0,0,.1.1,0,0,0,.1,0,.2s0,.1,0,.2c0,.2,0,.3-.2.5s-.3.2-.5.2Z"/>
        <path class="cls-4" d="M145.5,93.5c-.2,0-.4,0-.5-.2-.1-.1-.2-.3-.2-.5,0-.4.2-.8.6-1.1.4-.3.8-.5,1.3-.5s.4,0,.5,0c.6,0,1,.3,1.3.6.3.3.5.7.5,1,0,.4-.1.8-.4,1.2-.3.4-.6.7-1.1.8h0s0,0,.1,0c0,0,.2,0,.3.1.2,0,.3.1.4.2.6.4,1,1,1,1.6s-.2,1.1-.7,1.6c-.5.5-1.1.7-1.8.7s-1.2-.2-1.6-.5c-.4-.3-.7-.8-.7-1.3s0-.4.2-.5.3-.2.5-.2c.2,0,.4,0,.5.2.1.1.2.3.2.5s0,.2,0,.2c0,0,0,.1,0,.2,0,0,0,.1-.1.1,0,0-.1,0-.1,0,0,0,0,0-.1,0,0,0,0,0,0,0h0c.4.4.9.5,1.4.5s.7-.2,1-.6c.1-.3.2-.6.2-1.2v-.2c0-.7-.2-1.2-.7-1.5-.1,0-.4,0-.7,0h-.5s0,0,0,0c0,0,0,0,0-.2s0-.2,0-.2c.2,0,.4,0,.7,0,.3,0,.5-.2.7-.5.2-.3.3-.7.3-1.3h0c0-.5-.1-.8-.4-1-.2-.1-.4-.2-.5-.2s-.5,0-.7.1c-.2,0-.4.2-.4.3,0,0-.1.1-.1.1h0s0,0,0,0c0,0,0,0,.1,0,0,0,0,0,.1,0,0,0,0,0,.1.1,0,0,0,.1,0,.2s0,.1,0,.2c0,.2,0,.3-.2.5s-.3.2-.5.2Z"/>
        <path d="M168.2,42.7h-.2c-.2.1-.4.2-.7.2-.3,0-.6,0-1,.1h-.3v-.8h.3c.5,0,1-.1,1.4-.2.4-.1.7-.3.9-.4s.3-.2.5-.4c0,0,0,0,.2,0s.2,0,.3,0v9.8c0,0,.2.1.2.1,0,0,.2,0,.4,0,.2,0,.5,0,1,0h.4v.8h-.2c-.2,0-1.1,0-2.6,0s-2.3,0-2.6,0h-.2v-.8h1.1c.2,0,.3,0,.4,0s.2,0,.3,0c0,0,.1,0,.1,0s0,0,0,0c0,0,0,0,0,0v-8.5Z"/>
        <path class="cls-11" d="M168.2,42.7h-.2c-.2.1-.4.2-.7.2-.3,0-.6,0-1,.1h-.3v-.8h.3c.5,0,1-.1,1.4-.2.4-.1.7-.3.9-.4s.3-.2.5-.4c0,0,0,0,.2,0s.2,0,.3,0v9.8c0,0,.2.1.2.1,0,0,.2,0,.4,0,.2,0,.5,0,1,0h.4v.8h-.2c-.2,0-1.1,0-2.6,0s-2.3,0-2.6,0h-.2v-.8h1.1c.2,0,.3,0,.4,0s.2,0,.3,0c0,0,.1,0,.1,0s0,0,0,0c0,0,0,0,0,0v-8.5Z"/>
        <path d="M280.3,115.1c-.3,0-.5,0-.7-.3-.2-.2-.3-.4-.3-.7,0-.8.3-1.5.9-2,.6-.6,1.3-.9,2.2-.9s1.8.3,2.5.9c.7.6,1,1.4,1,2.4,0,.5-.1.9-.3,1.3-.2.4-.5.8-.8,1.1-.3.3-.7.7-1.3,1.2-.4.3-.9.8-1.6,1.5l-1,.9h1.2c1.7,0,2.6,0,2.7,0,0,0,.2-.5.4-1.5h0s.7,0,.7,0h0c0,0,0,.6-.2,1.5-.1,1-.2,1.5-.2,1.5h0s-6.1,0-6.1,0v-.5c0,0,0-.2,0-.2,0,0,.2-.3.5-.6.3-.4.6-.7.8-.9,0-.1.3-.3.6-.6s.5-.5.6-.6c0-.1.3-.3.5-.5.2-.3.4-.4.5-.6,0-.1.2-.3.4-.5.2-.2.3-.4.3-.5,0-.1.1-.3.2-.5s.2-.4.2-.5c0-.2,0-.3.1-.5s0-.3,0-.5c0-.7-.2-1.3-.6-1.8-.4-.5-.9-.8-1.6-.8s-.7,0-1,.3c-.3.2-.5.4-.6.5-.1.2-.2.3-.2.3s0,0,0,0c.2,0,.4,0,.6.2.2.2.3.4.3.8s0,.5-.3.7c-.2.2-.4.3-.7.3Z"/>
        <path class="cls-11" d="M280.3,115.1c-.3,0-.5,0-.7-.3-.2-.2-.3-.4-.3-.7,0-.8.3-1.5.9-2,.6-.6,1.3-.9,2.2-.9s1.8.3,2.5.9c.7.6,1,1.4,1,2.4,0,.5-.1.9-.3,1.3-.2.4-.5.8-.8,1.1-.3.3-.7.7-1.3,1.2-.4.3-.9.8-1.6,1.5l-1,.9h1.2c1.7,0,2.6,0,2.7,0,0,0,.2-.5.4-1.5h0s.7,0,.7,0h0c0,0,0,.6-.2,1.5-.1,1-.2,1.5-.2,1.5h0s-6.1,0-6.1,0v-.5c0,0,0-.2,0-.2,0,0,.2-.3.5-.6.3-.4.6-.7.8-.9,0-.1.3-.3.6-.6s.5-.5.6-.6c0-.1.3-.3.5-.5.2-.3.4-.4.5-.6,0-.1.2-.3.4-.5.2-.2.3-.4.3-.5,0-.1.1-.3.2-.5s.2-.4.2-.5c0-.2,0-.3.1-.5s0-.3,0-.5c0-.7-.2-1.3-.6-1.8-.4-.5-.9-.8-1.6-.8s-.7,0-1,.3c-.3.2-.5.4-.6.5-.1.2-.2.3-.2.3s0,0,0,0c.2,0,.4,0,.6.2.2.2.3.4.3.8s0,.5-.3.7c-.2.2-.4.3-.7.3Z"/>
        <path d="M149.2,167.1c-.3,0-.5,0-.7-.3-.2-.2-.3-.4-.3-.7,0-.6.3-1.1.8-1.6.5-.5,1.2-.7,1.9-.7s.6,0,.7,0c.8.1,1.4.4,1.9.9.4.4.6.9.7,1.5,0,.6-.2,1.1-.6,1.7-.4.5-.9.9-1.5,1.2h0s0,0,.1,0c0,0,.3,0,.5.1.2,0,.4.2.6.3.9.6,1.3,1.3,1.3,2.3s-.3,1.6-1,2.3c-.7.6-1.5,1-2.6,1s-1.6-.2-2.3-.7c-.6-.5-1-1.1-1-1.8s0-.6.3-.7c.2-.2.4-.3.7-.3.3,0,.6,0,.8.3.2.2.3.4.3.7s0,.2,0,.3,0,.2-.1.3c0,0-.1.1-.2.2,0,0-.1,0-.2.1,0,0-.1,0-.2,0,0,0,0,0-.1,0h0c.6.5,1.2.8,2,.8s1.1-.3,1.4-.9c.2-.4.3-.9.3-1.7v-.3c0-1-.4-1.7-1.1-2.1-.2,0-.5-.1-1-.1h-.7s0,0,0,0c0,0,0-.1,0-.3s0-.3.1-.3c.3,0,.6,0,1,0,.4,0,.7-.3,1-.7s.5-1,.5-1.8h0c0-.8-.2-1.2-.6-1.4-.2-.2-.5-.2-.8-.2s-.7,0-1,.2c-.3.1-.5.2-.6.4-.1.1-.2.2-.2.2h0s0,0,.1,0c0,0,.1,0,.2,0,0,0,.1,0,.2.1,0,0,.1,0,.2.2s0,.2.1.2,0,.2,0,.3c0,.2,0,.5-.2.6-.2.2-.4.3-.7.3Z"/>
        <path class="cls-11" d="M149.2,167.1c-.3,0-.5,0-.7-.3-.2-.2-.3-.4-.3-.7,0-.6.3-1.1.8-1.6.5-.5,1.2-.7,1.9-.7s.6,0,.7,0c.8.1,1.4.4,1.9.9.4.4.6.9.7,1.5,0,.6-.2,1.1-.6,1.7-.4.5-.9.9-1.5,1.2h0s0,0,.1,0c0,0,.3,0,.5.1.2,0,.4.2.6.3.9.6,1.3,1.3,1.3,2.3s-.3,1.6-1,2.3c-.7.6-1.5,1-2.6,1s-1.6-.2-2.3-.7c-.6-.5-1-1.1-1-1.8s0-.6.3-.7c.2-.2.4-.3.7-.3.3,0,.6,0,.8.3.2.2.3.4.3.7s0,.2,0,.3,0,.2-.1.3c0,0-.1.1-.2.2,0,0-.1,0-.2.1,0,0-.1,0-.2,0,0,0,0,0-.1,0h0c.6.5,1.2.8,2,.8s1.1-.3,1.4-.9c.2-.4.3-.9.3-1.7v-.3c0-1-.4-1.7-1.1-2.1-.2,0-.5-.1-1-.1h-.7s0,0,0,0c0,0,0-.1,0-.3s0-.3.1-.3c.3,0,.6,0,1,0,.4,0,.7-.3,1-.7s.5-1,.5-1.8h0c0-.8-.2-1.2-.6-1.4-.2-.2-.5-.2-.8-.2s-.7,0-1,.2c-.3.1-.5.2-.6.4-.1.1-.2.2-.2.2h0s0,0,.1,0c0,0,.1,0,.2,0,0,0,.1,0,.2.1,0,0,.1,0,.2.2s0,.2.1.2,0,.2,0,.3c0,.2,0,.5-.2.6-.2.2-.4.3-.7.3Z"/>
        <path class="cls-19" d="M199.2,242.1c0-21,0-31.5,17.5-31.5-11.7,0-11.7-21,0-21s11.7,21,0,21c17.5,0,17.5,10.5,17.5,31.5h-35Z"/>
        <path class="cls-6" d="M199.2,242.1c0-21,0-31.5,17.5-31.5-11.7,0-11.7-21,0-21s11.7,21,0,21c17.5,0,17.5,10.5,17.5,31.5h-35Z"/>
        <path d="M216.8,230.1v-5.5l-3.6,5.5h1.8s1.8,0,1.8,0ZM219.5,233.6c-.2,0-.9,0-2.1,0s-2,0-2.2,0h-.1v-.8h1c0,0,.2,0,.3,0,.1,0,.2,0,.2,0,0,0,0,0,.1-.1,0,0,0-.3,0-.9v-.8h-4.3v-.8l2.5-3.8c1.7-2.5,2.5-3.8,2.5-3.8,0,0,.1,0,.3,0h.4v7.7h1.5v.8h-1.5v1.6c0,0,0,.1,0,.2,0,0,.4.1.9.1h.5v.8h-.1Z"/>
        <path class="cls-11" d="M216.8,230.1v-5.5l-3.6,5.5h1.8s1.8,0,1.8,0ZM219.5,233.6c-.2,0-.9,0-2.1,0s-2,0-2.2,0h-.1v-.8h1c0,0,.2,0,.3,0,.1,0,.2,0,.2,0,0,0,0,0,.1-.1,0,0,0-.3,0-.9v-.8h-4.3v-.8l2.5-3.8c1.7-2.5,2.5-3.8,2.5-3.8,0,0,.1,0,.3,0h.4v7.7h1.5v.8h-1.5v1.6c0,0,0,.1,0,.2,0,0,.4.1.9.1h.5v.8h-.1Z"/>
        <path class="cls-13" d="M289.4,237.8c-5.9-3.8-23.9-6.3-43.8-6.1v-9.6c19.9.2,37.8-2.3,43.8-6.1v21.9Z"/>
        <path class="cls-6" d="M289.4,237.8c-5.9-3.8-23.9-6.3-43.8-6.1v-9.6c19.9.2,37.8-2.3,43.8-6.1v21.9Z"/>
        <path class="cls-19" d="M31.8,143.2c0-8.4,0-12.6,7.4-12.6-5,0-5-8.4,0-8.4s5,8.4,0,8.4c7.4,0,7.4,4.2,7.4,12.6h-14.9Z"/>
        <path class="cls-6" d="M31.8,143.2c0-8.4,0-12.6,7.4-12.6-5,0-5-8.4,0-8.4s5,8.4,0,8.4c7.4,0,7.4,4.2,7.4,12.6h-14.9Z"/>
        <path class="cls-19" d="M80.2,171.2c0-8.4,0-12.6,7.4-12.6-5,0-5-8.4,0-8.4s5,8.4,0,8.4c7.4,0,7.4,4.2,7.4,12.6h-14.9Z"/>
        <path class="cls-6" d="M80.2,171.2c0-8.4,0-12.6,7.4-12.6-5,0-5-8.4,0-8.4s5,8.4,0,8.4c7.4,0,7.4,4.2,7.4,12.6h-14.9Z"/>
        <path class="cls-19" d="M24.4,192.2c0-8.4,0-12.6,7.4-12.6-5,0-5-8.4,0-8.4s5,8.4,0,8.4c7.4,0,7.4,4.2,7.4,12.6h-14.9Z"/>
        <path class="cls-6" d="M24.4,192.2c0-8.4,0-12.6,7.4-12.6-5,0-5-8.4,0-8.4s5,8.4,0,8.4c7.4,0,7.4,4.2,7.4,12.6h-14.9Z"/>
        <line class="cls-9" x1="33.2" y1="164.4" x2="38" y2="150"/>
        <polygon points="32 168.1 32 164 34.5 164.8 32 168.1"/>
        <polygon class="cls-9" points="32 168.1 32 164 34.5 164.8 32 168.1"/>
        <polygon points="39.3 146.3 39.3 150.5 36.8 149.6 39.3 146.3"/>
        <polygon class="cls-9" points="39.3 146.3 39.3 150.5 36.8 149.6 39.3 146.3"/>
        <line class="cls-9" x1="71.7" y1="157.7" x2="55.4" y2="142.3"/>
        <polygon points="74.6 160.4 70.8 158.6 72.6 156.7 74.6 160.4"/>
        <polygon class="cls-9" points="74.6 160.4 70.8 158.6 72.6 156.7 74.6 160.4"/>
        <polygon points="52.5 139.6 56.3 141.4 54.5 143.3 52.5 139.6"/>
        <polygon class="cls-9" points="52.5 139.6 56.3 141.4 54.5 143.3 52.5 139.6"/>
        <line class="cls-9" x1="70.9" y1="169.2" x2="48.5" y2="179.8"/>
        <polygon points="74.5 167.5 71.5 170.4 70.4 168 74.5 167.5"/>
        <polygon class="cls-9" points="74.5 167.5 71.5 170.4 70.4 168 74.5 167.5"/>
        <polygon points="44.9 181.5 47.9 178.7 49.1 181 44.9 181.5"/>
        <polygon class="cls-9" points="44.9 181.5 47.9 178.7 49.1 181 44.9 181.5"/>
        <path d="M63.9,179.6c-.1-.4-.3-.6-.5-.6s-.3,0-.5.2c-.2.1-.3.3-.4.6-.1.4-.2.8-.3,1.2h0c0,.1,0,.1,0,.2,0,.2,0,.4.1.4,0,0,.2.1.3.1.3,0,.5-.2.8-.5h0c0,0,.4-1.6.4-1.6ZM64,177s.2,0,.5,0c.3,0,.5,0,.5,0,0,0,0,0,0,0s-.2.8-.5,2.2c-.3,1.4-.5,2.1-.5,2.2,0,0,0,0,0,.1,0,.2,0,.3.2.3,0,0,0,0,.1,0,.1,0,.2-.3.3-.7,0,0,0-.1,0-.2,0,0,0,0,0,0h0c0,0,.1,0,.1,0s0,0,0,.1c0,.2-.1.4-.2.6,0,.1-.1.2-.2.3,0,0-.1,0-.2.1,0,0,0,0-.2,0-.2,0-.3,0-.4-.1-.1,0-.2-.1-.2-.2h0c0-.1,0-.1,0-.1,0,0,0,0,0,0-.3.3-.6.4-.9.4s-.5,0-.7-.3c-.2-.2-.3-.5-.3-.9s0-.5.1-.7.2-.4.3-.6c.2-.3.5-.5.7-.6.2-.1.4-.2.6-.2.3,0,.5.1.6.3,0,0,0,0,0,0,0,0,0-.3.2-.8.1-.5.2-.8.2-.8,0,0,0-.1,0-.1,0,0-.1,0-.3,0h-.2s0,0,0,0,0,0,0-.1c0,0,0-.1,0-.1Z"/>
        <path class="cls-1" d="M63.9,179.6c-.1-.4-.3-.6-.5-.6s-.3,0-.5.2c-.2.1-.3.3-.4.6-.1.4-.2.8-.3,1.2h0c0,.1,0,.1,0,.2,0,.2,0,.4.1.4,0,0,.2.1.3.1.3,0,.5-.2.8-.5h0c0,0,.4-1.6.4-1.6ZM64,177s.2,0,.5,0c.3,0,.5,0,.5,0,0,0,0,0,0,0s-.2.8-.5,2.2c-.3,1.4-.5,2.1-.5,2.2,0,0,0,0,0,.1,0,.2,0,.3.2.3,0,0,0,0,.1,0,.1,0,.2-.3.3-.7,0,0,0-.1,0-.2,0,0,0,0,0,0h0c0,0,.1,0,.1,0s0,0,0,.1c0,.2-.1.4-.2.6,0,.1-.1.2-.2.3,0,0-.1,0-.2.1,0,0,0,0-.2,0-.2,0-.3,0-.4-.1-.1,0-.2-.1-.2-.2h0c0-.1,0-.1,0-.1,0,0,0,0,0,0-.3.3-.6.4-.9.4s-.5,0-.7-.3c-.2-.2-.3-.5-.3-.9s0-.5.1-.7.2-.4.3-.6c.2-.3.5-.5.7-.6.2-.1.4-.2.6-.2.3,0,.5.1.6.3,0,0,0,0,0,0,0,0,0-.3.2-.8.1-.5.2-.8.2-.8,0,0,0-.1,0-.1,0,0-.1,0-.3,0h-.2s0,0,0,0,0,0,0-.1c0,0,0-.1,0-.1Z"/>
        <path d="M66.1,181c-.1,0-.2,0-.3-.1,0,0-.1-.2-.1-.3,0-.3.1-.6.4-.9.2-.2.6-.4.9-.4s.8.1,1.1.4c.3.3.4.6.4,1,0,.2,0,.4-.1.6,0,.2-.2.3-.3.5-.1.1-.3.3-.6.5-.2.1-.4.4-.7.6l-.4.4h.5c.7,0,1.1,0,1.2,0,0,0,0-.2.2-.6h0s.3,0,.3,0h0s0,.2,0,.7c0,.4,0,.6-.1.6h0s-2.6,0-2.6,0h0v-.2s0,0,0-.1c0,0,0-.1.2-.2.1-.1.3-.3.3-.4,0,0,.1-.1.2-.3.1-.1.2-.2.2-.3,0,0,.1-.1.2-.2s.2-.2.2-.2c0,0,0-.1.2-.2,0,0,.1-.2.1-.2,0,0,0-.1.1-.2,0,0,0-.1,0-.2,0,0,0-.1,0-.2,0,0,0-.1,0-.2,0-.3,0-.5-.2-.8-.2-.2-.4-.3-.7-.3s-.3,0-.4.1c-.1,0-.2.2-.2.2,0,0,0,.1,0,.1s0,0,0,0c0,0,.2,0,.3,0,0,0,.1.2.1.3s0,.2-.1.3c0,0-.2.1-.3.1Z"/>
        <path class="cls-5" d="M66.1,181c-.1,0-.2,0-.3-.1,0,0-.1-.2-.1-.3,0-.3.1-.6.4-.9.2-.2.6-.4.9-.4s.8.1,1.1.4c.3.3.4.6.4,1,0,.2,0,.4-.1.6,0,.2-.2.3-.3.5-.1.1-.3.3-.6.5-.2.1-.4.4-.7.6l-.4.4h.5c.7,0,1.1,0,1.2,0,0,0,0-.2.2-.6h0s.3,0,.3,0h0s0,.2,0,.7c0,.4,0,.6-.1.6h0s-2.6,0-2.6,0h0v-.2s0,0,0-.1c0,0,0-.1.2-.2.1-.1.3-.3.3-.4,0,0,.1-.1.2-.3.1-.1.2-.2.2-.3,0,0,.1-.1.2-.2s.2-.2.2-.2c0,0,0-.1.2-.2,0,0,.1-.2.1-.2,0,0,0-.1.1-.2,0,0,0-.1,0-.2,0,0,0-.1,0-.2,0,0,0-.1,0-.2,0-.3,0-.5-.2-.8-.2-.2-.4-.3-.7-.3s-.3,0-.4.1c-.1,0-.2.2-.2.2,0,0,0,.1,0,.1s0,0,0,0c0,0,.2,0,.3,0,0,0,.1.2.1.3s0,.2-.1.3c0,0-.2.1-.3.1Z"/>
        <path d="M64.7,141c-.1-.4-.3-.6-.5-.6s-.3,0-.5.2c-.2.1-.3.3-.4.6-.1.4-.2.8-.3,1.2h0c0,.1,0,.1,0,.2,0,.2,0,.4.1.4,0,0,.2.1.3.1.3,0,.5-.2.8-.5h0c0,0,.4-1.6.4-1.6ZM64.9,138.5s.2,0,.5,0c.3,0,.5,0,.5,0,0,0,0,0,0,0s-.2.8-.5,2.2c-.3,1.4-.5,2.1-.5,2.2,0,0,0,0,0,.1,0,.2,0,.3.2.3,0,0,0,0,.1,0,.1,0,.2-.3.3-.7,0,0,0-.1,0-.2,0,0,0,0,0,0h0c0,0,.1,0,.1,0s0,0,0,.1c0,.2-.1.4-.2.6,0,.1-.1.2-.2.3,0,0-.1,0-.2.1,0,0,0,0-.2,0-.2,0-.3,0-.4-.1-.1,0-.2-.1-.2-.2h0c0-.1,0-.1,0-.1,0,0,0,0,0,0-.3.3-.6.4-.9.4s-.5,0-.7-.3-.3-.5-.3-.9,0-.5.1-.7.2-.4.3-.6c.2-.3.5-.5.7-.6.2-.1.4-.2.6-.2.3,0,.5.1.6.3,0,0,0,0,0,0,0,0,0-.3.2-.8.1-.5.2-.8.2-.8,0,0,0-.1,0-.1,0,0-.1,0-.3,0h-.2s0,0,0,0,0,0,0-.1c0,0,0-.1,0-.1Z"/>
        <path class="cls-1" d="M64.7,141c-.1-.4-.3-.6-.5-.6s-.3,0-.5.2c-.2.1-.3.3-.4.6-.1.4-.2.8-.3,1.2h0c0,.1,0,.1,0,.2,0,.2,0,.4.1.4,0,0,.2.1.3.1.3,0,.5-.2.8-.5h0c0,0,.4-1.6.4-1.6ZM64.9,138.5s.2,0,.5,0c.3,0,.5,0,.5,0,0,0,0,0,0,0s-.2.8-.5,2.2c-.3,1.4-.5,2.1-.5,2.2,0,0,0,0,0,.1,0,.2,0,.3.2.3,0,0,0,0,.1,0,.1,0,.2-.3.3-.7,0,0,0-.1,0-.2,0,0,0,0,0,0h0c0,0,.1,0,.1,0s0,0,0,.1c0,.2-.1.4-.2.6,0,.1-.1.2-.2.3,0,0-.1,0-.2.1,0,0,0,0-.2,0-.2,0-.3,0-.4-.1-.1,0-.2-.1-.2-.2h0c0-.1,0-.1,0-.1,0,0,0,0,0,0-.3.3-.6.4-.9.4s-.5,0-.7-.3-.3-.5-.3-.9,0-.5.1-.7.2-.4.3-.6c.2-.3.5-.5.7-.6.2-.1.4-.2.6-.2.3,0,.5.1.6.3,0,0,0,0,0,0,0,0,0-.3.2-.8.1-.5.2-.8.2-.8,0,0,0-.1,0-.1,0,0-.1,0-.3,0h-.2s0,0,0,0,0,0,0-.1c0,0,0-.1,0-.1Z"/>
        <path d="M67.7,141.5h0c0,0-.2,0-.3.1-.1,0-.3,0-.4,0h-.1v-.3h.1c.2,0,.4,0,.6-.1.2,0,.3-.1.4-.2,0,0,.1-.1.2-.2,0,0,0,0,0,0s0,0,.1,0v4.2s0,0,0,0c0,0,0,0,.2,0,0,0,.2,0,.4,0h.2v.3h0c0,0-.5,0-1.1,0s-1,0-1.1,0h0v-.3h.4c0,0,.1,0,.2,0,0,0,0,0,.1,0,0,0,0,0,0,0s0,0,0,0c0,0,0,0,0,0v-3.6Z"/>
        <path class="cls-5" d="M67.7,141.5h0c0,0-.2,0-.3.1-.1,0-.3,0-.4,0h-.1v-.3h.1c.2,0,.4,0,.6-.1.2,0,.3-.1.4-.2,0,0,.1-.1.2-.2,0,0,0,0,0,0s0,0,.1,0v4.2s0,0,0,0c0,0,0,0,.2,0,0,0,.2,0,.4,0h.2v.3h0c0,0-.5,0-1.1,0s-1,0-1.1,0h0v-.3h.4c0,0,.1,0,.2,0,0,0,0,0,.1,0,0,0,0,0,0,0s0,0,0,0c0,0,0,0,0,0v-3.6Z"/>
        <path d="M26.2,155c-.1-.4-.3-.6-.5-.6s-.3,0-.5.2c-.2.1-.3.3-.4.6-.1.4-.2.8-.3,1.2h0c0,.1,0,.1,0,.2,0,.2,0,.4.1.4,0,0,.2.1.3.1.3,0,.5-.2.8-.5h0c0,0,.4-1.6.4-1.6ZM26.3,152.5s.2,0,.5,0c.3,0,.5,0,.5,0,0,0,0,0,0,0s-.2.8-.5,2.2c-.3,1.4-.5,2.1-.5,2.2,0,0,0,0,0,.1,0,.2,0,.3.2.3,0,0,0,0,.1,0,.1,0,.2-.3.3-.7,0,0,0-.1,0-.2,0,0,0,0,0,0h0c0,0,.1,0,.1,0s0,0,0,.1c0,.2-.1.4-.2.6,0,.1-.1.2-.2.3s-.1,0-.2.1c0,0,0,0-.2,0-.2,0-.3,0-.4-.1-.1,0-.2-.1-.2-.2h0c0-.1,0-.1,0-.1,0,0,0,0,0,0-.3.3-.6.4-.9.4s-.5,0-.7-.3-.3-.5-.3-.9,0-.5.1-.7c0-.2.2-.4.3-.6.2-.3.5-.5.7-.6.2-.1.4-.2.6-.2.3,0,.5.1.6.3,0,0,0,0,0,0,0,0,0-.3.2-.8.1-.5.2-.8.2-.8,0,0,0-.1,0-.1,0,0-.1,0-.3,0h-.2s0,0,0,0,0,0,0-.1c0,0,0-.1,0-.1Z"/>
        <path class="cls-1" d="M26.2,155c-.1-.4-.3-.6-.5-.6s-.3,0-.5.2c-.2.1-.3.3-.4.6-.1.4-.2.8-.3,1.2h0c0,.1,0,.1,0,.2,0,.2,0,.4.1.4,0,0,.2.1.3.1.3,0,.5-.2.8-.5h0c0,0,.4-1.6.4-1.6ZM26.3,152.5s.2,0,.5,0c.3,0,.5,0,.5,0,0,0,0,0,0,0s-.2.8-.5,2.2c-.3,1.4-.5,2.1-.5,2.2,0,0,0,0,0,.1,0,.2,0,.3.2.3,0,0,0,0,.1,0,.1,0,.2-.3.3-.7,0,0,0-.1,0-.2,0,0,0,0,0,0h0c0,0,.1,0,.1,0s0,0,0,.1c0,.2-.1.4-.2.6,0,.1-.1.2-.2.3s-.1,0-.2.1c0,0,0,0-.2,0-.2,0-.3,0-.4-.1-.1,0-.2-.1-.2-.2h0c0-.1,0-.1,0-.1,0,0,0,0,0,0-.3.3-.6.4-.9.4s-.5,0-.7-.3-.3-.5-.3-.9,0-.5.1-.7c0-.2.2-.4.3-.6.2-.3.5-.5.7-.6.2-.1.4-.2.6-.2.3,0,.5.1.6.3,0,0,0,0,0,0,0,0,0-.3.2-.8.1-.5.2-.8.2-.8,0,0,0-.1,0-.1,0,0-.1,0-.3,0h-.2s0,0,0,0,0,0,0-.1c0,0,0-.1,0-.1Z"/>
        <path d="M28.6,156.3c-.1,0-.2,0-.3-.1,0,0-.1-.2-.1-.3,0-.3.1-.5.3-.7.2-.2.5-.3.8-.3s.3,0,.3,0c.3,0,.6.2.8.4.2.2.3.4.3.6,0,.2,0,.5-.2.7-.2.2-.4.4-.7.5h0s0,0,0,0c0,0,.1,0,.2,0,0,0,.2,0,.3.1.4.2.6.6.6,1s-.1.7-.4,1c-.3.3-.7.4-1.1.4s-.7-.1-1-.3c-.3-.2-.4-.5-.4-.8s0-.2.1-.3c0,0,.2-.1.3-.1.1,0,.2,0,.3.1,0,0,.1.2.1.3s0,0,0,.1c0,0,0,0,0,.1,0,0,0,0,0,0,0,0,0,0,0,0,0,0,0,0,0,0s0,0,0,0h0c.2.2.5.3.9.3s.4-.1.6-.4c0-.2.1-.4.1-.7h0c0-.6-.1-.9-.4-1,0,0-.2,0-.4,0h-.3s0,0,0,0c0,0,0,0,0-.1s0-.1,0-.1c.1,0,.3,0,.4,0,.2,0,.3-.1.4-.3.1-.2.2-.4.2-.8h0c0-.3,0-.5-.2-.6-.1,0-.2,0-.3,0s-.3,0-.4,0c-.1,0-.2.1-.3.2,0,0,0,0,0,0h0s0,0,0,0,0,0,0,0c0,0,0,0,0,0,0,0,0,0,0,0,0,0,0,0,0,.1s0,0,0,.1c0,.1,0,.2,0,.3,0,0-.2.1-.3.1Z"/>
        <path class="cls-5" d="M28.6,156.3c-.1,0-.2,0-.3-.1,0,0-.1-.2-.1-.3,0-.3.1-.5.3-.7.2-.2.5-.3.8-.3s.3,0,.3,0c.3,0,.6.2.8.4.2.2.3.4.3.6,0,.2,0,.5-.2.7-.2.2-.4.4-.7.5h0s0,0,0,0c0,0,.1,0,.2,0,0,0,.2,0,.3.1.4.2.6.6.6,1s-.1.7-.4,1c-.3.3-.7.4-1.1.4s-.7-.1-1-.3c-.3-.2-.4-.5-.4-.8s0-.2.1-.3c0,0,.2-.1.3-.1.1,0,.2,0,.3.1,0,0,.1.2.1.3s0,0,0,.1c0,0,0,0,0,.1,0,0,0,0,0,0,0,0,0,0,0,0,0,0,0,0,0,0s0,0,0,0h0c.2.2.5.3.9.3s.4-.1.6-.4c0-.2.1-.4.1-.7h0c0-.6-.1-.9-.4-1,0,0-.2,0-.4,0h-.3s0,0,0,0c0,0,0,0,0-.1s0-.1,0-.1c.1,0,.3,0,.4,0,.2,0,.3-.1.4-.3.1-.2.2-.4.2-.8h0c0-.3,0-.5-.2-.6-.1,0-.2,0-.3,0s-.3,0-.4,0c-.1,0-.2.1-.3.2,0,0,0,0,0,0h0s0,0,0,0,0,0,0,0c0,0,0,0,0,0,0,0,0,0,0,0,0,0,0,0,0,.1s0,0,0,.1c0,.1,0,.2,0,.3,0,0-.2.1-.3.1Z"/>
        <path d="M38.4,135.5h0c0,0-.2,0-.3.1-.1,0-.3,0-.4,0h-.1v-.3h.1c.2,0,.4,0,.6-.1.2,0,.3-.1.4-.2,0,0,.1-.1.2-.2,0,0,0,0,0,0s0,0,.1,0v4.3s0,0,0,0c0,0,0,0,.2,0,0,0,.2,0,.4,0h.2v.3h0c-.1,0-.5,0-1.1,0s-1,0-1.1,0h0v-.3h.5c0,0,.1,0,.2,0,0,0,0,0,.1,0s0,0,0,0,0,0,0,0c0,0,0,0,0,0v-3.7Z"/>
        <path class="cls-1" d="M38.4,135.5h0c0,0-.2,0-.3.1-.1,0-.3,0-.4,0h-.1v-.3h.1c.2,0,.4,0,.6-.1.2,0,.3-.1.4-.2,0,0,.1-.1.2-.2,0,0,0,0,0,0s0,0,.1,0v4.3s0,0,0,0c0,0,0,0,.2,0,0,0,.2,0,.4,0h.2v.3h0c-.1,0-.5,0-1.1,0s-1,0-1.1,0h0v-.3h.5c0,0,.1,0,.2,0,0,0,0,0,.1,0s0,0,0,0,0,0,0,0c0,0,0,0,0,0v-3.7Z"/>
        <path d="M85.8,164.6c-.1,0-.2,0-.3-.1,0,0-.1-.2-.1-.3,0-.3.1-.6.4-.9.3-.2.6-.4.9-.4s.8.1,1.1.4c.3.3.4.6.4,1,0,.2,0,.4-.1.6,0,.2-.2.3-.3.5-.1.1-.3.3-.6.5-.2.1-.4.4-.7.7l-.4.4h.5c.8,0,1.1,0,1.2,0,0,0,0-.2.2-.6h0s.3,0,.3,0h0s0,.3,0,.7c0,.4,0,.6-.1.7h0s-2.7,0-2.7,0h0v-.2s0,0,0-.1c0,0,.1-.1.2-.3.1-.2.3-.3.4-.4,0,0,.1-.1.2-.3.1-.1.2-.2.2-.3s.1-.1.2-.2.2-.2.2-.2c0,0,0-.1.2-.2,0,0,.1-.2.2-.2,0,0,0-.1.1-.2s0-.2,0-.2c0,0,0-.1,0-.2s0-.1,0-.2c0-.3,0-.6-.2-.8s-.4-.3-.7-.3-.3,0-.4.1c-.1,0-.2.2-.3.2,0,0,0,.1,0,.1s0,0,0,0c0,0,.2,0,.3.1s.1.2.1.3,0,.2-.1.3-.2.1-.3.1Z"/>
        <path class="cls-1" d="M85.8,164.6c-.1,0-.2,0-.3-.1,0,0-.1-.2-.1-.3,0-.3.1-.6.4-.9.3-.2.6-.4.9-.4s.8.1,1.1.4c.3.3.4.6.4,1,0,.2,0,.4-.1.6,0,.2-.2.3-.3.5-.1.1-.3.3-.6.5-.2.1-.4.4-.7.7l-.4.4h.5c.8,0,1.1,0,1.2,0,0,0,0-.2.2-.6h0s.3,0,.3,0h0s0,.3,0,.7c0,.4,0,.6-.1.7h0s-2.7,0-2.7,0h0v-.2s0,0,0-.1c0,0,.1-.1.2-.3.1-.2.3-.3.4-.4,0,0,.1-.1.2-.3.1-.1.2-.2.2-.3s.1-.1.2-.2.2-.2.2-.2c0,0,0-.1.2-.2,0,0,.1-.2.2-.2,0,0,0-.1.1-.2s0-.2,0-.2c0,0,0-.1,0-.2s0-.1,0-.2c0-.3,0-.6-.2-.8s-.4-.3-.7-.3-.3,0-.4.1c-.1,0-.2.2-.3.2,0,0,0,.1,0,.1s0,0,0,0c0,0,.2,0,.3.1s.1.2.1.3,0,.2-.1.3-.2.1-.3.1Z"/>
        <path d="M29.9,185.4c-.1,0-.2,0-.3-.1,0,0-.1-.2-.1-.3,0-.3.1-.5.3-.7.2-.2.5-.3.8-.3s.3,0,.3,0c.4,0,.6.2.8.4.2.2.3.4.3.6,0,.2,0,.5-.2.7s-.4.4-.7.5h0s0,0,0,0c0,0,.1,0,.2,0,0,0,.2,0,.3.2.4.3.6.6.6,1s-.1.7-.4,1c-.3.3-.7.4-1.1.4s-.7-.1-1-.3-.4-.5-.4-.8,0-.2.1-.3c0,0,.2-.1.3-.1.1,0,.2,0,.3.1,0,0,.1.2.1.3s0,.1,0,.1c0,0,0,0,0,.1,0,0,0,0,0,0,0,0,0,0,0,0,0,0,0,0,0,0,0,0,0,0,0,0h0c.2.2.5.3.9.3s.5-.1.6-.4c0-.2.1-.4.1-.7h0c0-.6-.2-.9-.5-1.1,0,0-.2,0-.4,0h-.3s0,0,0,0c0,0,0,0,0-.1s0-.1,0-.1c.1,0,.3,0,.4,0,.2,0,.3-.1.4-.3.1-.2.2-.4.2-.8h0c0-.3,0-.5-.3-.6-.1,0-.2-.1-.3-.1s-.3,0-.4,0c-.1,0-.2.1-.3.2,0,0,0,0,0,0h0s0,0,0,0c0,0,0,0,0,0,0,0,0,0,0,0,0,0,0,0,0,0,0,0,0,0,0,.1,0,0,0,0,0,.1,0,.1,0,.2-.1.3,0,0-.2.1-.3.1Z"/>
        <path class="cls-1" d="M29.9,185.4c-.1,0-.2,0-.3-.1,0,0-.1-.2-.1-.3,0-.3.1-.5.3-.7.2-.2.5-.3.8-.3s.3,0,.3,0c.4,0,.6.2.8.4.2.2.3.4.3.6,0,.2,0,.5-.2.7s-.4.4-.7.5h0s0,0,0,0c0,0,.1,0,.2,0,0,0,.2,0,.3.2.4.3.6.6.6,1s-.1.7-.4,1c-.3.3-.7.4-1.1.4s-.7-.1-1-.3-.4-.5-.4-.8,0-.2.1-.3c0,0,.2-.1.3-.1.1,0,.2,0,.3.1,0,0,.1.2.1.3s0,.1,0,.1c0,0,0,0,0,.1,0,0,0,0,0,0,0,0,0,0,0,0,0,0,0,0,0,0,0,0,0,0,0,0h0c.2.2.5.3.9.3s.5-.1.6-.4c0-.2.1-.4.1-.7h0c0-.6-.2-.9-.5-1.1,0,0-.2,0-.4,0h-.3s0,0,0,0c0,0,0,0,0-.1s0-.1,0-.1c.1,0,.3,0,.4,0,.2,0,.3-.1.4-.3.1-.2.2-.4.2-.8h0c0-.3,0-.5-.3-.6-.1,0-.2-.1-.3-.1s-.3,0-.4,0c-.1,0-.2.1-.3.2,0,0,0,0,0,0h0s0,0,0,0c0,0,0,0,0,0,0,0,0,0,0,0,0,0,0,0,0,0,0,0,0,0,0,.1,0,0,0,0,0,.1,0,.1,0,.2-.1.3,0,0-.2.1-.3.1Z"/>
        <line class="cls-6" x1="59" y1="105.5" x2="59" y2="54.8"/>
        <polygon points="59 111.6 56.9 105.5 61 105.5 59 111.6"/>
        <polygon class="cls-6" points="59 111.6 56.9 105.5 61 105.5 59 111.6"/>
        <path class="cls-13" d="M39.8,37.7c-2.8-1-3.7-5.5-2-10.1.8-2.2,2.1-4.1,3.6-5.3,1.5-1.2,3.1-1.6,4.4-1.1l47.6,17.3c2.8,1,3.7,5.5,2,10.1-1.7,4.5-5.2,7.4-8,6.4l-47.6-17.3Z"/>
        <path class="cls-6" d="M39.8,37.7c-2.8-1-3.7-5.5-2-10.1.8-2.2,2.1-4.1,3.6-5.3,1.5-1.2,3.1-1.6,4.4-1.1l47.6,17.3c2.8,1,3.7,5.5,2,10.1s-5.2,7.4-8,6.4l-47.6-17.3Z"/>
        <path class="cls-6" d="M45.8,21.3c2.8,1,3.7,5.5,2,10.1-1.7,4.5-5.2,7.4-8,6.4"/>
        <polygon class="cls-13" points="42 5.4 79.8 19.2 87.1 34.9 76.4 64.5 38.5 50.8 31.2 35 42 5.4"/>
        <polygon class="cls-6" points="42 5.4 79.8 19.2 87.1 34.9 76.4 64.5 38.5 50.8 31.2 35 42 5.4"/>
        <polygon class="cls-18" points="42 5.4 79.8 19.2 87.1 34.9 49.3 21.1 42 5.4"/>
        <polygon class="cls-16" points="42 5.4 49.3 21.1 38.5 50.8 31.2 35 42 5.4"/>
        <path class="cls-6" d="M49.3,21.1l37.8,13.8M38.5,50.8l10.8-29.6-7.3-15.7"/>
        <path d="M145.2,316.2c0-.7.1-1.4.4-1.9.3-.6.6-1.1,1-1.4.4-.4.9-.6,1.3-.8.5-.2.9-.3,1.3-.3h.1s0,0,0,0c.7,0,1.4.3,2,.8h.2c0,.1.4-.3.4-.3.2-.3.3-.5.4-.5h0s0,0,0,0h0s0,0,.1,0v3.5h0c0,0-.4,0-.4,0,0,0,0-.1,0-.2,0-.7-.3-1.3-.6-1.7-.3-.5-.7-.8-1.2-1-.2,0-.4,0-.6,0-.9,0-1.6.3-2.1.9-.6.6-1,1.7-1,3s.2,1.8.5,2.4c.2.3.4.6.6.8.3.2.5.4.8.5.3,0,.5.2.7.2s.4,0,.5,0c.7,0,1.3-.3,1.8-.9.4-.6.7-1.2.7-1.9,0,0,0-.1,0-.2h.4v.3c0,.8-.4,1.6-.9,2.2-.6.6-1.4.9-2.3.9s-2.2-.4-3-1.3c-.8-.9-1.3-1.9-1.3-3.2Z"/>
        <path class="cls-10" d="M145.2,316.2c0-.7.1-1.4.4-1.9.3-.6.6-1.1,1-1.4.4-.4.9-.6,1.3-.8.5-.2.9-.3,1.3-.3h.1s0,0,0,0c.7,0,1.4.3,2,.8h.2c0,.1.4-.3.4-.3.2-.3.3-.5.4-.5h0s0,0,0,0h0s0,0,.1,0v3.5h0c0,0-.4,0-.4,0,0,0,0-.1,0-.2,0-.7-.3-1.3-.6-1.7-.3-.5-.7-.8-1.2-1-.2,0-.4,0-.6,0-.9,0-1.6.3-2.1.9-.6.6-1,1.7-1,3s.2,1.8.5,2.4c.2.3.4.6.6.8.3.2.5.4.8.5.3,0,.5.2.7.2s.4,0,.5,0c.7,0,1.3-.3,1.8-.9.4-.6.7-1.2.7-1.9,0,0,0-.1,0-.2h.4v.3c0,.8-.4,1.6-.9,2.2-.6.6-1.4.9-2.3.9s-2.2-.4-3-1.3c-.8-.9-1.3-1.9-1.3-3.2Z"/>
        <path d="M153.9,319.9h.2c.3,0,.5,0,.6-.2h0v-.8c0-.2,0-.3,0-.5,0-.2,0-.4,0-.6s0-.4,0-.7c0-.2,0-.5,0-.7v-2.6c0-.2,0-.4,0-.5,0-.1,0-.2,0-.2,0-.2,0-.3-.2-.3,0,0-.3,0-.6-.1h-.2v-.3c0-.2,0-.3,0-.3h.1c0,0,.2,0,.4,0,.2,0,.3,0,.5,0,.1,0,.3,0,.5,0,.2,0,.3,0,.4,0,0,0,.1,0,.1,0h0v3.9c0,2.6,0,3.9,0,3.9,0,0,0,.1.1.1.2,0,.4,0,.6,0h.2v.6h-.4c-.2,0-.4,0-.6,0s-.4,0-.5,0c0,0-.3,0-.5,0s-.4,0-.6,0h-.3s0,0,0,0v-.6h.2Z"/>
        <path class="cls-10" d="M153.9,319.9h.2c.3,0,.5,0,.6-.2h0v-.8c0-.2,0-.3,0-.5,0-.2,0-.4,0-.6s0-.4,0-.7c0-.2,0-.5,0-.7v-2.6c0-.2,0-.4,0-.5,0-.1,0-.2,0-.2,0-.2,0-.3-.2-.3,0,0-.3,0-.6-.1h-.2v-.3c0-.2,0-.3,0-.3h.1c0,0,.2,0,.4,0,.2,0,.3,0,.5,0,.1,0,.3,0,.5,0,.2,0,.3,0,.4,0,0,0,.1,0,.1,0h0v3.9c0,2.6,0,3.9,0,3.9,0,0,0,.1.1.1.2,0,.4,0,.6,0h.2v.6h-.4c-.2,0-.4,0-.6,0s-.4,0-.5,0c0,0-.3,0-.5,0s-.4,0-.6,0h-.3s0,0,0,0v-.6h.2Z"/>
        <path d="M159.9,320.1c1,0,1.5-.7,1.5-2v-.7c0-.2,0-.3,0-.5,0-.1,0-.3,0-.5,0-.2-.1-.3-.2-.4s-.2-.2-.4-.3c-.2-.1-.4-.2-.6-.2,0,0-.1,0-.2,0-.2,0-.5,0-.7.1-.4.2-.6.4-.7.8-.1.3-.2.7-.2,1.1v.2c0,.8,0,1.3.2,1.7.3.5.7.8,1.3.8ZM157.2,317.8c0-.8.3-1.5.8-2,.5-.6,1.2-.9,1.9-.9.7,0,1.4.3,1.9.8.5.6.8,1.2.8,2,0,.8-.3,1.4-.8,2-.5.5-1.2.8-1.9.8s-1.5-.3-2-.8c-.5-.6-.8-1.2-.8-1.9Z"/>
        <path class="cls-10" d="M159.9,320.1c1,0,1.5-.7,1.5-2v-.7c0-.2,0-.3,0-.5,0-.1,0-.3,0-.5,0-.2-.1-.3-.2-.4s-.2-.2-.4-.3c-.2-.1-.4-.2-.6-.2,0,0-.1,0-.2,0-.2,0-.5,0-.7.1-.4.2-.6.4-.7.8-.1.3-.2.7-.2,1.1v.2c0,.8,0,1.3.2,1.7.3.5.7.8,1.3.8ZM157.2,317.8c0-.8.3-1.5.8-2,.5-.6,1.2-.9,1.9-.9.7,0,1.4.3,1.9.8.5.6.8,1.2.8,2,0,.8-.3,1.4-.8,2-.5.5-1.2.8-1.9.8s-1.5-.3-2-.8c-.5-.6-.8-1.2-.8-1.9Z"/>
        <path d="M167.7,319.7c-.5.6-1,.8-1.6.8h0c-1,0-1.6-.4-1.8-1.2,0,0,0-.6,0-1.7,0-.9,0-1.4,0-1.5s0-.2,0-.3c0-.1-.3-.2-.7-.2h-.1v-.3c0-.2,0-.3,0-.3h.1c0,0,.2,0,.4,0,.2,0,.3,0,.5,0,.1,0,.3,0,.5,0s.3,0,.4,0c0,0,.1,0,.1,0h0v2.2c0,1.5,0,2.3,0,2.4,0,.1,0,.2.2.3.2.1.4.2.7.2s.4,0,.6-.1c.2,0,.3-.2.4-.3,0-.1.2-.2.2-.4,0-.1.1-.3.1-.4,0,0,0-.2,0-.3v-.2c0-.1,0-.3,0-.5,0-.2,0-.4,0-.6v-.8c0-.4,0-.6-.1-.7,0,0-.3-.1-.6-.2h-.2v-.6s.3,0,.9,0c.6,0,.9,0,1,0h0v2.2c0,1.5,0,2.2,0,2.3,0,.2,0,.3.2.3,0,0,.3,0,.6.1h.2v.6s-.3,0-.9,0c-.6,0-.9,0-.9,0h0v-.9Z"/>
        <path class="cls-10" d="M167.7,319.7c-.5.6-1,.8-1.6.8h0c-1,0-1.6-.4-1.8-1.2,0,0,0-.6,0-1.7,0-.9,0-1.4,0-1.5s0-.2,0-.3c0-.1-.3-.2-.7-.2h-.1v-.3c0-.2,0-.3,0-.3h.1c0,0,.2,0,.4,0,.2,0,.3,0,.5,0,.1,0,.3,0,.5,0s.3,0,.4,0c0,0,.1,0,.1,0h0v2.2c0,1.5,0,2.3,0,2.4,0,.1,0,.2.2.3.2.1.4.2.7.2s.4,0,.6-.1c.2,0,.3-.2.4-.3,0-.1.2-.2.2-.4,0-.1.1-.3.1-.4,0,0,0-.2,0-.3v-.2c0-.1,0-.3,0-.5,0-.2,0-.4,0-.6v-.8c0-.4,0-.6-.1-.7,0,0-.3-.1-.6-.2h-.2v-.6s.3,0,.9,0c.6,0,.9,0,1,0h0v2.2c0,1.5,0,2.2,0,2.3,0,.2,0,.3.2.3,0,0,.3,0,.6.1h.2v.6s-.3,0-.9,0c-.6,0-.9,0-.9,0h0v-.9Z"/>
        <path d="M174.5,316.2c-.4-.5-.8-.8-1.4-.8s-.8.1-1.1.4c-.2.2-.4.5-.4.8,0,.3,0,.7,0,1.2,0,.5,0,.8,0,1.1,0,.3.2.5.4.8.2.3.6.4,1,.4.6,0,1.1-.3,1.5-.9v-2.9ZM174.5,314.3v-.5c0-.2,0-.3,0-.4,0-.4,0-.6-.1-.7,0,0-.3-.1-.6-.2h-.2v-.3c0-.2,0-.3,0-.3h.1c0,0,.2,0,.4,0,.2,0,.3,0,.5,0,.1,0,.3,0,.5,0,.2,0,.3,0,.4,0s.1,0,.1,0h0v3.7c0,2.5,0,3.8,0,3.8,0,.2,0,.3.2.3,0,0,.3,0,.6.1h.2v.6s-.3,0-.9,0c-.6,0-.9,0-1,0h0v-.7h0c-.5.5-1,.7-1.6.7s-1.2-.3-1.7-.8c-.5-.5-.8-1.2-.8-2s.3-1.5.8-2c.5-.5,1.1-.8,1.8-.8.6,0,1.2.2,1.6.6v-1.3Z"/>
        <path class="cls-10" d="M174.5,316.2c-.4-.5-.8-.8-1.4-.8s-.8.1-1.1.4c-.2.2-.4.5-.4.8,0,.3,0,.7,0,1.2,0,.5,0,.8,0,1.1,0,.3.2.5.4.8.2.3.6.4,1,.4.6,0,1.1-.3,1.5-.9v-2.9ZM174.5,314.3v-.5c0-.2,0-.3,0-.4,0-.4,0-.6-.1-.7,0,0-.3-.1-.6-.2h-.2v-.3c0-.2,0-.3,0-.3h.1c0,0,.2,0,.4,0,.2,0,.3,0,.5,0,.1,0,.3,0,.5,0,.2,0,.3,0,.4,0s.1,0,.1,0h0v3.7c0,2.5,0,3.8,0,3.8,0,.2,0,.3.2.3,0,0,.3,0,.6.1h.2v.6s-.3,0-.9,0c-.6,0-.9,0-1,0h0v-.7h0c-.5.5-1,.7-1.6.7s-1.2-.3-1.7-.8c-.5-.5-.8-1.2-.8-2s.3-1.5.8-2c.5-.5,1.1-.8,1.8-.8.6,0,1.2.2,1.6.6v-1.3Z"/>
        <path d="M250.3,203.9c0-.7.2-1.3.7-1.7.5-.5,1-.7,1.6-.7h.2c.7,0,1.3.3,1.8.8l.3-.4c0,0,0-.1.1-.2,0,0,0-.1.1-.2h0s0,0,0,0,0,0,0,0h0s0,0,.1,0v2.9h0c0,0-.2,0-.2,0,0,0-.1,0-.2,0,0,0,0-.1,0-.2-.1-1-.6-1.7-1.2-2.1-.3-.1-.6-.2-.9-.2s-.8.1-1.1.4c-.3.3-.4.6-.4,1s0,.5.2.8c.1.2.3.4.6.6,0,0,.4.1,1.1.3.6.2,1,.3,1,.3.5.2.9.5,1.1.9.3.4.4.9.5,1.5,0,.7-.2,1.3-.6,1.8-.4.5-1,.8-1.8.8-.5,0-.9,0-1.2-.2-.4-.1-.6-.3-.8-.4l-.2-.2s0,.1-.2.2c0,.1-.2.2-.2.3,0,.1-.1.2-.1.2,0,0,0,0-.1,0h0s0,0-.1,0v-1.4c0-1,0-1.5,0-1.5,0,0,0,0,.2,0h.2s0,.1,0,.2c0,.3,0,.5.1.8,0,.3.2.5.4.8.2.2.5.4.8.6.3.1.8.2,1.2.2s.7-.2,1-.5c.3-.3.4-.7.4-1.1s0-.7-.3-1c-.2-.3-.4-.5-.7-.6-.5-.1-.8-.2-.9-.2,0,0-.2,0-.3,0-.2,0-.3,0-.4,0,0,0-.2,0-.4-.1-.2,0-.3-.1-.4-.2s-.2-.2-.4-.3c-.1-.1-.3-.3-.3-.4-.2-.4-.4-.8-.4-1.3Z"/>
        <path class="cls-10" d="M250.3,203.9c0-.7.2-1.3.7-1.7.5-.5,1-.7,1.6-.7h.2c.7,0,1.3.3,1.8.8l.3-.4c0,0,0-.1.1-.2,0,0,0-.1.1-.2h0s0,0,0,0,0,0,0,0h0s0,0,.1,0v2.9h0c0,0-.2,0-.2,0,0,0-.1,0-.2,0,0,0,0-.1,0-.2-.1-1-.6-1.7-1.2-2.1-.3-.1-.6-.2-.9-.2s-.8.1-1.1.4c-.3.3-.4.6-.4,1s0,.5.2.8c.1.2.3.4.6.6,0,0,.4.1,1.1.3.6.2,1,.3,1,.3.5.2.9.5,1.1.9.3.4.4.9.5,1.5,0,.7-.2,1.3-.6,1.8-.4.5-1,.8-1.8.8-.5,0-.9,0-1.2-.2-.4-.1-.6-.3-.8-.4l-.2-.2s0,.1-.2.2c0,.1-.2.2-.2.3,0,.1-.1.2-.1.2,0,0,0,0-.1,0h0s0,0-.1,0v-1.4c0-1,0-1.5,0-1.5,0,0,0,0,.2,0h.2s0,.1,0,.2c0,.3,0,.5.1.8,0,.3.2.5.4.8.2.2.5.4.8.6.3.1.8.2,1.2.2s.7-.2,1-.5c.3-.3.4-.7.4-1.1s0-.7-.3-1c-.2-.3-.4-.5-.7-.6-.5-.1-.8-.2-.9-.2,0,0-.2,0-.3,0-.2,0-.3,0-.4,0,0,0-.2,0-.4-.1-.2,0-.3-.1-.4-.2s-.2-.2-.4-.3c-.1-.1-.3-.3-.3-.4-.2-.4-.4-.8-.4-1.3Z"/>
        <path d="M260.5,206.7c0-1.1-.5-1.6-1.2-1.7h0c0,0-.1,0-.2,0,0,0-.2,0-.3,0-.1,0-.3.1-.4.3,0,.1-.2.3-.3.5,0,.2-.2.5-.2.8h0c0,0,2.5,0,2.5,0h0ZM256.8,207.4c0-.5,0-.9.2-1.2.2-.4.4-.7.6-.9.2-.2.5-.4.8-.5s.6-.2.8-.2c.4,0,.8,0,1.1.2.3.1.6.4.7.6.2.3.3.5.3.8,0,.3.1.6.1.9,0,0,0,.1,0,.2h-3.5v.2c0,1.2.4,2,1.2,2.2.2,0,.3,0,.5,0,.3,0,.6-.1.9-.4.1-.1.3-.3.3-.5v-.3c.1,0,.2,0,.3,0h0c.1,0,.2,0,.2.1s0,0,0,.2c-.2.5-.4.8-.8,1.1-.4.3-.8.4-1.2.4-.8,0-1.4-.3-1.9-.9-.5-.6-.8-1.2-.8-2Z"/>
        <path class="cls-10" d="M260.5,206.7c0-1.1-.5-1.6-1.2-1.7h0c0,0-.1,0-.2,0,0,0-.2,0-.3,0-.1,0-.3.1-.4.3,0,.1-.2.3-.3.5,0,.2-.2.5-.2.8h0c0,0,2.5,0,2.5,0h0ZM256.8,207.4c0-.5,0-.9.2-1.2.2-.4.4-.7.6-.9.2-.2.5-.4.8-.5s.6-.2.8-.2c.4,0,.8,0,1.1.2.3.1.6.4.7.6.2.3.3.5.3.8,0,.3.1.6.1.9,0,0,0,.1,0,.2h-3.5v.2c0,1.2.4,2,1.2,2.2.2,0,.3,0,.5,0,.3,0,.6-.1.9-.4.1-.1.3-.3.3-.5v-.3c.1,0,.2,0,.3,0h0c.1,0,.2,0,.2.1s0,0,0,.2c-.2.5-.4.8-.8,1.1-.4.3-.8.4-1.2.4-.8,0-1.4-.3-1.9-.9-.5-.6-.8-1.2-.8-2Z"/>
        <path d="M262.4,209.6h.2c.3,0,.5,0,.6-.2h0v-.8c0-.1,0-.3,0-.5,0-.2,0-.4,0-.5v-.8c0-.3,0-.5,0-.7v-.3c0-.2,0-.3-.2-.3,0,0-.3,0-.6-.1h-.2v-.3c0-.2,0-.3,0-.3h.1c0,0,.2,0,.3,0,.1,0,.3,0,.5,0,.1,0,.3,0,.4,0,.2,0,.3,0,.4,0,0,0,.1,0,.1,0h0v.5c0,.3,0,.5,0,.5s0,0,0,0c0,0,0-.1.1-.2,0,0,.1-.2.2-.2,0,0,.2-.1.4-.2.1,0,.3-.2.5-.2s.4,0,.6,0c.9,0,1.5.5,1.6,1.4,0,0,0,.6,0,1.7v1.1c0,.3,0,.5,0,.6,0,0,0,0,.1.1.2,0,.4,0,.6,0h.2v.6h-.4c-.2,0-.4,0-.6,0s-.4,0-.5,0c-.8,0-1.3,0-1.4,0h0v-.6h.2c.5,0,.8,0,.8-.2,0,0,0-.6,0-1.7,0-1.1,0-1.7,0-1.8,0-.2-.1-.4-.2-.5-.1-.1-.2-.2-.3-.2,0,0-.2,0-.3,0-.4,0-.7.1-1,.4-.2.2-.4.4-.4.7,0,.2,0,.6,0,1v1.5c0,.2,0,.4,0,.5,0,0,0,.1,0,.2s0,0,.1,0c.2,0,.4,0,.6,0h.2v.6h-.4c-.2,0-.4,0-.6,0s-.4,0-.5,0c-.8,0-1.3,0-1.4,0h0v-.6h.2Z"/>
        <path class="cls-10" d="M262.4,209.6h.2c.3,0,.5,0,.6-.2h0v-.8c0-.1,0-.3,0-.5,0-.2,0-.4,0-.5v-.8c0-.3,0-.5,0-.7v-.3c0-.2,0-.3-.2-.3,0,0-.3,0-.6-.1h-.2v-.3c0-.2,0-.3,0-.3h.1c0,0,.2,0,.3,0,.1,0,.3,0,.5,0,.1,0,.3,0,.4,0,.2,0,.3,0,.4,0,0,0,.1,0,.1,0h0v.5c0,.3,0,.5,0,.5s0,0,0,0c0,0,0-.1.1-.2,0,0,.1-.2.2-.2,0,0,.2-.1.4-.2.1,0,.3-.2.5-.2s.4,0,.6,0c.9,0,1.5.5,1.6,1.4,0,0,0,.6,0,1.7v1.1c0,.3,0,.5,0,.6,0,0,0,0,.1.1.2,0,.4,0,.6,0h.2v.6h-.4c-.2,0-.4,0-.6,0s-.4,0-.5,0c-.8,0-1.3,0-1.4,0h0v-.6h.2c.5,0,.8,0,.8-.2,0,0,0-.6,0-1.7,0-1.1,0-1.7,0-1.8,0-.2-.1-.4-.2-.5-.1-.1-.2-.2-.3-.2,0,0-.2,0-.3,0-.4,0-.7.1-1,.4-.2.2-.4.4-.4.7,0,.2,0,.6,0,1v1.5c0,.2,0,.4,0,.5,0,0,0,.1,0,.2s0,0,.1,0c.2,0,.4,0,.6,0h.2v.6h-.4c-.2,0-.4,0-.6,0s-.4,0-.5,0c-.8,0-1.3,0-1.4,0h0v-.6h.2Z"/>
        <path d="M272.4,206.2c0-.3-.1-.6-.3-.9-.2-.2-.5-.4-1-.4s-.6,0-.8.2c-.2.2-.4.4-.4.6,0,0,0,0,0,.2,0,0,0,.2.2.3.1.1.3.2.5.3.1,0,.3,0,.5.1.2,0,.4,0,.5.1.1,0,.3,0,.4.2.1,0,.3.1.4.2.1,0,.3.3.4.5.1.2.2.5.2.8,0,.5-.2.9-.5,1.3-.3.3-.8.5-1.5.5h0c-.4,0-.8-.1-1.2-.4h0c0,0-.1.2-.1.2,0,0,0,0-.1.1h-.1c0,.1,0,.1,0,.1h0s0,0-.1,0v-1.7c0-.2,0-.3,0-.3,0,0,0,0,.1,0h.1c0,0,.2,0,.2,0s0,0,0,.1c0,0,0,.2,0,.3,0,.2.1.3.2.5.3.4.7.6,1.2.6.8,0,1.2-.3,1.2-1s0-.4-.2-.6c-.2-.2-.5-.3-1-.4-.5,0-.9-.2-1-.3-.3-.1-.5-.3-.7-.6s-.3-.5-.3-.8,0-.6.2-.8c.1-.2.3-.4.5-.5s.4-.2.6-.2c.2,0,.4,0,.5,0h.1c.3,0,.6,0,.9.2h.2c0,0,.1,0,.1,0,0,0,.2-.1.3-.2h.1s0,0,.1,0v1.6h0c0,0-.3,0-.3,0,0,0,0,0,0-.1Z"/>
        <path class="cls-10" d="M272.4,206.2c0-.3-.1-.6-.3-.9-.2-.2-.5-.4-1-.4s-.6,0-.8.2c-.2.2-.4.4-.4.6,0,0,0,0,0,.2,0,0,0,.2.2.3.1.1.3.2.5.3.1,0,.3,0,.5.1.2,0,.4,0,.5.1.1,0,.3,0,.4.2.1,0,.3.1.4.2.1,0,.3.3.4.5.1.2.2.5.2.8,0,.5-.2.9-.5,1.3-.3.3-.8.5-1.5.5h0c-.4,0-.8-.1-1.2-.4h0c0,0-.1.2-.1.2,0,0,0,0-.1.1h-.1c0,.1,0,.1,0,.1h0s0,0-.1,0v-1.7c0-.2,0-.3,0-.3,0,0,0,0,.1,0h.1c0,0,.2,0,.2,0s0,0,0,.1c0,0,0,.2,0,.3,0,.2.1.3.2.5.3.4.7.6,1.2.6.8,0,1.2-.3,1.2-1s0-.4-.2-.6c-.2-.2-.5-.3-1-.4-.5,0-.9-.2-1-.3-.3-.1-.5-.3-.7-.6s-.3-.5-.3-.8,0-.6.2-.8c.1-.2.3-.4.5-.5s.4-.2.6-.2c.2,0,.4,0,.5,0h.1c.3,0,.6,0,.9.2h.2c0,0,.1,0,.1,0,0,0,.2-.1.3-.2h.1s0,0,.1,0v1.6h0c0,0-.3,0-.3,0,0,0,0,0,0-.1Z"/>
        <path d="M276.7,209.8c1,0,1.5-.7,1.5-2v-.7c0-.2,0-.3,0-.5,0-.1,0-.3,0-.5s-.1-.3-.2-.4c0-.1-.2-.2-.4-.3-.2-.1-.4-.2-.6-.2,0,0-.1,0-.2,0-.2,0-.5,0-.7.1-.4.2-.6.4-.7.8-.1.3-.2.7-.2,1.1v.2c0,.8,0,1.3.2,1.7.3.5.7.8,1.3.8ZM274,207.5c0-.8.3-1.5.8-2s1.2-.9,1.9-.9c.7,0,1.4.3,1.9.8.5.6.8,1.2.8,2,0,.8-.3,1.4-.8,2-.5.5-1.2.8-1.9.8s-1.5-.3-2-.8c-.5-.6-.8-1.2-.8-1.9Z"/>
        <path class="cls-10" d="M276.7,209.8c1,0,1.5-.7,1.5-2v-.7c0-.2,0-.3,0-.5,0-.1,0-.3,0-.5s-.1-.3-.2-.4c0-.1-.2-.2-.4-.3-.2-.1-.4-.2-.6-.2,0,0-.1,0-.2,0-.2,0-.5,0-.7.1-.4.2-.6.4-.7.8-.1.3-.2.7-.2,1.1v.2c0,.8,0,1.3.2,1.7.3.5.7.8,1.3.8ZM274,207.5c0-.8.3-1.5.8-2s1.2-.9,1.9-.9c.7,0,1.4.3,1.9.8.5.6.8,1.2.8,2,0,.8-.3,1.4-.8,2-.5.5-1.2.8-1.9.8s-1.5-.3-2-.8c-.5-.6-.8-1.2-.8-1.9Z"/>
        <path d="M280.2,209.6h.2c.3,0,.5,0,.6-.2h0v-.4c0-.1,0-.2,0-.4s0-.3,0-.5c0-.2,0-.4,0-.5v-1.8c0-.2,0-.3-.2-.3,0,0-.3,0-.6-.1h-.2v-.3c0-.2,0-.3,0-.3h.1c0,0,.2,0,.3,0,.1,0,.3,0,.4,0,.1,0,.3,0,.4,0,.2,0,.3,0,.4,0,0,0,.1,0,.1,0h0v.9c.3-.6.7-.8,1.2-.8h0c.4,0,.6,0,.8.3s.3.4.3.6,0,.3-.2.4c-.1.1-.3.2-.5.2s-.4,0-.5-.2c0-.1-.2-.3-.2-.4,0,0,0-.1,0-.2,0,0,0-.1,0-.1,0,0,0,0,0,0,0,0-.1,0-.3,0-.1,0-.2.1-.3.2-.4.4-.6,1.1-.6,2.2v1.3c0,0,0,.2,0,.2,0,0,0,.1,0,.2h0c0,0,0,0,0,.1s0,0,0,0c0,0,0,0,0,0,0,0,0,0,0,0s0,0,0,0c0,0,0,0,.1,0h.1s0,0,.1,0c0,0,.1,0,.1,0h.4v.6h-.1c-.1,0-.7,0-1.6,0s-1.3,0-1.4,0h0v-.6h.2Z"/>
        <path class="cls-10" d="M280.2,209.6h.2c.3,0,.5,0,.6-.2h0v-.4c0-.1,0-.2,0-.4s0-.3,0-.5c0-.2,0-.4,0-.5v-1.8c0-.2,0-.3-.2-.3,0,0-.3,0-.6-.1h-.2v-.3c0-.2,0-.3,0-.3h.1c0,0,.2,0,.3,0,.1,0,.3,0,.4,0,.1,0,.3,0,.4,0,.2,0,.3,0,.4,0,0,0,.1,0,.1,0h0v.9c.3-.6.7-.8,1.2-.8h0c.4,0,.6,0,.8.3s.3.4.3.6,0,.3-.2.4c-.1.1-.3.2-.5.2s-.4,0-.5-.2c0-.1-.2-.3-.2-.4,0,0,0-.1,0-.2,0,0,0-.1,0-.1,0,0,0,0,0,0,0,0-.1,0-.3,0-.1,0-.2.1-.3.2-.4.4-.6,1.1-.6,2.2v1.3c0,0,0,.2,0,.2,0,0,0,.1,0,.2h0c0,0,0,0,0,.1s0,0,0,0c0,0,0,0,0,0,0,0,0,0,0,0s0,0,0,0c0,0,0,0,.1,0h.1s0,0,.1,0c0,0,.1,0,.1,0h.4v.6h-.1c-.1,0-.7,0-1.6,0s-1.3,0-1.4,0h0v-.6h.2Z"/>
        <polyline class="cls-6" points="118.6 297.6 59.4 297.6 59 215.9"/>
        <polygon points="124.7 297.6 118.6 299.6 118.6 295.6 124.7 297.6"/>
        <polygon class="cls-6" points="124.7 297.6 118.6 299.6 118.6 295.6 124.7 297.6"/>
        <rect class="cls-19" x="11.9" y="201" width="92.2" height="15.8"/>
        <rect class="cls-7" x="11.9" y="201" width="92.2" height="15.8"/>
        <path d="M33.8,207.2s0-.5.1-1.4c0-.9.1-1.4.1-1.4h0c0,0,7.5,0,7.5,0h0c0,.1,0,.6.1,1.5,0,.9.1,1.4.1,1.4h0c0,0-.5,0-.5,0h0c0,0,0-.2,0-.5,0-.3,0-.5-.1-.8,0-.3-.2-.5-.3-.6-.1-.2-.4-.3-.7-.4-.2,0-.5,0-.9,0h-.4c-.2,0-.3,0-.4.1,0,0,0,1.2,0,3.4v3.4c0,0,.2.1.3.2.2,0,.5,0,1.1,0h.4v.6h-2.4c-1.4,0-2.2,0-2.3,0h-.2v-.6h.4c.6,0,.9,0,1.1,0,.2,0,.3,0,.3-.2v-6c0-.6,0-.9,0-.9,0,0-.2,0-.4,0h-.6c-.6,0-1,.1-1.3.4-.1.1-.3.3-.3.6,0,.3-.1.5-.1.8,0,.3,0,.5,0,.5h0c0,0-.5,0-.5,0h0Z"/>
        <path class="cls-2" d="M33.8,207.2s0-.5.1-1.4c0-.9.1-1.4.1-1.4h0c0,0,7.5,0,7.5,0h0c0,.1,0,.6.1,1.5,0,.9.1,1.4.1,1.4h0c0,0-.5,0-.5,0h0c0,0,0-.2,0-.5,0-.3,0-.5-.1-.8,0-.3-.2-.5-.3-.6-.1-.2-.4-.3-.7-.4-.2,0-.5,0-.9,0h-.4c-.2,0-.3,0-.4.1,0,0,0,1.2,0,3.4v3.4c0,0,.2.1.3.2.2,0,.5,0,1.1,0h.4v.6h-2.4c-1.4,0-2.2,0-2.3,0h-.2v-.6h.4c.6,0,.9,0,1.1,0,.2,0,.3,0,.3-.2v-6c0-.6,0-.9,0-.9,0,0-.2,0-.4,0h-.6c-.6,0-1,.1-1.3.4-.1.1-.3.3-.3.6,0,.3-.1.5-.1.8,0,.3,0,.5,0,.5h0c0,0-.5,0-.5,0h0Z"/>
        <path d="M42.7,212h.2c.3,0,.5,0,.6-.2h0v-.4c0-.1,0-.2,0-.4,0-.1,0-.3,0-.5,0-.2,0-.4,0-.5v-1.8c0-.2,0-.3-.2-.3,0,0-.3,0-.6-.1h-.2v-.3c0-.2,0-.3,0-.3h.1c0,0,.2,0,.3,0,.1,0,.3,0,.4,0,.1,0,.3,0,.4,0,.2,0,.3,0,.4,0,0,0,.1,0,.1,0h0v.8c.3-.6.7-.8,1.2-.8h0c.4,0,.6,0,.8.3.2.2.3.4.3.6s0,.3-.2.4c-.1.1-.3.2-.5.2s-.4,0-.5-.2c0-.1-.2-.3-.2-.4,0,0,0-.1,0-.2,0,0,0-.1,0-.1s0,0,0,0c0,0-.1,0-.3,0-.1,0-.2.1-.3.2-.4.4-.6,1.1-.6,2.2v1.3c0,0,0,.2,0,.2s0,.1,0,.2h0c0,0,0,0,0,.1,0,0,0,0,0,0,0,0,0,0,0,0,0,0,0,0,0,0s0,0,0,0c0,0,0,0,.1,0h.1s0,0,.1,0c0,0,.1,0,.1,0h.4v.6h-.1c-.1,0-.7,0-1.6,0s-1.3,0-1.4,0h0v-.6h.2Z"/>
        <path class="cls-2" d="M42.7,212h.2c.3,0,.5,0,.6-.2h0v-.4c0-.1,0-.2,0-.4,0-.1,0-.3,0-.5,0-.2,0-.4,0-.5v-1.8c0-.2,0-.3-.2-.3,0,0-.3,0-.6-.1h-.2v-.3c0-.2,0-.3,0-.3h.1c0,0,.2,0,.3,0,.1,0,.3,0,.4,0,.1,0,.3,0,.4,0,.2,0,.3,0,.4,0,0,0,.1,0,.1,0h0v.8c.3-.6.7-.8,1.2-.8h0c.4,0,.6,0,.8.3.2.2.3.4.3.6s0,.3-.2.4c-.1.1-.3.2-.5.2s-.4,0-.5-.2c0-.1-.2-.3-.2-.4,0,0,0-.1,0-.2,0,0,0-.1,0-.1s0,0,0,0c0,0-.1,0-.3,0-.1,0-.2.1-.3.2-.4.4-.6,1.1-.6,2.2v1.3c0,0,0,.2,0,.2s0,.1,0,.2h0c0,0,0,0,0,.1,0,0,0,0,0,0,0,0,0,0,0,0,0,0,0,0,0,0s0,0,0,0c0,0,0,0,.1,0h.1s0,0,.1,0c0,0,.1,0,.1,0h.4v.6h-.1c-.1,0-.7,0-1.6,0s-1.3,0-1.4,0h0v-.6h.2Z"/>
        <path d="M48.6,211.3c0,.3,0,.5.3.7.2.2.4.3.7.3.3,0,.6,0,.8-.3.2-.2.4-.4.5-.7,0,0,0-.3,0-.8,0-.5,0-.7,0-.7,0,0-.2,0-.3,0-.1,0-.3,0-.6.1-.3,0-.5.1-.7.2-.2,0-.4.3-.6.5-.2.2-.3.5-.3.7ZM48.8,208.9h-.3c-.2,0-.3,0-.5-.2-.1-.1-.2-.3-.2-.5,0-.3.1-.5.4-.8s.8-.3,1.5-.3,1.1.1,1.5.4c.4.3.6.6.7.9,0,.1,0,.2,0,.4s0,.6,0,1.4v.9c0,.4,0,.7,0,.8,0,.1.1.2.3.2s.2,0,.2-.2c0-.1,0-.3,0-.7v-.4h.5v.5c0,.3,0,.5,0,.6,0,.2-.2.4-.4.6-.2.1-.4.2-.7.2s-.4,0-.6-.2c-.1-.2-.2-.3-.3-.5h0s0,0,0,0c0,0,0,0,0,0,0,0,0,0,0,.1,0,0,0,0-.1.1,0,0-.1,0-.2.1,0,0-.1.1-.2.1,0,0-.2,0-.3,0s-.2,0-.3,0c-.1,0-.2,0-.4,0-.5,0-.9-.1-1.3-.4-.4-.3-.6-.6-.6-1.1s0-.3,0-.5c0-.2.2-.3.3-.5.2-.2.4-.3.6-.5.2-.1.5-.2,1-.3s.9-.2,1.4-.2h.2v-.3c0-.3,0-.5,0-.6-.2-.6-.6-.9-1.2-.9s-.3,0-.4,0c-.1,0-.2,0-.3,0,0,0-.1,0,0,0,.2.1.3.3.3.5s0,.4-.2.5l-.2.2Z"/>
        <path class="cls-2" d="M48.6,211.3c0,.3,0,.5.3.7.2.2.4.3.7.3.3,0,.6,0,.8-.3.2-.2.4-.4.5-.7,0,0,0-.3,0-.8,0-.5,0-.7,0-.7,0,0-.2,0-.3,0-.1,0-.3,0-.6.1-.3,0-.5.1-.7.2-.2,0-.4.3-.6.5-.2.2-.3.5-.3.7ZM48.8,208.9h-.3c-.2,0-.3,0-.5-.2-.1-.1-.2-.3-.2-.5,0-.3.1-.5.4-.8s.8-.3,1.5-.3,1.1.1,1.5.4c.4.3.6.6.7.9,0,.1,0,.2,0,.4s0,.6,0,1.4v.9c0,.4,0,.7,0,.8,0,.1.1.2.3.2s.2,0,.2-.2c0-.1,0-.3,0-.7v-.4h.5v.5c0,.3,0,.5,0,.6,0,.2-.2.4-.4.6-.2.1-.4.2-.7.2s-.4,0-.6-.2c-.1-.2-.2-.3-.3-.5h0s0,0,0,0c0,0,0,0,0,0,0,0,0,0,0,.1,0,0,0,0-.1.1,0,0-.1,0-.2.1,0,0-.1.1-.2.1,0,0-.2,0-.3,0s-.2,0-.3,0c-.1,0-.2,0-.4,0-.5,0-.9-.1-1.3-.4-.4-.3-.6-.6-.6-1.1s0-.3,0-.5c0-.2.2-.3.3-.5.2-.2.4-.3.6-.5.2-.1.5-.2,1-.3s.9-.2,1.4-.2h.2v-.3c0-.3,0-.5,0-.6-.2-.6-.6-.9-1.2-.9s-.3,0-.4,0c-.1,0-.2,0-.3,0,0,0-.1,0,0,0,.2.1.3.3.3.5s0,.4-.2.5l-.2.2Z"/>
        <path d="M57.8,208.9h-.3c-.2,0-.3,0-.4-.2-.1-.1-.2-.3-.2-.5,0-.2,0-.3.2-.5,0,0,0,0,0,0s0,0-.1,0c-.2,0-.4,0-.6,0-.4,0-.7.1-1,.4-.4.4-.6,1-.6,1.9s.1,1.2.4,1.6c.3.5.8.8,1.4.8s.6-.1.8-.3c.2-.2.4-.5.4-.8,0,0,0-.1,0-.1,0,0,0,0,.2,0h.2s0,0,0,.1,0,0,0,.2c0,0,0,.2-.2.4,0,.2-.2.3-.4.5-.1.1-.3.3-.6.4-.3.1-.5.2-.8.2-.7,0-1.3-.3-1.8-.8-.5-.5-.8-1.2-.8-2,0-.9.3-1.5.8-2.1s1.2-.8,1.9-.8,1.2.1,1.5.3.4.5.4.8,0,.3-.2.5l-.2.2Z"/>
        <path class="cls-2" d="M57.8,208.9h-.3c-.2,0-.3,0-.4-.2-.1-.1-.2-.3-.2-.5,0-.2,0-.3.2-.5,0,0,0,0,0,0s0,0-.1,0c-.2,0-.4,0-.6,0-.4,0-.7.1-1,.4-.4.4-.6,1-.6,1.9s.1,1.2.4,1.6c.3.5.8.8,1.4.8s.6-.1.8-.3c.2-.2.4-.5.4-.8,0,0,0-.1,0-.1,0,0,0,0,.2,0h.2s0,0,0,.1,0,0,0,.2c0,0,0,.2-.2.4,0,.2-.2.3-.4.5-.1.1-.3.3-.6.4-.3.1-.5.2-.8.2-.7,0-1.3-.3-1.8-.8-.5-.5-.8-1.2-.8-2,0-.9.3-1.5.8-2.1s1.2-.8,1.9-.8,1.2.1,1.5.3.4.5.4.8,0,.3-.2.5l-.2.2Z"/>
        <path d="M59.1,212h.2c.3,0,.5,0,.6-.2h0v-.8c0-.2,0-.3,0-.5,0-.2,0-.4,0-.6,0-.2,0-.4,0-.7,0-.2,0-.5,0-.7v-2.6c0-.2,0-.4,0-.5,0-.1,0-.2,0-.2,0-.2,0-.3-.2-.3,0,0-.3,0-.6-.1h-.2v-.3c0-.2,0-.3,0-.3h.1c0,0,.2,0,.4,0,.2,0,.3,0,.5,0,.1,0,.3,0,.5,0,.2,0,.3,0,.4,0,0,0,.1,0,.1,0h0v5.7s.8-.7.8-.7c.5-.4.8-.7.8-.7,0,0,0-.1,0-.2,0-.2,0-.2-.3-.3h0v-.6h.1c.1,0,.6,0,1.5,0s.8,0,.9,0h0v.6h-.2c-.6,0-1,.2-1.4.5-.6.5-.9.8-.9.8s.3.4.8,1.1c.5.8.8,1.2.9,1.3.1.2.2.3.4.3.1,0,.3,0,.6,0h.1v.6h0c0,0-.4,0-1.1,0s-1.2,0-1.4,0h0v-.6h0c.2,0,.3,0,.3-.2s0-.1,0-.2c0,0-.2-.3-.6-.9s-.6-.8-.6-.8l-.6.6v1.1c0,.2,0,.3,0,.3,0,0,0,0,.1.1.2,0,.4,0,.6,0h.2v.6h0c-.1,0-.6,0-1.3,0s-1.2,0-1.3,0h0v-.6h.2Z"/>
        <path class="cls-2" d="M59.1,212h.2c.3,0,.5,0,.6-.2h0v-.8c0-.2,0-.3,0-.5,0-.2,0-.4,0-.6,0-.2,0-.4,0-.7,0-.2,0-.5,0-.7v-2.6c0-.2,0-.4,0-.5,0-.1,0-.2,0-.2,0-.2,0-.3-.2-.3,0,0-.3,0-.6-.1h-.2v-.3c0-.2,0-.3,0-.3h.1c0,0,.2,0,.4,0,.2,0,.3,0,.5,0,.1,0,.3,0,.5,0,.2,0,.3,0,.4,0,0,0,.1,0,.1,0h0v5.7s.8-.7.8-.7c.5-.4.8-.7.8-.7,0,0,0-.1,0-.2,0-.2,0-.2-.3-.3h0v-.6h.1c.1,0,.6,0,1.5,0s.8,0,.9,0h0v.6h-.2c-.6,0-1,.2-1.4.5-.6.5-.9.8-.9.8s.3.4.8,1.1c.5.8.8,1.2.9,1.3.1.2.2.3.4.3.1,0,.3,0,.6,0h.1v.6h0c0,0-.4,0-1.1,0s-1.2,0-1.4,0h0v-.6h0c.2,0,.3,0,.3-.2s0-.1,0-.2c0,0-.2-.3-.6-.9s-.6-.8-.6-.8l-.6.6v1.1c0,.2,0,.3,0,.3,0,0,0,0,.1.1.2,0,.4,0,.6,0h.2v.6h0c-.1,0-.6,0-1.3,0s-1.2,0-1.3,0h0v-.6h.2Z"/>
        <path d="M68.2,212.6c-.1,0-.5,0-1.3,0h-.5c-.2,0-.4,0-.6,0h-.3s0,0,0,0v-.6h.2c.2,0,.4,0,.6,0,0,0,.1,0,.1-.1,0,0,0-.2,0-.5v-2.4c0-.4,0-.7,0-.8s0-.2-.2-.2c-.1,0-.3,0-.6,0h-.1v-.3c0-.2,0-.3,0-.3h.1c0,0,.2,0,.3,0,.1,0,.3,0,.4,0,.1,0,.3,0,.4,0,.2,0,.3,0,.4,0,0,0,.1,0,.1,0h0v4.7c0,0,0,.1.1.1,0,0,.2,0,.4,0h.3v.6h0ZM66,205.1c0-.2,0-.4.2-.5.1-.1.3-.2.5-.2.2,0,.4,0,.5.2.1.1.2.3.2.5s0,.4-.2.6c-.1.1-.3.2-.5.2s-.4,0-.5-.2c-.1-.1-.2-.3-.2-.6Z"/>
        <path class="cls-2" d="M68.2,212.6c-.1,0-.5,0-1.3,0h-.5c-.2,0-.4,0-.6,0h-.3s0,0,0,0v-.6h.2c.2,0,.4,0,.6,0,0,0,.1,0,.1-.1,0,0,0-.2,0-.5v-2.4c0-.4,0-.7,0-.8s0-.2-.2-.2c-.1,0-.3,0-.6,0h-.1v-.3c0-.2,0-.3,0-.3h.1c0,0,.2,0,.3,0,.1,0,.3,0,.4,0,.1,0,.3,0,.4,0,.2,0,.3,0,.4,0,0,0,.1,0,.1,0h0v4.7c0,0,0,.1.1.1,0,0,.2,0,.4,0h.3v.6h0ZM66,205.1c0-.2,0-.4.2-.5.1-.1.3-.2.5-.2.2,0,.4,0,.5.2.1.1.2.3.2.5s0,.4-.2.6c-.1.1-.3.2-.5.2s-.4,0-.5-.2c-.1-.1-.2-.3-.2-.6Z"/>
        <path d="M69.1,212h.2c.3,0,.5,0,.6-.2h0v-.8c0-.1,0-.3,0-.5,0-.2,0-.4,0-.5v-.8c0-.3,0-.5,0-.7v-.3c0-.2,0-.3-.2-.3,0,0-.3,0-.6-.1h-.2v-.3c0-.2,0-.3,0-.3h.1c0,0,.2,0,.3,0,.1,0,.3,0,.5,0,.1,0,.3,0,.4,0,.2,0,.3,0,.4,0,0,0,.1,0,.1,0h0v.5c0,.3,0,.5,0,.5s0,0,0,0c0,0,0-.1.1-.2,0,0,.1-.2.2-.2,0,0,.2-.1.4-.2.1,0,.3-.2.5-.2.2,0,.4,0,.6,0,.9,0,1.5.5,1.6,1.4,0,0,0,.6,0,1.7v1.1c0,.3,0,.5,0,.6,0,0,0,0,.1.1.2,0,.4,0,.6,0h.2v.6h-.4c-.2,0-.4,0-.6,0s-.4,0-.5,0c-.8,0-1.3,0-1.4,0h0v-.6h.2c.5,0,.8,0,.8-.2,0,0,0-.6,0-1.7,0-1.1,0-1.7,0-1.8,0-.2-.1-.4-.2-.5-.1-.1-.2-.2-.3-.2,0,0-.2,0-.3,0-.4,0-.7.1-1,.4-.2.2-.4.4-.4.7,0,.2,0,.6,0,1v1.5c0,.2,0,.4,0,.5,0,0,0,.1,0,.2,0,0,0,0,.1,0,.2,0,.4,0,.6,0h.2v.6h-.4c-.2,0-.4,0-.6,0s-.4,0-.5,0c-.8,0-1.3,0-1.4,0h0v-.6h.2Z"/>
        <path class="cls-2" d="M69.1,212h.2c.3,0,.5,0,.6-.2h0v-.8c0-.1,0-.3,0-.5,0-.2,0-.4,0-.5v-.8c0-.3,0-.5,0-.7v-.3c0-.2,0-.3-.2-.3,0,0-.3,0-.6-.1h-.2v-.3c0-.2,0-.3,0-.3h.1c0,0,.2,0,.3,0,.1,0,.3,0,.5,0,.1,0,.3,0,.4,0,.2,0,.3,0,.4,0,0,0,.1,0,.1,0h0v.5c0,.3,0,.5,0,.5s0,0,0,0c0,0,0-.1.1-.2,0,0,.1-.2.2-.2,0,0,.2-.1.4-.2.1,0,.3-.2.5-.2.2,0,.4,0,.6,0,.9,0,1.5.5,1.6,1.4,0,0,0,.6,0,1.7v1.1c0,.3,0,.5,0,.6,0,0,0,0,.1.1.2,0,.4,0,.6,0h.2v.6h-.4c-.2,0-.4,0-.6,0s-.4,0-.5,0c-.8,0-1.3,0-1.4,0h0v-.6h.2c.5,0,.8,0,.8-.2,0,0,0-.6,0-1.7,0-1.1,0-1.7,0-1.8,0-.2-.1-.4-.2-.5-.1-.1-.2-.2-.3-.2,0,0-.2,0-.3,0-.4,0-.7.1-1,.4-.2.2-.4.4-.4.7,0,.2,0,.6,0,1v1.5c0,.2,0,.4,0,.5,0,0,0,.1,0,.2,0,0,0,0,.1,0,.2,0,.4,0,.6,0h.2v.6h-.4c-.2,0-.4,0-.6,0s-.4,0-.5,0c-.8,0-1.3,0-1.4,0h0v-.6h.2Z"/>
        <path d="M80.4,213.5c0-.2,0-.4-.2-.5-.1-.1-.3-.2-.5-.3-.2,0-.4,0-.6-.1-.2,0-.4,0-.7,0h-.3c-.5,0-.9,0-1,0-.2,0-.3.2-.4.3,0,.2-.1.3-.1.5,0,0,0,.2,0,.3,0,.1.1.2.3.4.1.1.3.3.6.3s.6.1,1,.1c.6,0,1-.1,1.4-.3.3-.2.5-.5.5-.8ZM79.1,208.4c0-.2-.1-.4-.3-.5-.2-.1-.4-.2-.6-.2-.2,0-.4,0-.6.2-.2.1-.3.3-.3.6,0,.1,0,.3,0,.6s0,.6,0,.8c0,.2.2.3.4.4.1,0,.3.1.5.1s.3,0,.5,0c.1,0,.2-.1.3-.2,0,0,.1-.2.1-.2,0,0,0-.1,0-.2,0-.1,0-.3,0-.6s0-.5,0-.6ZM79.5,207.6c.4-.4.8-.5,1.2-.5s.4,0,.5.2c.1.2.2.3.2.5s0,.2-.1.3c0,0-.2.1-.3.1-.3,0-.4-.1-.5-.4,0-.1,0-.2,0-.3,0,0,0,0,0,0h0c-.2,0-.4.1-.7.3,0,0,0,0,0,0s0,0,0,0c0,0,0,0,.1.1s0,.1.1.2c0,0,0,.2.1.3,0,.1,0,.3,0,.4,0,.5-.2.9-.6,1.3-.4.4-.9.5-1.5.5-.4,0-.8-.1-1.2-.3,0,.1-.1.3-.1.5,0,.3.1.5.3.6,0,0,.1,0,.2,0s.4,0,.9,0c.7,0,1.1,0,1.3,0,.5,0,.9.2,1.2.5.3.3.5.7.5,1.2s-.3,1-1,1.3c-.5.3-1.1.4-1.7.4s-1.3-.1-1.8-.4c-.6-.3-1-.7-1-1.2s0-.5.3-.7c.2-.2.3-.3.5-.4h.1c-.3-.3-.4-.7-.4-1.1s.1-.7.4-1c-.4-.4-.5-.8-.5-1.2s.2-1,.6-1.3c.4-.4.9-.5,1.5-.5.4,0,.8.1,1.2.3h.1Z"/>
        <path class="cls-2" d="M80.4,213.5c0-.2,0-.4-.2-.5-.1-.1-.3-.2-.5-.3-.2,0-.4,0-.6-.1-.2,0-.4,0-.7,0h-.3c-.5,0-.9,0-1,0-.2,0-.3.2-.4.3,0,.2-.1.3-.1.5,0,0,0,.2,0,.3,0,.1.1.2.3.4.1.1.3.3.6.3s.6.1,1,.1c.6,0,1-.1,1.4-.3.3-.2.5-.5.5-.8ZM79.1,208.4c0-.2-.1-.4-.3-.5-.2-.1-.4-.2-.6-.2-.2,0-.4,0-.6.2-.2.1-.3.3-.3.6,0,.1,0,.3,0,.6s0,.6,0,.8c0,.2.2.3.4.4.1,0,.3.1.5.1s.3,0,.5,0c.1,0,.2-.1.3-.2,0,0,.1-.2.1-.2,0,0,0-.1,0-.2,0-.1,0-.3,0-.6s0-.5,0-.6ZM79.5,207.6c.4-.4.8-.5,1.2-.5s.4,0,.5.2c.1.2.2.3.2.5s0,.2-.1.3c0,0-.2.1-.3.1-.3,0-.4-.1-.5-.4,0-.1,0-.2,0-.3,0,0,0,0,0,0h0c-.2,0-.4.1-.7.3,0,0,0,0,0,0s0,0,0,0c0,0,0,0,.1.1s0,.1.1.2c0,0,0,.2.1.3,0,.1,0,.3,0,.4,0,.5-.2.9-.6,1.3-.4.4-.9.5-1.5.5-.4,0-.8-.1-1.2-.3,0,.1-.1.3-.1.5,0,.3.1.5.3.6,0,0,.1,0,.2,0s.4,0,.9,0c.7,0,1.1,0,1.3,0,.5,0,.9.2,1.2.5.3.3.5.7.5,1.2s-.3,1-1,1.3c-.5.3-1.1.4-1.7.4s-1.3-.1-1.8-.4c-.6-.3-1-.7-1-1.2s0-.5.3-.7c.2-.2.3-.3.5-.4h.1c-.3-.3-.4-.7-.4-1.1s.1-.7.4-1c-.4-.4-.5-.8-.5-1.2s.2-1,.6-1.3c.4-.4.9-.5,1.5-.5.4,0,.8.1,1.2.3h.1Z"/>
      </g>
      <g class="cls-14">
        <path class="cls-12" d="M186.6,289.4c-1.2,0-2.3.2-3.5.8.4-.8.6-1.8.6-2.7,0-4.3-3.5-7.8-7.8-7.8s-3.1.6-4.5,1.4c-1.9-7.4-8.8-13-16.9-13s-17.5,7.8-17.5,17.5,0,1.6.2,2.1c-.8-.2-1.4-.2-2.1-.2-5.4,0-9.7,4.3-9.7,9.7s4.3,9.7,9.7,9.7h51.6c4.9,0,8.8-3.9,8.8-8.8s-3.9-8.8-8.8-8.8h0Z"/>
      </g>
      <g class="cls-15">
        <polyline class="cls-6" points="202.9 297.6 254 297.6 254 264"/>
        <polygon points="196.7 297.6 202.9 295.6 202.9 299.6 196.7 297.6"/>
        <polygon class="cls-6" points="196.7 297.6 202.9 295.6 202.9 299.6 196.7 297.6"/>
        <path d="M297.5,224.6c-.2,0-.3,0-.3-.1s0-.4.3-.9c.2-.6.4-1.1.6-1.7l.3-.8c0-.2.1-.3.2-.4h9.2c.4,0,.6,0,.6,0,0,0,.1,0,.1.1,0,0,0,.7-.3,1.9-.2,1.2-.3,1.8-.3,1.8,0,0-.1.1-.3.1h-.2s0,0,0,0h0c0-.1,0-.4,0-.8,0-.4,0-.8,0-1,0-.4,0-.7-.2-.9-.1-.2-.4-.3-.9-.4,0,0-.4,0-1,0-.5,0-.8,0-1,0-.1,0-.2,0-.3.1,0,0-.4,1.5-1.2,4.6-.8,3-1.1,4.6-1.1,4.6,0,.1.5.2,1.4.2.4,0,.6,0,.7,0s.1,0,.1.1,0,.1,0,.2c0,.2,0,.3-.1.3h0s0,0-.1,0-.3,0-.9,0c-.5,0-1.3,0-2.2,0-1.4,0-2.3,0-2.7,0h-.2c0,0,0-.1,0-.1s0-.1,0-.3c0-.1,0-.2.2-.3h.6c.9,0,1.4,0,1.6-.1,0,0,0,0,0,0,0,0,.1-.1.2-.3,0-.2.3-1,.7-2.6.2-.7.3-1.4.5-1.8.8-3,1.1-4.5,1.1-4.6s-.2,0-.5,0h-.5c-.7,0-1.2,0-1.4,0-.5.1-.9.3-1.1.7-.3.3-.6,1-.9,1.9,0,.2-.1.4-.2.4,0,0-.1,0-.2,0h0Z"/>
        <path class="cls-8" d="M297.5,224.6c-.2,0-.3,0-.3-.1s0-.4.3-.9c.2-.6.4-1.1.6-1.7l.3-.8c0-.2.1-.3.2-.4h9.2c.4,0,.6,0,.6,0,0,0,.1,0,.1.1,0,0,0,.7-.3,1.9-.2,1.2-.3,1.8-.3,1.8,0,0-.1.1-.3.1h-.2s0,0,0,0h0c0-.1,0-.4,0-.8,0-.4,0-.8,0-1,0-.4,0-.7-.2-.9-.1-.2-.4-.3-.9-.4,0,0-.4,0-1,0-.5,0-.8,0-1,0-.1,0-.2,0-.3.1,0,0-.4,1.5-1.2,4.6-.8,3-1.1,4.6-1.1,4.6,0,.1.5.2,1.4.2.4,0,.6,0,.7,0s.1,0,.1.1,0,.1,0,.2c0,.2,0,.3-.1.3h0s0,0-.1,0-.3,0-.9,0c-.5,0-1.3,0-2.2,0-1.4,0-2.3,0-2.7,0h-.2c0,0,0-.1,0-.1s0-.1,0-.3c0-.1,0-.2.2-.3h.6c.9,0,1.4,0,1.6-.1,0,0,0,0,0,0,0,0,.1-.1.2-.3,0-.2.3-1,.7-2.6.2-.7.3-1.4.5-1.8.8-3,1.1-4.5,1.1-4.6s-.2,0-.5,0h-.5c-.7,0-1.2,0-1.4,0-.5.1-.9.3-1.1.7-.3.3-.6,1-.9,1.9,0,.2-.1.4-.2.4,0,0-.1,0-.2,0h0Z"/>
        <rect class="cls-19" x="194" y="248.3" width="120" height="15.8"/>
        <rect class="cls-7" x="194" y="248.3" width="120" height="15.8"/>
        <path d="M212.4,254.3s0-.5.1-1.4.1-1.4.1-1.4h0c0,0,7.5,0,7.5,0h0c0,.1,0,.6.1,1.5,0,.9.1,1.4.1,1.4h0c0,0-.5,0-.5,0h0c0,0,0-.2,0-.5,0-.3,0-.5-.1-.8,0-.3-.2-.5-.3-.6-.1-.2-.4-.3-.7-.4-.2,0-.5,0-.9,0h-.4c-.2,0-.3,0-.4.1,0,0,0,1.2,0,3.4v3.4c0,0,.2.1.3.2.2,0,.5,0,1.1,0h.4v.6h-2.4c-1.4,0-2.2,0-2.3,0h-.2v-.6h.4c.6,0,.9,0,1.1,0,.2,0,.3,0,.3-.2v-6c0-.6,0-.9,0-.9,0,0-.2,0-.4,0h-.6c-.6,0-1,.1-1.3.4-.1.1-.3.3-.3.6,0,.3-.1.5-.1.8,0,.3,0,.5,0,.5h0c0,0-.5,0-.5,0h0Z"/>
        <path class="cls-10" d="M212.4,254.3s0-.5.1-1.4.1-1.4.1-1.4h0c0,0,7.5,0,7.5,0h0c0,.1,0,.6.1,1.5,0,.9.1,1.4.1,1.4h0c0,0-.5,0-.5,0h0c0,0,0-.2,0-.5,0-.3,0-.5-.1-.8,0-.3-.2-.5-.3-.6-.1-.2-.4-.3-.7-.4-.2,0-.5,0-.9,0h-.4c-.2,0-.3,0-.4.1,0,0,0,1.2,0,3.4v3.4c0,0,.2.1.3.2.2,0,.5,0,1.1,0h.4v.6h-2.4c-1.4,0-2.2,0-2.3,0h-.2v-.6h.4c.6,0,.9,0,1.1,0,.2,0,.3,0,.3-.2v-6c0-.6,0-.9,0-.9,0,0-.2,0-.4,0h-.6c-.6,0-1,.1-1.3.4-.1.1-.3.3-.3.6,0,.3-.1.5-.1.8,0,.3,0,.5,0,.5h0c0,0-.5,0-.5,0h0Z"/>
        <path d="M224.9,256.4c0-1.1-.5-1.6-1.2-1.7h0c0,0-.1,0-.2,0,0,0-.2,0-.3,0-.1,0-.3.1-.4.3,0,.1-.2.3-.3.5,0,.2-.2.5-.2.8h0c0,0,2.5,0,2.5,0h0ZM221.2,257.1c0-.5,0-.9.2-1.2.2-.4.4-.7.6-.9.2-.2.5-.4.8-.5.3-.1.6-.2.8-.2.4,0,.8,0,1.1.2.3.1.6.4.7.6.2.3.3.5.3.8,0,.3.1.6.1.9,0,0,0,.1,0,.2h-3.5v.2c0,1.2.4,2,1.2,2.2.2,0,.3,0,.5,0,.3,0,.6-.1.9-.4.1-.1.3-.3.3-.5v-.3c.1,0,.2,0,.3,0h0c.1,0,.2,0,.2.1s0,0,0,.2c-.2.5-.4.8-.8,1.1-.4.3-.8.4-1.2.4-.8,0-1.4-.3-1.9-.9s-.8-1.2-.8-2Z"/>
        <path class="cls-10" d="M224.9,256.4c0-1.1-.5-1.6-1.2-1.7h0c0,0-.1,0-.2,0,0,0-.2,0-.3,0-.1,0-.3.1-.4.3,0,.1-.2.3-.3.5,0,.2-.2.5-.2.8h0c0,0,2.5,0,2.5,0h0ZM221.2,257.1c0-.5,0-.9.2-1.2.2-.4.4-.7.6-.9.2-.2.5-.4.8-.5.3-.1.6-.2.8-.2.4,0,.8,0,1.1.2.3.1.6.4.7.6.2.3.3.5.3.8,0,.3.1.6.1.9,0,0,0,.1,0,.2h-3.5v.2c0,1.2.4,2,1.2,2.2.2,0,.3,0,.5,0,.3,0,.6-.1.9-.4.1-.1.3-.3.3-.5v-.3c.1,0,.2,0,.3,0h0c.1,0,.2,0,.2.1s0,0,0,.2c-.2.5-.4.8-.8,1.1-.4.3-.8.4-1.2.4-.8,0-1.4-.3-1.9-.9s-.8-1.2-.8-2Z"/>
        <path d="M226.8,259.2h.2c.3,0,.5,0,.6-.2h0v-.8c0-.1,0-.3,0-.5,0-.2,0-.4,0-.5v-.8c0-.3,0-.5,0-.7v-.3c0-.2,0-.3-.2-.3,0,0-.3,0-.6-.1h-.2v-.3c0-.2,0-.3,0-.3h.1c0,0,.2,0,.3,0,.1,0,.3,0,.5,0,.1,0,.3,0,.4,0,.2,0,.3,0,.4,0,0,0,.1,0,.1,0h0v.5c0,.3,0,.5,0,.5s0,0,0,0c0,0,0-.1.1-.2,0,0,.1-.2.2-.2,0,0,.2-.1.4-.2.1,0,.3-.2.5-.2.2,0,.4,0,.6,0s.2,0,.3,0c.1,0,.2,0,.3,0,0,0,.2,0,.2,0s.1,0,.2.1c0,0,0,0,.1.1,0,0,0,0,.1.1,0,0,0,0,0,.1,0,0,0,0,0,.1s0,0,0,0h0c0,0,0,0,0,0,0,0,0,0,0,0s0,0,.1-.1c0,0,.1-.1.2-.2,0,0,.1-.1.2-.2,0,0,.1-.1.2-.1,0,0,.2,0,.3-.1,0,0,.2,0,.3,0s.3,0,.4,0c1,0,1.6.5,1.7,1.4,0,0,0,.6,0,1.7v1.1c0,.3,0,.5,0,.6,0,0,0,0,.1.1.2,0,.4,0,.6,0h.2v.6h-.4c-.2,0-.4,0-.6,0s-.4,0-.5,0c-.8,0-1.3,0-1.4,0h0v-.6h.2c.5,0,.8,0,.8-.2,0,0,0-.6,0-1.7,0-1.1,0-1.7,0-1.8,0-.2-.1-.4-.2-.5s-.2-.2-.3-.2c0,0-.2,0-.3,0-.4,0-.7.1-1,.4-.2.2-.4.4-.4.7,0,.2,0,.6,0,1v1.5c0,.2,0,.4,0,.5,0,0,0,.1,0,.2,0,0,0,0,.1,0,.2,0,.4,0,.6,0h.2v.6h-.4c-.2,0-.4,0-.6,0s-.4,0-.5,0c-.8,0-1.3,0-1.4,0h0v-.6h.2c.5,0,.8,0,.8-.2,0,0,0-.6,0-1.7,0-1.1,0-1.7,0-1.8,0-.2-.1-.4-.2-.5-.1-.1-.2-.2-.3-.2,0,0-.2,0-.3,0-.4,0-.7.1-1,.4-.2.2-.4.4-.4.7,0,.2,0,.6,0,1v1.5c0,.2,0,.4,0,.5s0,.1,0,.2c0,0,0,0,.1,0,.2,0,.4,0,.6,0h.2v.6h-.4c-.2,0-.4,0-.6,0s-.4,0-.5,0c-.8,0-1.3,0-1.4,0h0v-.6h.2Z"/>
        <path class="cls-10" d="M226.8,259.2h.2c.3,0,.5,0,.6-.2h0v-.8c0-.1,0-.3,0-.5,0-.2,0-.4,0-.5v-.8c0-.3,0-.5,0-.7v-.3c0-.2,0-.3-.2-.3,0,0-.3,0-.6-.1h-.2v-.3c0-.2,0-.3,0-.3h.1c0,0,.2,0,.3,0,.1,0,.3,0,.5,0,.1,0,.3,0,.4,0,.2,0,.3,0,.4,0,0,0,.1,0,.1,0h0v.5c0,.3,0,.5,0,.5s0,0,0,0c0,0,0-.1.1-.2,0,0,.1-.2.2-.2,0,0,.2-.1.4-.2.1,0,.3-.2.5-.2.2,0,.4,0,.6,0s.2,0,.3,0c.1,0,.2,0,.3,0,0,0,.2,0,.2,0s.1,0,.2.1c0,0,0,0,.1.1,0,0,0,0,.1.1,0,0,0,0,0,.1,0,0,0,0,0,.1s0,0,0,0h0c0,0,0,0,0,0,0,0,0,0,0,0s0,0,.1-.1c0,0,.1-.1.2-.2,0,0,.1-.1.2-.2,0,0,.1-.1.2-.1,0,0,.2,0,.3-.1,0,0,.2,0,.3,0s.3,0,.4,0c1,0,1.6.5,1.7,1.4,0,0,0,.6,0,1.7v1.1c0,.3,0,.5,0,.6,0,0,0,0,.1.1.2,0,.4,0,.6,0h.2v.6h-.4c-.2,0-.4,0-.6,0s-.4,0-.5,0c-.8,0-1.3,0-1.4,0h0v-.6h.2c.5,0,.8,0,.8-.2,0,0,0-.6,0-1.7,0-1.1,0-1.7,0-1.8,0-.2-.1-.4-.2-.5s-.2-.2-.3-.2c0,0-.2,0-.3,0-.4,0-.7.1-1,.4-.2.2-.4.4-.4.7,0,.2,0,.6,0,1v1.5c0,.2,0,.4,0,.5,0,0,0,.1,0,.2,0,0,0,0,.1,0,.2,0,.4,0,.6,0h.2v.6h-.4c-.2,0-.4,0-.6,0s-.4,0-.5,0c-.8,0-1.3,0-1.4,0h0v-.6h.2c.5,0,.8,0,.8-.2,0,0,0-.6,0-1.7,0-1.1,0-1.7,0-1.8,0-.2-.1-.4-.2-.5-.1-.1-.2-.2-.3-.2,0,0-.2,0-.3,0-.4,0-.7.1-1,.4-.2.2-.4.4-.4.7,0,.2,0,.6,0,1v1.5c0,.2,0,.4,0,.5s0,.1,0,.2c0,0,0,0,.1,0,.2,0,.4,0,.6,0h.2v.6h-.4c-.2,0-.4,0-.6,0s-.4,0-.5,0c-.8,0-1.3,0-1.4,0h0v-.6h.2Z"/>
        <path d="M241.8,257.1c0-.6-.1-1.1-.4-1.6-.3-.5-.6-.7-1-.7s-1.1.3-1.5.8v2.9c.3.6.8.9,1.4.9s.8-.2,1.1-.7c.3-.4.5-1,.5-1.7ZM237,261.6h.2c.3,0,.5,0,.6-.2h0v-.7c0-.1,0-.3,0-.5,0-.2,0-.4,0-.5,0-.2,0-.4,0-.6,0-.2,0-.4,0-.6v-2.3c0-.2,0-.4,0-.5,0-.1,0-.2,0-.2,0-.2,0-.3-.2-.3,0,0-.3,0-.6-.1h-.2v-.3c0-.2,0-.3,0-.3h.1c0,0,.2,0,.4,0,.2,0,.3,0,.5,0,.1,0,.3,0,.5,0,.2,0,.3,0,.4,0,0,0,.1,0,.1,0h0v.6s.1,0,.1,0c.5-.4,1.1-.5,1.7-.5s1.2.3,1.7.8.7,1.2.7,2c0,.8-.3,1.5-.8,2-.5.5-1.1.8-1.8.8s-1.1-.2-1.5-.5h0c0,0,0,1,0,1v.7c0,.2,0,.4,0,.4s0,0,.1.1c.2,0,.4,0,.6,0h.2v.6h-.4c-.2,0-.4,0-.6,0s-.4,0-.5,0c-.8,0-1.3,0-1.4,0h0v-.6h.2Z"/>
        <path class="cls-10" d="M241.8,257.1c0-.6-.1-1.1-.4-1.6-.3-.5-.6-.7-1-.7s-1.1.3-1.5.8v2.9c.3.6.8.9,1.4.9s.8-.2,1.1-.7c.3-.4.5-1,.5-1.7ZM237,261.6h.2c.3,0,.5,0,.6-.2h0v-.7c0-.1,0-.3,0-.5,0-.2,0-.4,0-.5,0-.2,0-.4,0-.6,0-.2,0-.4,0-.6v-2.3c0-.2,0-.4,0-.5,0-.1,0-.2,0-.2,0-.2,0-.3-.2-.3,0,0-.3,0-.6-.1h-.2v-.3c0-.2,0-.3,0-.3h.1c0,0,.2,0,.4,0,.2,0,.3,0,.5,0,.1,0,.3,0,.5,0,.2,0,.3,0,.4,0,0,0,.1,0,.1,0h0v.6s.1,0,.1,0c.5-.4,1.1-.5,1.7-.5s1.2.3,1.7.8.7,1.2.7,2c0,.8-.3,1.5-.8,2-.5.5-1.1.8-1.8.8s-1.1-.2-1.5-.5h0c0,0,0,1,0,1v.7c0,.2,0,.4,0,.4s0,0,.1.1c.2,0,.4,0,.6,0h.2v.6h-.4c-.2,0-.4,0-.6,0s-.4,0-.5,0c-.8,0-1.3,0-1.4,0h0v-.6h.2Z"/>
        <path d="M244.4,259c0-.2,0-.4.2-.5.1-.1.3-.2.5-.2s.4,0,.5.2c.1.1.2.3.2.5,0,.2,0,.4-.2.5s-.3.2-.5.2-.4,0-.5-.2c-.1-.1-.2-.3-.2-.5Z"/>
        <path class="cls-10" d="M244.4,259c0-.2,0-.4.2-.5.1-.1.3-.2.5-.2s.4,0,.5.2c.1.1.2.3.2.5,0,.2,0,.4-.2.5s-.3.2-.5.2-.4,0-.5-.2c-.1-.1-.2-.3-.2-.5Z"/>
        <path d="M251.6,252.1c0,0-.1,0-.1-.1s0,0-.2,0c0,0-.3,0-.5,0h-.4v-.6h1.3c.7,0,1.1,0,1.2,0,0,0,.2,0,.2,0,0,0,.4,1.1,1.3,3.4l1.3,3.4,1.3-3.4c.9-2.3,1.3-3.4,1.3-3.4,0,0,0,0,.2,0,0,0,.5,0,1.2,0h1.3v.6h-.4c-.3,0-.5,0-.6,0,0,0-.2,0-.2.1v6.9c0,0,.1.1.2.1,0,0,.3,0,.6,0h.4v.6h-.1c-.2,0-.7,0-1.7,0s-1.7,0-1.7,0h-.1v-.6h.4c.3,0,.6,0,.6,0,0,0,.2,0,.2-.1v-7c-1.9,5.1-2.9,7.6-2.9,7.7,0,0-.1,0-.2,0s-.2,0-.2,0c0,0-.5-1.3-1.5-3.8l-1.4-3.8v.2c0,.1,0,.4,0,.8v5.6c.1.3.5.5,1.1.5h.2v.6h-.1c-.1,0-.6,0-1.4,0s-1.3,0-1.4,0h0v-.6h.2c.3,0,.5,0,.6-.1.2,0,.3-.1.3-.2,0,0,0-.1.1-.2v-6.6Z"/>
        <path class="cls-10" d="M251.6,252.1c0,0-.1,0-.1-.1s0,0-.2,0c0,0-.3,0-.5,0h-.4v-.6h1.3c.7,0,1.1,0,1.2,0,0,0,.2,0,.2,0,0,0,.4,1.1,1.3,3.4l1.3,3.4,1.3-3.4c.9-2.3,1.3-3.4,1.3-3.4,0,0,0,0,.2,0,0,0,.5,0,1.2,0h1.3v.6h-.4c-.3,0-.5,0-.6,0,0,0-.2,0-.2.1v6.9c0,0,.1.1.2.1,0,0,.3,0,.6,0h.4v.6h-.1c-.2,0-.7,0-1.7,0s-1.7,0-1.7,0h-.1v-.6h.4c.3,0,.6,0,.6,0,0,0,.2,0,.2-.1v-7c-1.9,5.1-2.9,7.6-2.9,7.7,0,0-.1,0-.2,0s-.2,0-.2,0c0,0-.5-1.3-1.5-3.8l-1.4-3.8v.2c0,.1,0,.4,0,.8v5.6c.1.3.5.5,1.1.5h.2v.6h-.1c-.1,0-.6,0-1.4,0s-1.3,0-1.4,0h0v-.6h.2c.3,0,.5,0,.6-.1.2,0,.3-.1.3-.2,0,0,0-.1.1-.2v-6.6Z"/>
        <path d="M265.3,256.4c0-1.1-.5-1.6-1.2-1.7h0c0,0-.1,0-.2,0,0,0-.2,0-.3,0-.1,0-.3.1-.4.3,0,.1-.2.3-.3.5,0,.2-.2.5-.2.8h0c0,0,2.5,0,2.5,0h0ZM261.6,257.1c0-.5,0-.9.2-1.2.2-.4.4-.7.6-.9.2-.2.5-.4.8-.5s.6-.2.8-.2c.4,0,.8,0,1.1.2.3.1.6.4.7.6.2.3.3.5.3.8,0,.3.1.6.1.9,0,0,0,.1,0,.2h-3.5v.2c0,1.2.4,2,1.2,2.2.2,0,.3,0,.5,0,.3,0,.6-.1.9-.4.1-.1.3-.3.3-.5v-.3c.1,0,.2,0,.3,0h0c.1,0,.2,0,.2.1s0,0,0,.2c-.2.5-.4.8-.8,1.1-.4.3-.8.4-1.2.4-.8,0-1.4-.3-1.9-.9s-.8-1.2-.8-2Z"/>
        <path class="cls-10" d="M265.3,256.4c0-1.1-.5-1.6-1.2-1.7h0c0,0-.1,0-.2,0,0,0-.2,0-.3,0-.1,0-.3.1-.4.3,0,.1-.2.3-.3.5,0,.2-.2.5-.2.8h0c0,0,2.5,0,2.5,0h0ZM261.6,257.1c0-.5,0-.9.2-1.2.2-.4.4-.7.6-.9.2-.2.5-.4.8-.5s.6-.2.8-.2c.4,0,.8,0,1.1.2.3.1.6.4.7.6.2.3.3.5.3.8,0,.3.1.6.1.9,0,0,0,.1,0,.2h-3.5v.2c0,1.2.4,2,1.2,2.2.2,0,.3,0,.5,0,.3,0,.6-.1.9-.4.1-.1.3-.3.3-.5v-.3c.1,0,.2,0,.3,0h0c.1,0,.2,0,.2.1s0,0,0,.2c-.2.5-.4.8-.8,1.1-.4.3-.8.4-1.2.4-.8,0-1.4-.3-1.9-.9s-.8-1.2-.8-2Z"/>
        <path d="M268.3,258.5c0,.3,0,.5.3.7.2.2.4.3.7.3.3,0,.6,0,.8-.3.2-.2.4-.4.5-.7,0,0,0-.3,0-.8,0-.5,0-.7,0-.7,0,0-.2,0-.3,0-.1,0-.3,0-.6.1-.3,0-.5.1-.7.2-.2,0-.4.3-.6.5s-.3.5-.3.7ZM268.4,256h-.3c-.2,0-.3,0-.5-.2-.1-.1-.2-.3-.2-.5,0-.3.1-.5.4-.8.3-.2.8-.3,1.5-.3s1.1.1,1.5.4c.4.3.6.6.7.9,0,.1,0,.2,0,.4s0,.6,0,1.4v.9c0,.4,0,.7,0,.8,0,.1.1.2.3.2s.2,0,.2-.2c0-.1,0-.3,0-.7v-.4h.5v.5c0,.3,0,.5,0,.6,0,.2-.2.4-.4.6-.2.1-.4.2-.7.2s-.4,0-.6-.2c-.1-.2-.2-.3-.3-.5h0s0,0,0,0c0,0,0,0,0,0,0,0,0,0,0,.1,0,0,0,0-.1.1,0,0-.1,0-.2.1,0,0-.1.1-.2.1,0,0-.2,0-.3,0,0,0-.2,0-.3,0-.1,0-.2,0-.4,0-.5,0-.9-.1-1.3-.4-.4-.3-.6-.6-.6-1.1s0-.3,0-.5c0-.2.2-.3.3-.5.2-.2.4-.3.6-.5.2-.1.6-.2,1-.3s.9-.2,1.4-.2h.2v-.3c0-.3,0-.5,0-.6-.2-.6-.6-.9-1.2-.9s-.3,0-.4,0c-.1,0-.2,0-.3,0,0,0-.1,0,0,0,.2.1.3.3.3.5s0,.4-.2.5l-.2.2Z"/>
        <path class="cls-10" d="M268.3,258.5c0,.3,0,.5.3.7.2.2.4.3.7.3.3,0,.6,0,.8-.3.2-.2.4-.4.5-.7,0,0,0-.3,0-.8,0-.5,0-.7,0-.7,0,0-.2,0-.3,0-.1,0-.3,0-.6.1-.3,0-.5.1-.7.2-.2,0-.4.3-.6.5s-.3.5-.3.7ZM268.4,256h-.3c-.2,0-.3,0-.5-.2-.1-.1-.2-.3-.2-.5,0-.3.1-.5.4-.8.3-.2.8-.3,1.5-.3s1.1.1,1.5.4c.4.3.6.6.7.9,0,.1,0,.2,0,.4s0,.6,0,1.4v.9c0,.4,0,.7,0,.8,0,.1.1.2.3.2s.2,0,.2-.2c0-.1,0-.3,0-.7v-.4h.5v.5c0,.3,0,.5,0,.6,0,.2-.2.4-.4.6-.2.1-.4.2-.7.2s-.4,0-.6-.2c-.1-.2-.2-.3-.3-.5h0s0,0,0,0c0,0,0,0,0,0,0,0,0,0,0,.1,0,0,0,0-.1.1,0,0-.1,0-.2.1,0,0-.1.1-.2.1,0,0-.2,0-.3,0,0,0-.2,0-.3,0-.1,0-.2,0-.4,0-.5,0-.9-.1-1.3-.4-.4-.3-.6-.6-.6-1.1s0-.3,0-.5c0-.2.2-.3.3-.5.2-.2.4-.3.6-.5.2-.1.6-.2,1-.3s.9-.2,1.4-.2h.2v-.3c0-.3,0-.5,0-.6-.2-.6-.6-.9-1.2-.9s-.3,0-.4,0c-.1,0-.2,0-.3,0,0,0-.1,0,0,0,.2.1.3.3.3.5s0,.4-.2.5l-.2.2Z"/>
        <path d="M276.5,255.9c0-.3-.1-.6-.3-.9-.2-.2-.5-.4-1-.4s-.6,0-.8.2c-.2.2-.4.4-.4.6,0,0,0,0,0,.2,0,0,0,.2.2.3.1.1.3.2.5.3.1,0,.3,0,.5.1.2,0,.4,0,.5.1s.3,0,.4.2c.1,0,.3.1.4.2s.3.3.4.5c.1.2.2.5.2.8,0,.5-.2.9-.5,1.3-.3.3-.8.5-1.5.5h0c-.4,0-.8-.1-1.2-.4h0c0,0-.1.2-.1.2,0,0,0,0-.1.1h-.1c0,.1,0,.1,0,.1h0s0,0-.1,0v-1.7c0-.2,0-.3,0-.3,0,0,0,0,.1,0h.1c0,0,.2,0,.2,0,0,0,0,0,0,.1,0,0,0,.2,0,.3s.1.3.2.5c.3.4.7.6,1.2.6.8,0,1.2-.3,1.2-1s0-.4-.2-.6c-.2-.2-.5-.3-1-.4-.5,0-.9-.2-1-.3-.3-.1-.5-.3-.7-.6s-.3-.5-.3-.8,0-.6.2-.8c.1-.2.3-.4.5-.5s.4-.2.6-.2.4,0,.5,0h.1c.3,0,.6,0,.9.2h.2c0,0,.1,0,.1,0,0,0,.2-.1.3-.2h.1s0,0,.1,0v1.6h0c0,0-.3,0-.3,0,0,0,0,0,0-.1Z"/>
        <path class="cls-10" d="M276.5,255.9c0-.3-.1-.6-.3-.9-.2-.2-.5-.4-1-.4s-.6,0-.8.2c-.2.2-.4.4-.4.6,0,0,0,0,0,.2,0,0,0,.2.2.3.1.1.3.2.5.3.1,0,.3,0,.5.1.2,0,.4,0,.5.1s.3,0,.4.2c.1,0,.3.1.4.2s.3.3.4.5c.1.2.2.5.2.8,0,.5-.2.9-.5,1.3-.3.3-.8.5-1.5.5h0c-.4,0-.8-.1-1.2-.4h0c0,0-.1.2-.1.2,0,0,0,0-.1.1h-.1c0,.1,0,.1,0,.1h0s0,0-.1,0v-1.7c0-.2,0-.3,0-.3,0,0,0,0,.1,0h.1c0,0,.2,0,.2,0,0,0,0,0,0,.1,0,0,0,.2,0,.3s.1.3.2.5c.3.4.7.6,1.2.6.8,0,1.2-.3,1.2-1s0-.4-.2-.6c-.2-.2-.5-.3-1-.4-.5,0-.9-.2-1-.3-.3-.1-.5-.3-.7-.6s-.3-.5-.3-.8,0-.6.2-.8c.1-.2.3-.4.5-.5s.4-.2.6-.2.4,0,.5,0h.1c.3,0,.6,0,.9.2h.2c0,0,.1,0,.1,0,0,0,.2-.1.3-.2h.1s0,0,.1,0v1.6h0c0,0-.3,0-.3,0,0,0,0,0,0-.1Z"/>
        <path d="M282.5,259c-.5.6-1,.8-1.6.8h0c-1,0-1.6-.4-1.8-1.2,0,0,0-.6,0-1.7,0-.9,0-1.4,0-1.5s0-.2,0-.3c0-.1-.3-.2-.7-.2h-.1v-.3c0-.2,0-.3,0-.3h.1c0,0,.2,0,.4,0,.2,0,.3,0,.5,0,.1,0,.3,0,.5,0,.2,0,.3,0,.4,0,0,0,.1,0,.1,0h0v2.2c0,1.5,0,2.3,0,2.4,0,.1,0,.2.2.3.2.1.4.2.7.2s.4,0,.6-.1c.2,0,.3-.2.4-.3,0-.1.2-.2.2-.4,0-.1.1-.3.1-.4,0,0,0-.2,0-.3v-.2c0-.1,0-.3,0-.5,0-.2,0-.4,0-.6v-.8c0-.4,0-.6-.1-.7,0,0-.3-.1-.6-.2h-.2v-.6s.3,0,.9,0c.6,0,.9,0,1,0h0v2.2c0,1.5,0,2.2,0,2.3,0,.2,0,.3.2.3,0,0,.3,0,.6.1h.2v.6s-.3,0-.9,0c-.6,0-.9,0-.9,0h0v-.9Z"/>
        <path class="cls-10" d="M282.5,259c-.5.6-1,.8-1.6.8h0c-1,0-1.6-.4-1.8-1.2,0,0,0-.6,0-1.7,0-.9,0-1.4,0-1.5s0-.2,0-.3c0-.1-.3-.2-.7-.2h-.1v-.3c0-.2,0-.3,0-.3h.1c0,0,.2,0,.4,0,.2,0,.3,0,.5,0,.1,0,.3,0,.5,0,.2,0,.3,0,.4,0,0,0,.1,0,.1,0h0v2.2c0,1.5,0,2.3,0,2.4,0,.1,0,.2.2.3.2.1.4.2.7.2s.4,0,.6-.1c.2,0,.3-.2.4-.3,0-.1.2-.2.2-.4,0-.1.1-.3.1-.4,0,0,0-.2,0-.3v-.2c0-.1,0-.3,0-.5,0-.2,0-.4,0-.6v-.8c0-.4,0-.6-.1-.7,0,0-.3-.1-.6-.2h-.2v-.6s.3,0,.9,0c.6,0,.9,0,1,0h0v2.2c0,1.5,0,2.2,0,2.3,0,.2,0,.3.2.3,0,0,.3,0,.6.1h.2v.6s-.3,0-.9,0c-.6,0-.9,0-.9,0h0v-.9Z"/>
        <path d="M285,259.2h.2c.3,0,.5,0,.6-.2h0v-.4c0-.1,0-.2,0-.4,0-.1,0-.3,0-.5,0-.2,0-.4,0-.5v-1.8c0-.2,0-.3-.2-.3,0,0-.3,0-.6-.1h-.2v-.3c0-.2,0-.3,0-.3h.1c0,0,.2,0,.3,0s.3,0,.4,0c.1,0,.3,0,.4,0,.2,0,.3,0,.4,0,0,0,.1,0,.1,0h0v.9c.3-.6.7-.8,1.2-.8h0c.4,0,.6,0,.8.3.2.2.3.4.3.6s0,.3-.2.4c-.1.1-.3.2-.5.2s-.4,0-.5-.2c0-.1-.2-.3-.2-.4,0,0,0-.1,0-.2,0,0,0-.1,0-.1,0,0,0,0,0,0,0,0-.1,0-.3,0-.1,0-.2.1-.3.2-.4.4-.6,1.1-.6,2.2v1.3c0,0,0,.2,0,.2s0,.1,0,.2h0c0,0,0,0,0,.1s0,0,0,0c0,0,0,0,0,0,0,0,0,0,0,0s0,0,0,0c0,0,0,0,.1,0h.1s0,0,.1,0c0,0,.1,0,.1,0h.4v.6h-.1c-.1,0-.7,0-1.6,0s-1.3,0-1.4,0h0v-.6h.2Z"/>
        <path class="cls-10" d="M285,259.2h.2c.3,0,.5,0,.6-.2h0v-.4c0-.1,0-.2,0-.4,0-.1,0-.3,0-.5,0-.2,0-.4,0-.5v-1.8c0-.2,0-.3-.2-.3,0,0-.3,0-.6-.1h-.2v-.3c0-.2,0-.3,0-.3h.1c0,0,.2,0,.3,0s.3,0,.4,0c.1,0,.3,0,.4,0,.2,0,.3,0,.4,0,0,0,.1,0,.1,0h0v.9c.3-.6.7-.8,1.2-.8h0c.4,0,.6,0,.8.3.2.2.3.4.3.6s0,.3-.2.4c-.1.1-.3.2-.5.2s-.4,0-.5-.2c0-.1-.2-.3-.2-.4,0,0,0-.1,0-.2,0,0,0-.1,0-.1,0,0,0,0,0,0,0,0-.1,0-.3,0-.1,0-.2.1-.3.2-.4.4-.6,1.1-.6,2.2v1.3c0,0,0,.2,0,.2s0,.1,0,.2h0c0,0,0,0,0,.1s0,0,0,0c0,0,0,0,0,0,0,0,0,0,0,0s0,0,0,0c0,0,0,0,.1,0h.1s0,0,.1,0c0,0,.1,0,.1,0h.4v.6h-.1c-.1,0-.7,0-1.6,0s-1.3,0-1.4,0h0v-.6h.2Z"/>
        <path d="M293.5,256.4c0-1.1-.5-1.6-1.2-1.7h0c0,0-.1,0-.2,0,0,0-.2,0-.3,0-.1,0-.3.1-.4.3,0,.1-.2.3-.3.5,0,.2-.2.5-.2.8h0c0,0,2.5,0,2.5,0h0ZM289.8,257.1c0-.5,0-.9.2-1.2.2-.4.4-.7.6-.9.2-.2.5-.4.8-.5.3-.1.6-.2.8-.2.4,0,.8,0,1.1.2.3.1.6.4.7.6.2.3.3.5.3.8,0,.3.1.6.1.9,0,0,0,.1,0,.2h-3.5v.2c0,1.2.4,2,1.2,2.2.2,0,.3,0,.5,0,.3,0,.6-.1.9-.4.1-.1.3-.3.3-.5v-.3c.1,0,.2,0,.3,0h0c.1,0,.2,0,.2.1s0,0,0,.2c-.2.5-.4.8-.8,1.1-.4.3-.8.4-1.2.4-.8,0-1.4-.3-1.9-.9-.5-.6-.8-1.2-.8-2Z"/>
        <path class="cls-10" d="M293.5,256.4c0-1.1-.5-1.6-1.2-1.7h0c0,0-.1,0-.2,0,0,0-.2,0-.3,0-.1,0-.3.1-.4.3,0,.1-.2.3-.3.5,0,.2-.2.5-.2.8h0c0,0,2.5,0,2.5,0h0ZM289.8,257.1c0-.5,0-.9.2-1.2.2-.4.4-.7.6-.9.2-.2.5-.4.8-.5.3-.1.6-.2.8-.2.4,0,.8,0,1.1.2.3.1.6.4.7.6.2.3.3.5.3.8,0,.3.1.6.1.9,0,0,0,.1,0,.2h-3.5v.2c0,1.2.4,2,1.2,2.2.2,0,.3,0,.5,0,.3,0,.6-.1.9-.4.1-.1.3-.3.3-.5v-.3c.1,0,.2,0,.3,0h0c.1,0,.2,0,.2.1s0,0,0,.2c-.2.5-.4.8-.8,1.1-.4.3-.8.4-1.2.4-.8,0-1.4-.3-1.9-.9-.5-.6-.8-1.2-.8-2Z"/>
      </g>
    </g>
  </g>
</svg>