<?xml version="1.0" encoding="UTF-8"?>
<svg id="Layer_1" xmlns="http://www.w3.org/2000/svg" version="1.1" xmlns:xlink="http://www.w3.org/1999/xlink" viewBox="0 0 672 671.04">
  <!-- Generator: Adobe Illustrator 29.4.0, SVG Export Plug-In . SVG Version: 2.1.0 Build 152)  -->
  <defs>
    <style>
      .st0 {
        fill: #ffe6cc;
      }

      .st1 {
        opacity: .1;
      }

      .st1, .st2, .st3, .st4, .st5, .st6, .st7, .st8, .st9, .st10, .st11, .st12, .st13 {
        fill: none;
      }

      .st1, .st2, .st3, .st4, .st6, .st7, .st8, .st9, .st10, .st11, .st12, .st13 {
        stroke: #000;
      }

      .st2 {
        stroke-width: 3.39px;
      }

      .st2, .st6, .st8, .st9, .st11, .st12 {
        stroke-miterlimit: 10;
      }

      .st3, .st6 {
        stroke-width: 3.39px;
      }

      .st4 {
        opacity: .1;
      }

      .st14 {
        fill: #ffb366;
      }

      .st7 {
        opacity: .07;
      }

      .st15 {
        fill: #ffe599;
      }

      .st8 {
        stroke-width: 2.04px;
      }

      .st9 {
        stroke-width: 1.36px;
      }

      .st16 {
        fill: #999;
      }

      .st10, .st12 {
        stroke-width: 2.71px;
      }

      .st11 {
        stroke-width: 2.04px;
      }

      .st17 {
        clip-path: url(#clippath);
      }

      .st13 {
        stroke-width: 2.71px;
      }
    </style>
    <clipPath id="clippath">
      <rect class="st5" x="-71.21" y="-79.71" width="832.43" height="830.46"/>
    </clipPath>
  </defs>
  <g class="st17">
    <path class="st16" d="M431.8,481.31c0,24.54-21.39,44.45-47.78,44.45-12.68,0-24.83-4.68-33.79-13.01-8.96-8.34-13.99-19.65-13.99-31.43,0-24.54,21.39-44.45,47.78-44.45s47.78,19.9,47.78,44.45Z"/>
    <path class="st6" d="M431.8,481.31c0,24.54-21.39,44.45-47.78,44.45-12.68,0-24.83-4.68-33.79-13.01-8.96-8.34-13.99-19.65-13.99-31.43,0-24.54,21.39-44.45,47.78-44.45s47.78,19.9,47.78,44.45Z"/>
    <path class="st6" d="M336.24,481.31c0-24.54,21.39-44.45,47.78-44.45s47.78,19.9,47.78,44.45"/>
    <path class="st15" d="M218.68,516.57c0-34.21,74.42-61.93,166.23-61.93,44.09,0,86.37,6.52,117.54,18.13,31.18,11.62,48.69,27.37,48.69,43.8v17.48c0,34.21-74.42,61.93-166.23,61.93s-166.23-27.73-166.23-61.93v-17.48Z"/>
    <path class="st6" d="M218.68,516.57c0-34.21,74.42-61.93,166.23-61.93,44.09,0,86.37,6.52,117.54,18.13,31.18,11.62,48.69,27.37,48.69,43.8v17.48c0,34.21-74.42,61.93-166.23,61.93s-166.23-27.73-166.23-61.93v-17.48Z"/>
    <path class="st6" d="M551.14,516.57c0,34.2-74.42,61.92-166.23,61.92s-166.23-27.73-166.23-61.92"/>
    <line class="st11" x1="384.02" y1="516.86" x2="578.79" y2="480.29"/>
    <polygon points="598.88 476.52 580.04 487 577.52 473.6 598.88 476.52"/>
    <polygon class="st11" points="598.88 476.52 580.04 487 577.52 473.6 598.88 476.52"/>
    <path d="M576.75,454.24c-.58-.08-2.59-.13-6.01-.13s-5.34.04-5.92.13h-.46v-1.92h1.38c1.64-.03,2.57-.19,2.8-.5.08-.11.13-1.63.13-4.55v-4.42l-4.3-7.22c-2.89-4.84-4.38-7.3-4.46-7.38-.22-.22-.54-.38-.96-.46-.42-.08-1.25-.13-2.5-.13h-.83v-1.92h.38c.25.08,2.03.13,5.34.13,3.48,0,5.51-.04,6.09-.13h.46v1.92h-.75c-1.34.03-2.04.25-2.13.67,0,.06,1.18,2.09,3.55,6.09l3.59,5.97,3.17-5.34c.53-.89,1.14-1.92,1.84-3.09,1-1.67,1.5-2.64,1.5-2.92,0-.78-.64-1.24-1.92-1.38h-.38v-1.92h1.54c.33,0,.7.01,1.08.04.39.03.79.04,1.21.04h1.08c1.92,0,3.38-.03,4.38-.08h.29v1.92h-.63c-2.31.11-3.84.79-4.59,2.04-.03.03-1.36,2.27-4,6.72l-3.84,6.42v7.43c0,.81.04,1.31.13,1.5s.31.33.67.42c.42.08,1.28.13,2.59.13h.92v1.92h-.42Z"/>
    <path class="st1" d="M576.75,454.24c-.58-.08-2.59-.13-6.01-.13s-5.34.04-5.92.13h-.46v-1.92h1.38c1.64-.03,2.57-.19,2.8-.5.08-.11.13-1.63.13-4.55v-4.42l-4.3-7.22c-2.89-4.84-4.38-7.3-4.46-7.38-.22-.22-.54-.38-.96-.46-.42-.08-1.25-.13-2.5-.13h-.83v-1.92h.38c.25.08,2.03.13,5.34.13,3.48,0,5.51-.04,6.09-.13h.46v1.92h-.75c-1.34.03-2.04.25-2.13.67,0,.06,1.18,2.09,3.55,6.09l3.59,5.97,3.17-5.34c.53-.89,1.14-1.92,1.84-3.09,1-1.67,1.5-2.64,1.5-2.92,0-.78-.64-1.24-1.92-1.38h-.38v-1.92h1.54c.33,0,.7.01,1.08.04.39.03.79.04,1.21.04h1.08c1.92,0,3.38-.03,4.38-.08h.29v1.92h-.63c-2.31.11-3.84.79-4.59,2.04-.03.03-1.36,2.27-4,6.72l-3.84,6.42v7.43c0,.81.04,1.31.13,1.5s.31.33.67.42c.42.08,1.28.13,2.59.13h.92v1.92h-.42Z"/>
    <path d="M594.09,443.45l-.38.15c-.28.1-.67.2-1.18.29-.51.1-1.08.17-1.71.21h-.56v-1.36h.56c.92-.04,1.78-.19,2.57-.44.79-.26,1.34-.49,1.65-.71.31-.22.59-.43.83-.65.04-.06.16-.09.35-.09.18,0,.34.06.5.18v8.82l.03,8.85c.14.14.26.23.35.27.1.04.33.08.71.12.37.04.98.06,1.83.06h.77v1.36h-.32c-.41-.06-1.98-.09-4.69-.09s-4.22.03-4.63.09h-.35v-1.36h1.89c.31,0,.56,0,.74-.03.18-.02.33-.05.47-.09s.22-.06.24-.06.08-.05.18-.15c.1-.1.16-.14.18-.12v-15.25Z"/>
    <path class="st7" d="M594.09,443.45l-.38.15c-.28.1-.67.2-1.18.29-.51.1-1.08.17-1.71.21h-.56v-1.36h.56c.92-.04,1.78-.19,2.57-.44.79-.26,1.34-.49,1.65-.71.31-.22.59-.43.83-.65.04-.06.16-.09.35-.09.18,0,.34.06.5.18v8.82l.03,8.85c.14.14.26.23.35.27.1.04.33.08.71.12.37.04.98.06,1.83.06h.77v1.36h-.32c-.41-.06-1.98-.09-4.69-.09s-4.22.03-4.63.09h-.35v-1.36h1.89c.31,0,.56,0,.74-.03.18-.02.33-.05.47-.09s.22-.06.24-.06.08-.05.18-.15c.1-.1.16-.14.18-.12v-15.25Z"/>
    <path d="M441.95,648.92c-.5-.08-2.29-.13-5.38-.13-2.64,0-4.17.04-4.59.13h-.33v-1.92h.71c2.48-.11,4.16-.7,5.05-1.75.11-.17,1.27-1.95,3.46-5.34,2.2-3.39,3.31-5.1,3.34-5.13,0-.06-1.24-2.02-3.71-5.88-2.48-3.87-3.75-5.84-3.84-5.92-.28-.25-.61-.42-1-.5-.39-.08-1.25-.13-2.59-.13h-.83v-1.92h.38c.5.08,2.25.13,5.26.13,3.48,0,5.51-.04,6.09-.13h.46v1.92h-.21c-.47,0-1,.07-1.59.21-.58.14-.9.29-.96.46,0,.08.82,1.42,2.46,4,1.64,2.59,2.5,3.89,2.59,3.92.03,0,.76-1.11,2.21-3.34,1.45-2.22,2.17-3.37,2.17-3.42.03-.06.04-.14.04-.25,0-.33-.18-.65-.54-.96s-.93-.51-1.71-.63h-.33v-1.92h.38c.5.08,2.29.13,5.38.13,2.64,0,4.17-.04,4.59-.13h.33v1.92h-.71c-2.28.08-3.89.61-4.84,1.59-.08.08-1.1,1.59-3.05,4.51-1.84,2.86-2.75,4.31-2.75,4.34,0,.06,1.42,2.31,4.26,6.76,2.84,4.45,4.31,6.72,4.42,6.8.22.25.53.42.92.5s1.13.14,2.21.17h1.29v1.92h-.38c-.5-.08-2.25-.13-5.26-.13-3.48,0-5.51.04-6.09.13h-.46v-1.92h.25c.39,0,.89-.07,1.5-.21.61-.14.93-.32.96-.54,0-.08-.5-.92-1.5-2.5s-2.02-3.17-3.05-4.76l-1.54-2.38-.13.13c-.06.06-.15.18-.29.38-.14.19-.31.45-.5.75s-.46.71-.79,1.21c-.33.5-.7,1.07-1.08,1.71-1.86,2.98-2.81,4.52-2.84,4.63,0,.39.22.74.67,1.04.44.31.97.49,1.59.54h.33v1.92h-.42Z"/>
    <path class="st1" d="M441.95,648.92c-.5-.08-2.29-.13-5.38-.13-2.64,0-4.17.04-4.59.13h-.33v-1.92h.71c2.48-.11,4.16-.7,5.05-1.75.11-.17,1.27-1.95,3.46-5.34,2.2-3.39,3.31-5.1,3.34-5.13,0-.06-1.24-2.02-3.71-5.88-2.48-3.87-3.75-5.84-3.84-5.92-.28-.25-.61-.42-1-.5-.39-.08-1.25-.13-2.59-.13h-.83v-1.92h.38c.5.08,2.25.13,5.26.13,3.48,0,5.51-.04,6.09-.13h.46v1.92h-.21c-.47,0-1,.07-1.59.21-.58.14-.9.29-.96.46,0,.08.82,1.42,2.46,4,1.64,2.59,2.5,3.89,2.59,3.92.03,0,.76-1.11,2.21-3.34,1.45-2.22,2.17-3.37,2.17-3.42.03-.06.04-.14.04-.25,0-.33-.18-.65-.54-.96s-.93-.51-1.71-.63h-.33v-1.92h.38c.5.08,2.29.13,5.38.13,2.64,0,4.17-.04,4.59-.13h.33v1.92h-.71c-2.28.08-3.89.61-4.84,1.59-.08.08-1.1,1.59-3.05,4.51-1.84,2.86-2.75,4.31-2.75,4.34,0,.06,1.42,2.31,4.26,6.76,2.84,4.45,4.31,6.72,4.42,6.8.22.25.53.42.92.5s1.13.14,2.21.17h1.29v1.92h-.38c-.5-.08-2.25-.13-5.26-.13-3.48,0-5.51.04-6.09.13h-.46v-1.92h.25c.39,0,.89-.07,1.5-.21.61-.14.93-.32.96-.54,0-.08-.5-.92-1.5-2.5s-2.02-3.17-3.05-4.76l-1.54-2.38-.13.13c-.06.06-.15.18-.29.38-.14.19-.31.45-.5.75s-.46.71-.79,1.21c-.33.5-.7,1.07-1.08,1.71-1.86,2.98-2.81,4.52-2.84,4.63,0,.39.22.74.67,1.04.44.31.97.49,1.59.54h.33v1.92h-.42Z"/>
    <path d="M469.64,638.13l-.38.15c-.28.1-.67.2-1.18.29-.51.1-1.08.17-1.71.21h-.56v-1.36h.56c.92-.04,1.78-.19,2.57-.44.79-.26,1.34-.49,1.65-.71.31-.22.59-.43.83-.65.04-.06.16-.09.35-.09.18,0,.34.06.5.18v8.82l.03,8.85c.14.14.26.23.35.27.1.04.33.08.71.12.37.04.98.06,1.83.06h.77v1.36h-.32c-.41-.06-1.98-.09-4.69-.09s-4.22.03-4.63.09h-.35v-1.36h1.89c.31,0,.56,0,.74-.03.18-.02.33-.05.47-.09.14-.04.22-.06.24-.06s.08-.05.18-.15c.1-.1.16-.14.18-.12v-15.25Z"/>
    <path class="st7" d="M469.64,638.13l-.38.15c-.28.1-.67.2-1.18.29-.51.1-1.08.17-1.71.21h-.56v-1.36h.56c.92-.04,1.78-.19,2.57-.44.79-.26,1.34-.49,1.65-.71.31-.22.59-.43.83-.65.04-.06.16-.09.35-.09.18,0,.34.06.5.18v8.82l.03,8.85c.14.14.26.23.35.27.1.04.33.08.71.12.37.04.98.06,1.83.06h.77v1.36h-.32c-.41-.06-1.98-.09-4.69-.09s-4.22.03-4.63.09h-.35v-1.36h1.89c.31,0,.56,0,.74-.03.18-.02.33-.05.47-.09.14-.04.22-.06.24-.06s.08-.05.18-.15c.1-.1.16-.14.18-.12v-15.25Z"/>
    <path d="M333.12,18.85c0-.25.07-1.79.21-4.63.14-2.84.22-4.63.25-5.38h19.56c.17.17.25.43.25.79,0,.42-.01.64-.04.67-.06.08-2.67,4.25-7.84,12.51-5.17,8.26-7.77,12.4-7.8,12.43-.03.03.15.04.54.04h4.59c.86,0,1.57-.01,2.13-.04.56-.03,1.22-.15,2-.38.78-.22,1.42-.49,1.92-.79.5-.31.99-.82,1.46-1.54.47-.72.82-1.53,1.04-2.42.17-.75.35-2.14.54-4.17v-.38h1.67v.33c0,.06-.11,1.88-.33,5.46-.22,3.59-.35,5.46-.38,5.63v.33h-10.05l-10.05-.04-.13-.08c-.08-.14-.13-.39-.13-.75v-.58c.11-.22,1.47-2.42,4.09-6.59,2.61-4.17,5.21-8.29,7.8-12.35,2.59-4.06,3.87-6.12,3.84-6.17h-3.71c-2.34,0-4.13.17-5.38.5-1.25.33-2.27,1.06-3.04,2.17-.89,1.39-1.33,3.17-1.33,5.34,0,.06-.28.08-.83.08h-.83Z"/>
    <path class="st1" d="M333.12,18.85c0-.25.07-1.79.21-4.63.14-2.84.22-4.63.25-5.38h19.56c.17.17.25.43.25.79,0,.42-.01.64-.04.67-.06.08-2.67,4.25-7.84,12.51-5.17,8.26-7.77,12.4-7.8,12.43-.03.03.15.04.54.04h4.59c.86,0,1.57-.01,2.13-.04.56-.03,1.22-.15,2-.38.78-.22,1.42-.49,1.92-.79.5-.31.99-.82,1.46-1.54.47-.72.82-1.53,1.04-2.42.17-.75.35-2.14.54-4.17v-.38h1.67v.33c0,.06-.11,1.88-.33,5.46-.22,3.59-.35,5.46-.38,5.63v.33h-10.05l-10.05-.04-.13-.08c-.08-.14-.13-.39-.13-.75v-.58c.11-.22,1.47-2.42,4.09-6.59,2.61-4.17,5.21-8.29,7.8-12.35,2.59-4.06,3.87-6.12,3.84-6.17h-3.71c-2.34,0-4.13.17-5.38.5-1.25.33-2.27,1.06-3.04,2.17-.89,1.39-1.33,3.17-1.33,5.34,0,.06-.28.08-.83.08h-.83Z"/>
    <path d="M363.38,26.54l-.38.15c-.28.1-.67.2-1.18.29-.51.1-1.08.17-1.71.21h-.56v-1.36h.56c.92-.04,1.78-.19,2.57-.44.79-.26,1.34-.49,1.65-.71.31-.22.59-.43.83-.65.04-.06.16-.09.35-.09.18,0,.34.06.5.18v8.82l.03,8.85c.14.14.26.23.35.27.1.04.33.08.71.12.37.04.98.06,1.83.06h.77v1.36h-.32c-.41-.06-1.98-.09-4.69-.09s-4.22.03-4.63.09h-.35v-1.36h1.89c.31,0,.56,0,.74-.03s.33-.05.47-.09c.14-.04.22-.06.24-.06s.08-.05.18-.15.16-.14.18-.12v-15.25Z"/>
    <path class="st7" d="M363.38,26.54l-.38.15c-.28.1-.67.2-1.18.29-.51.1-1.08.17-1.71.21h-.56v-1.36h.56c.92-.04,1.78-.19,2.57-.44.79-.26,1.34-.49,1.65-.71.31-.22.59-.43.83-.65.04-.06.16-.09.35-.09.18,0,.34.06.5.18v8.82l.03,8.85c.14.14.26.23.35.27.1.04.33.08.71.12.37.04.98.06,1.83.06h.77v1.36h-.32c-.41-.06-1.98-.09-4.69-.09s-4.22.03-4.63.09h-.35v-1.36h1.89c.31,0,.56,0,.74-.03s.33-.05.47-.09c.14-.04.22-.06.24-.06s.08-.05.18-.15.16-.14.18-.12v-15.25Z"/>
    <path class="st8" d="M384.62,219.31c-12.44-.88-27.35,11.55-37.86,31.55"/>
    <path d="M354.03,206.64c1.36,0,2.72-.29,4.09-.88,1.36-.58,2.38-1.18,3.04-1.79l1-.92c-.06-3.98-.15-6.45-.29-7.42-.39-3.2-1.67-4.8-3.84-4.8-1.92,0-3.6,1.01-5.05,3.04-.75,1.11-1.36,2.61-1.83,4.5-.47,1.89-.72,3.34-.75,4.34,0,1.36.35,2.35,1.04,2.96.69.61,1.56.93,2.59.96ZM346.77,201.22c0-3.17,1.2-5.95,3.59-8.34,2.39-2.39,5.02-3.59,7.88-3.59,1.95,0,3.5.56,4.67,1.67,1.17,1.11,1.96,2.47,2.38,4.09.17.81.26,1.74.29,2.79v1.21c1.36-2.06,2.4-4.36,3.13-6.92.11-.39.19-.61.25-.67s.28-.1.67-.13c.58,0,.88.11.88.33,0,.25-.13.79-.38,1.63s-.75,2.02-1.5,3.54c-.75,1.53-1.6,2.92-2.54,4.17l-.46.58.04,1c.06,1.56.17,2.61.33,3.17.17.56.43.85.79.88.39-.06.75-.21,1.08-.46.33-.25.57-.57.71-.96.06-.19.13-.31.21-.33.08-.03.29-.06.63-.08.56,0,.83.11.83.33,0,.17-.08.43-.25.79-.33.67-.82,1.2-1.46,1.58-.64.39-1.25.6-1.83.63h-.29c-1.86,0-3.13-1-3.79-3l-.13-.29-.46.33c-.28.22-.7.5-1.25.83-.56.33-1.18.65-1.88.96-.7.31-1.5.58-2.42.83-.92.25-1.81.38-2.67.38-2.2,0-3.92-.69-5.17-2.09-1.25-1.39-1.88-3.02-1.88-4.88Z"/>
    <path class="st1" d="M354.03,206.64c1.36,0,2.72-.29,4.09-.88,1.36-.58,2.38-1.18,3.04-1.79l1-.92c-.06-3.98-.15-6.45-.29-7.42-.39-3.2-1.67-4.8-3.84-4.8-1.92,0-3.6,1.01-5.05,3.04-.75,1.11-1.36,2.61-1.83,4.5-.47,1.89-.72,3.34-.75,4.34,0,1.36.35,2.35,1.04,2.96.69.61,1.56.93,2.59.96ZM346.77,201.22c0-3.17,1.2-5.95,3.59-8.34,2.39-2.39,5.02-3.59,7.88-3.59,1.95,0,3.5.56,4.67,1.67,1.17,1.11,1.96,2.47,2.38,4.09.17.81.26,1.74.29,2.79v1.21c1.36-2.06,2.4-4.36,3.13-6.92.11-.39.19-.61.25-.67s.28-.1.67-.13c.58,0,.88.11.88.33,0,.25-.13.79-.38,1.63s-.75,2.02-1.5,3.54c-.75,1.53-1.6,2.92-2.54,4.17l-.46.58.04,1c.06,1.56.17,2.61.33,3.17.17.56.43.85.79.88.39-.06.75-.21,1.08-.46.33-.25.57-.57.71-.96.06-.19.13-.31.21-.33.08-.03.29-.06.63-.08.56,0,.83.11.83.33,0,.17-.08.43-.25.79-.33.67-.82,1.2-1.46,1.58-.64.39-1.25.6-1.83.63h-.29c-1.86,0-3.13-1-3.79-3l-.13-.29-.46.33c-.28.22-.7.5-1.25.83-.56.33-1.18.65-1.88.96-.7.31-1.5.58-2.42.83-.92.25-1.81.38-2.67.38-2.2,0-3.92-.69-5.17-2.09-1.25-1.39-1.88-3.02-1.88-4.88Z"/>
    <path d="M313.85,245.17c1.08,0,2.11.17,3.09.5l.21-.13c.11-.11.21-.21.29-.29s.22-.22.42-.42c.19-.19.36-.39.5-.58s.29-.44.46-.75c.17-.31.33-.64.5-1,.17-.36.29-.76.38-1.21.08-.44.19-.95.33-1.5.06-.25.08-.71.08-1.38,0-.5-.01-.82-.04-.96-.42-1.42-1.47-2.13-3.17-2.13-1.17,0-2.27.33-3.3,1-1.03.67-1.88,1.52-2.54,2.54-.67,1.03-1.21,1.97-1.63,2.84-.42.86-.74,1.68-.96,2.46-.14.44-.67,2.49-1.59,6.13-.92,3.64-1.39,5.59-1.42,5.84-.03.14-.04.43-.04.88,0,1.33.31,2.43.92,3.3.86,1.17,2.07,1.75,3.63,1.75,1.17,0,2.41-.35,3.71-1.04,1.31-.7,2.36-1.89,3.17-3.59.44-.95.78-2.02,1-3.21.22-1.2.33-2.1.33-2.71,0-1.61-.49-2.91-1.46-3.88-1.17.39-2.21.58-3.13.58h-.42c-2.2,0-3.3-.43-3.3-1.29,0-.19.04-.39.13-.58.39-.78,1.67-1.17,3.84-1.17ZM300.34,271.24c-.17-.17-.25-.28-.25-.33,0-.08,1.1-4.53,3.3-13.35,2.2-8.82,3.37-13.42,3.5-13.81.61-1.89,1.4-3.55,2.38-4.96.97-1.42,1.89-2.45,2.75-3.09,1.56-1.31,3.23-1.96,5.01-1.96h.08c1.72,0,3.14.53,4.25,1.59,1.11,1.06,1.67,2.41,1.67,4.05,0,2.92-1.45,5.34-4.34,7.26l.54.54c1.42,1.42,2.13,3.24,2.13,5.46,0,3.14-1.18,5.74-3.55,7.8-2.36,2.06-5.02,3.1-7.97,3.13-.83,0-1.59-.11-2.25-.33-.67-.22-1.2-.49-1.59-.79-.39-.31-.7-.63-.92-.96-.22-.33-.39-.6-.5-.79-.11-.19-.18-.28-.21-.25l-2.67,10.55c-.06.17-.33.25-.83.25h-.54Z"/>
    <path class="st1" d="M313.85,245.17c1.08,0,2.11.17,3.09.5l.21-.13c.11-.11.21-.21.29-.29s.22-.22.42-.42c.19-.19.36-.39.5-.58s.29-.44.46-.75c.17-.31.33-.64.5-1,.17-.36.29-.76.38-1.21.08-.44.19-.95.33-1.5.06-.25.08-.71.08-1.38,0-.5-.01-.82-.04-.96-.42-1.42-1.47-2.13-3.17-2.13-1.17,0-2.27.33-3.3,1-1.03.67-1.88,1.52-2.54,2.54-.67,1.03-1.21,1.97-1.63,2.84-.42.86-.74,1.68-.96,2.46-.14.44-.67,2.49-1.59,6.13-.92,3.64-1.39,5.59-1.42,5.84-.03.14-.04.43-.04.88,0,1.33.31,2.43.92,3.3.86,1.17,2.07,1.75,3.63,1.75,1.17,0,2.41-.35,3.71-1.04,1.31-.7,2.36-1.89,3.17-3.59.44-.95.78-2.02,1-3.21.22-1.2.33-2.1.33-2.71,0-1.61-.49-2.91-1.46-3.88-1.17.39-2.21.58-3.13.58h-.42c-2.2,0-3.3-.43-3.3-1.29,0-.19.04-.39.13-.58.39-.78,1.67-1.17,3.84-1.17ZM300.34,271.24c-.17-.17-.25-.28-.25-.33,0-.08,1.1-4.53,3.3-13.35,2.2-8.82,3.37-13.42,3.5-13.81.61-1.89,1.4-3.55,2.38-4.96.97-1.42,1.89-2.45,2.75-3.09,1.56-1.31,3.23-1.96,5.01-1.96h.08c1.72,0,3.14.53,4.25,1.59,1.11,1.06,1.67,2.41,1.67,4.05,0,2.92-1.45,5.34-4.34,7.26l.54.54c1.42,1.42,2.13,3.24,2.13,5.46,0,3.14-1.18,5.74-3.55,7.8-2.36,2.06-5.02,3.1-7.97,3.13-.83,0-1.59-.11-2.25-.33-.67-.22-1.2-.49-1.59-.79-.39-.31-.7-.63-.92-.96-.22-.33-.39-.6-.5-.79-.11-.19-.18-.28-.21-.25l-2.67,10.55c-.06.17-.33.25-.83.25h-.54Z"/>
    <line class="st11" x1="107.56" y1="465.98" x2="108.19" y2="409.4"/>
    <polygon points="108.41 388.95 115 409.48 101.37 409.33 108.41 388.95"/>
    <polygon class="st11" points="108.41 388.95 115 409.48 101.37 409.33 108.41 388.95"/>
    <line class="st11" x1="106.67" y1="465.09" x2="163.25" y2="465.09"/>
    <polygon points="183.7 465.09 163.25 471.91 163.25 458.27 183.7 465.09"/>
    <polygon class="st11" points="183.7 465.09 163.25 471.91 163.25 458.27 183.7 465.09"/>
    <path d="M60.21,367.31c0-.25.07-1.79.21-4.63.14-2.84.22-4.63.25-5.38h19.56c.17.17.25.43.25.79,0,.42-.01.64-.04.67-.06.08-2.67,4.25-7.84,12.51-5.17,8.26-7.77,12.4-7.8,12.43-.03.03.15.04.54.04h4.59c.86,0,1.57-.01,2.13-.04.56-.03,1.22-.15,2-.38.78-.22,1.42-.49,1.92-.79.5-.31.99-.82,1.46-1.54s.82-1.53,1.04-2.42c.17-.75.35-2.14.54-4.17v-.38h1.67v.33c0,.06-.11,1.88-.33,5.46-.22,3.59-.35,5.46-.38,5.63v.33h-10.05l-10.05-.04-.13-.08c-.08-.14-.13-.39-.13-.75v-.58c.11-.22,1.47-2.42,4.09-6.59,2.61-4.17,5.21-8.29,7.8-12.34,2.59-4.06,3.86-6.12,3.84-6.17h-3.71c-2.34,0-4.13.17-5.38.5-1.25.33-2.27,1.06-3.04,2.17-.89,1.39-1.33,3.17-1.33,5.34,0,.06-.28.08-.83.08h-.83Z"/>
    <path class="st1" d="M60.21,367.31c0-.25.07-1.79.21-4.63.14-2.84.22-4.63.25-5.38h19.56c.17.17.25.43.25.79,0,.42-.01.64-.04.67-.06.08-2.67,4.25-7.84,12.51-5.17,8.26-7.77,12.4-7.8,12.43-.03.03.15.04.54.04h4.59c.86,0,1.57-.01,2.13-.04.56-.03,1.22-.15,2-.38.78-.22,1.42-.49,1.92-.79.5-.31.99-.82,1.46-1.54s.82-1.53,1.04-2.42c.17-.75.35-2.14.54-4.17v-.38h1.67v.33c0,.06-.11,1.88-.33,5.46-.22,3.59-.35,5.46-.38,5.63v.33h-10.05l-10.05-.04-.13-.08c-.08-.14-.13-.39-.13-.75v-.58c.11-.22,1.47-2.42,4.09-6.59,2.61-4.17,5.21-8.29,7.8-12.34,2.59-4.06,3.86-6.12,3.84-6.17h-3.71c-2.34,0-4.13.17-5.38.5-1.25.33-2.27,1.06-3.04,2.17-.89,1.39-1.33,3.17-1.33,5.34,0,.06-.28.08-.83.08h-.83Z"/>
    <path d="M93.66,374.44c-.59-.63-1.29-.94-2.09-.94s-1.53.31-2.12.94c-.49.51-.82,1.22-.97,2.12-.16.9-.24,2.79-.24,5.66,0,3.11.08,5.15.24,6.13.16.98.51,1.76,1.06,2.33.55.59,1.23.88,2.03.88s1.45-.29,2.01-.88c.57-.59.92-1.42,1.06-2.48.14-1.06.22-3.06.24-5.99,0-2.85-.08-4.73-.24-5.63-.16-.9-.48-1.62-.97-2.15ZM87.02,374.79c1.1-1.59,2.6-2.39,4.51-2.39.94,0,1.89.26,2.83.77.94.51,1.71,1.42,2.3,2.71.73,1.63,1.09,3.87,1.09,6.72,0,3.05-.42,5.38-1.27,6.99-.39.83-.93,1.48-1.62,1.98-.69.49-1.29.8-1.8.91s-1.01.19-1.5.21c-.51,0-1.02-.06-1.53-.18-.51-.12-1.11-.43-1.8-.94-.69-.51-1.23-1.17-1.62-1.98-.85-1.61-1.27-3.94-1.27-6.99,0-3.42.56-6.02,1.68-7.81Z"/>
    <path class="st7" d="M93.66,374.44c-.59-.63-1.29-.94-2.09-.94s-1.53.31-2.12.94c-.49.51-.82,1.22-.97,2.12-.16.9-.24,2.79-.24,5.66,0,3.11.08,5.15.24,6.13.16.98.51,1.76,1.06,2.33.55.59,1.23.88,2.03.88s1.45-.29,2.01-.88c.57-.59.92-1.42,1.06-2.48.14-1.06.22-3.06.24-5.99,0-2.85-.08-4.73-.24-5.63-.16-.9-.48-1.62-.97-2.15ZM87.02,374.79c1.1-1.59,2.6-2.39,4.51-2.39.94,0,1.89.26,2.83.77.94.51,1.71,1.42,2.3,2.71.73,1.63,1.09,3.87,1.09,6.72,0,3.05-.42,5.38-1.27,6.99-.39.83-.93,1.48-1.62,1.98-.69.49-1.29.8-1.8.91s-1.01.19-1.5.21c-.51,0-1.02-.06-1.53-.18-.51-.12-1.11-.43-1.8-.94-.69-.51-1.23-1.17-1.62-1.98-.85-1.61-1.27-3.94-1.27-6.99,0-3.42.56-6.02,1.68-7.81Z"/>
    <path d="M197.17,451.57c-.58-.08-2.59-.13-6.01-.13s-5.34.04-5.92.13h-.46v-1.92h1.38c1.64-.03,2.57-.19,2.79-.5.08-.11.13-1.63.13-4.55v-4.42l-4.3-7.22c-2.89-4.84-4.38-7.3-4.46-7.38-.22-.22-.54-.38-.96-.46-.42-.08-1.25-.13-2.5-.13h-.83v-1.92h.38c.25.08,2.03.13,5.34.13,3.48,0,5.51-.04,6.09-.13h.46v1.92h-.75c-1.33.03-2.04.25-2.13.67,0,.06,1.18,2.09,3.54,6.09l3.59,5.96,3.17-5.34c.53-.89,1.14-1.92,1.84-3.09,1-1.67,1.5-2.64,1.5-2.92,0-.78-.64-1.24-1.92-1.38h-.38v-1.92h1.54c.33,0,.7.01,1.08.04.39.03.79.04,1.21.04h1.08c1.92,0,3.38-.03,4.38-.08h.29v1.92h-.63c-2.31.11-3.84.79-4.59,2.04-.03.03-1.36,2.27-4,6.71l-3.84,6.42v7.42c0,.81.04,1.31.13,1.5.08.19.31.33.67.42.42.08,1.28.13,2.59.13h.92v1.92h-.42Z"/>
    <path class="st1" d="M197.17,451.57c-.58-.08-2.59-.13-6.01-.13s-5.34.04-5.92.13h-.46v-1.92h1.38c1.64-.03,2.57-.19,2.79-.5.08-.11.13-1.63.13-4.55v-4.42l-4.3-7.22c-2.89-4.84-4.38-7.3-4.46-7.38-.22-.22-.54-.38-.96-.46-.42-.08-1.25-.13-2.5-.13h-.83v-1.92h.38c.25.08,2.03.13,5.34.13,3.48,0,5.51-.04,6.09-.13h.46v1.92h-.75c-1.33.03-2.04.25-2.13.67,0,.06,1.18,2.09,3.54,6.09l3.59,5.96,3.17-5.34c.53-.89,1.14-1.92,1.84-3.09,1-1.67,1.5-2.64,1.5-2.92,0-.78-.64-1.24-1.92-1.38h-.38v-1.92h1.54c.33,0,.7.01,1.08.04.39.03.79.04,1.21.04h1.08c1.92,0,3.38-.03,4.38-.08h.29v1.92h-.63c-2.31.11-3.84.79-4.59,2.04-.03.03-1.36,2.27-4,6.71l-3.84,6.42v7.42c0,.81.04,1.31.13,1.5.08.19.31.33.67.42.42.08,1.28.13,2.59.13h.92v1.92h-.42Z"/>
    <path d="M217.69,440.22c-.59-.63-1.29-.94-2.09-.94s-1.53.31-2.12.94c-.49.51-.82,1.22-.97,2.12-.16.9-.24,2.79-.24,5.66,0,3.11.08,5.15.24,6.13.16.98.51,1.76,1.06,2.33.55.59,1.23.88,2.03.88s1.45-.29,2.01-.88c.57-.59.92-1.42,1.06-2.48.14-1.06.22-3.06.24-5.99,0-2.85-.08-4.73-.24-5.63-.16-.9-.48-1.62-.97-2.15ZM211.06,440.57c1.1-1.59,2.6-2.39,4.51-2.39.94,0,1.89.26,2.83.77.94.51,1.71,1.42,2.3,2.71.73,1.63,1.09,3.87,1.09,6.72,0,3.05-.42,5.38-1.27,6.99-.39.83-.93,1.48-1.62,1.98-.69.49-1.29.8-1.8.91s-1.01.19-1.5.21c-.51,0-1.02-.06-1.53-.18-.51-.12-1.11-.43-1.8-.94-.69-.51-1.23-1.17-1.62-1.98-.85-1.61-1.27-3.94-1.27-6.99,0-3.42.56-6.02,1.68-7.81Z"/>
    <path class="st7" d="M217.69,440.22c-.59-.63-1.29-.94-2.09-.94s-1.53.31-2.12.94c-.49.51-.82,1.22-.97,2.12-.16.9-.24,2.79-.24,5.66,0,3.11.08,5.15.24,6.13.16.98.51,1.76,1.06,2.33.55.59,1.23.88,2.03.88s1.45-.29,2.01-.88c.57-.59.92-1.42,1.06-2.48.14-1.06.22-3.06.24-5.99,0-2.85-.08-4.73-.24-5.63-.16-.9-.48-1.62-.97-2.15ZM211.06,440.57c1.1-1.59,2.6-2.39,4.51-2.39.94,0,1.89.26,2.83.77.94.51,1.71,1.42,2.3,2.71.73,1.63,1.09,3.87,1.09,6.72,0,3.05-.42,5.38-1.27,6.99-.39.83-.93,1.48-1.62,1.98-.69.49-1.29.8-1.8.91s-1.01.19-1.5.21c-.51,0-1.02-.06-1.53-.18-.51-.12-1.11-.43-1.8-.94-.69-.51-1.23-1.17-1.62-1.98-.85-1.61-1.27-3.94-1.27-6.99,0-3.42.56-6.02,1.68-7.81Z"/>
    <path d="M109.78,465.09c0,.35-.07.69-.2,1.02-.14.33-.33.62-.58.87-.25.25-.54.44-.87.58-.33.14-.67.2-1.02.2-.35,0-.69-.07-1.02-.2-.33-.14-.62-.33-.87-.58-.25-.25-.44-.54-.58-.87-.14-.33-.2-.67-.2-1.02,0-.35.07-.69.2-1.02.14-.33.33-.62.58-.87.25-.25.54-.44.87-.58.33-.14.67-.2,1.02-.2s.69.07,1.02.2c.33.14.62.33.87.58.25.25.44.54.58.87.14.33.2.67.2,1.02Z"/>
    <path class="st13" d="M109.78,465.09c0,.35-.07.69-.2,1.02-.14.33-.33.62-.58.87-.25.25-.54.44-.87.58-.33.14-.67.2-1.02.2-.35,0-.69-.07-1.02-.2-.33-.14-.62-.33-.87-.58-.25-.25-.44-.54-.58-.87-.14-.33-.2-.67-.2-1.02,0-.35.07-.69.2-1.02.14-.33.33-.62.58-.87.25-.25.54-.44.87-.58.33-.14.67-.2,1.02-.2s.69.07,1.02.2c.33.14.62.33.87.58.25.25.44.54.58.87.14.33.2.67.2,1.02Z"/>
    <path d="M263.56,493.95c0-.33-1.29-.5-3.88-.5h-1.04c-.17-.14-.25-.25-.25-.33s.03-.35.08-.79c.11-.36.25-.63.42-.79h.71c1.14.06,3.17.08,6.09.08h2.92c.75,0,1.26-.01,1.54-.04.28-.03.47-.03.58,0,.39,0,.58.14.58.42,0,.06-.04.25-.13.58-.11.44-.21.7-.29.75-.08.06-.35.1-.79.13-1.45,0-2.27.19-2.46.58-.11.36-.97,3.79-2.59,10.3-1.75,6.89-2.64,10.36-2.67,10.38-.61,1.75-1.81,3.22-3.59,4.42-1.78,1.2-3.7,1.79-5.75,1.79-1.61,0-2.97-.42-4.09-1.25-1.11-.83-1.67-1.95-1.67-3.34,0-1.17.32-2.06.96-2.67.64-.61,1.36-.92,2.17-.92,1.25,0,1.95.61,2.09,1.83,0,.89-.25,1.58-.75,2.09s-1.07.83-1.71,1c-.22.06-.33.1-.33.13s.1.15.29.38c.72.81,1.77,1.21,3.13,1.21,1.06,0,2.08-.44,3.09-1.33,1-.89,1.74-2.04,2.21-3.46.11-.33.99-3.81,2.63-10.43,1.64-6.62,2.47-10.02,2.5-10.22Z"/>
    <path class="st1" d="M263.56,493.95c0-.33-1.29-.5-3.88-.5h-1.04c-.17-.14-.25-.25-.25-.33s.03-.35.08-.79c.11-.36.25-.63.42-.79h.71c1.14.06,3.17.08,6.09.08h2.92c.75,0,1.26-.01,1.54-.04.28-.03.47-.03.58,0,.39,0,.58.14.58.42,0,.06-.04.25-.13.58-.11.44-.21.7-.29.75-.08.06-.35.1-.79.13-1.45,0-2.27.19-2.46.58-.11.36-.97,3.79-2.59,10.3-1.75,6.89-2.64,10.36-2.67,10.38-.61,1.75-1.81,3.22-3.59,4.42-1.78,1.2-3.7,1.79-5.75,1.79-1.61,0-2.97-.42-4.09-1.25-1.11-.83-1.67-1.95-1.67-3.34,0-1.17.32-2.06.96-2.67.64-.61,1.36-.92,2.17-.92,1.25,0,1.95.61,2.09,1.83,0,.89-.25,1.58-.75,2.09s-1.07.83-1.71,1c-.22.06-.33.1-.33.13s.1.15.29.38c.72.81,1.77,1.21,3.13,1.21,1.06,0,2.08-.44,3.09-1.33,1-.89,1.74-2.04,2.21-3.46.11-.33.99-3.81,2.63-10.43,1.64-6.62,2.47-10.02,2.5-10.22Z"/>
    <path d="M274.57,518.55v-1.04c0-.69.22-1.29.67-1.79s1.04-.75,1.79-.75,1.47.35,2.09,1.04c.61.69.93,1.92.96,3.67,0,.97-.13,1.92-.38,2.84-.25.92-.54,1.71-.88,2.38s-.7,1.24-1.08,1.71c-.39.47-.72.85-1,1.13-.28.28-.46.4-.54.38-.11,0-.29-.13-.54-.38s-.38-.43-.38-.54.15-.33.46-.67c.31-.33.65-.75,1.04-1.25.39-.5.75-1.2,1.08-2.09.33-.89.56-1.9.67-3.04v-.5l-.04.04c-.06.03-.13.06-.21.08-.08.03-.17.07-.25.13-.08.06-.21.08-.38.08s-.33.01-.5.04c-.75,0-1.36-.24-1.83-.71l-.75-.75Z"/>
    <path class="st1" d="M274.57,518.55v-1.04c0-.69.22-1.29.67-1.79s1.04-.75,1.79-.75,1.47.35,2.09,1.04c.61.69.93,1.92.96,3.67,0,.97-.13,1.92-.38,2.84-.25.92-.54,1.71-.88,2.38s-.7,1.24-1.08,1.71c-.39.47-.72.85-1,1.13-.28.28-.46.4-.54.38-.11,0-.29-.13-.54-.38s-.38-.43-.38-.54.15-.33.46-.67c.31-.33.65-.75,1.04-1.25.39-.5.75-1.2,1.08-2.09.33-.89.56-1.9.67-3.04v-.5l-.04.04c-.06.03-.13.06-.21.08-.08.03-.17.07-.25.13-.08.06-.21.08-.38.08s-.33.01-.5.04c-.75,0-1.36-.24-1.83-.71l-.75-.75Z"/>
    <path d="M290.73,508.04c.03-.17.07-.39.13-.67.06-.28.22-.81.5-1.58.28-.78.56-1.43.83-1.96.28-.53.72-1.04,1.33-1.54.61-.5,1.22-.74,1.83-.71s1.21.13,1.79.29c.58.17,1,.42,1.25.75.25.33.47.64.67.92.19.28.31.54.33.79l.08.29c0,.06.01.08.04.08l.46-.46c1.67-1.78,3.63-2.67,5.88-2.67.47,0,.9.03,1.29.08.39.06.75.15,1.08.29.33.14.6.28.79.42.19.14.4.31.63.5.22.19.36.38.42.54.06.17.17.35.33.54.17.19.22.36.17.5-.06.14-.01.26.13.38.14.11.17.21.08.29l.33-.42c1.75-2.09,3.82-3.13,6.21-3.13,1.5,0,2.71.38,3.63,1.13.92.75,1.39,1.85,1.42,3.29,0,1.42-.53,3.61-1.58,6.59-1.06,2.97-1.58,4.75-1.58,5.34.03.39.1.65.21.79.11.14.32.21.63.21.78,0,1.5-.42,2.17-1.25.67-.83,1.21-1.97,1.63-3.42.08-.31.17-.49.25-.54.08-.06.31-.08.67-.08.56,0,.83.11.83.33,0,.03-.06.24-.17.63-.22.81-.53,1.6-.92,2.38-.39.78-1.03,1.56-1.92,2.34-.89.78-1.85,1.15-2.88,1.13-1.31,0-2.25-.38-2.84-1.13-.58-.75-.88-1.53-.88-2.34,0-.53.5-2.2,1.5-5,1-2.81,1.52-4.92,1.54-6.34,0-1.64-.61-2.46-1.83-2.46h-.21c-2.39,0-4.41,1.4-6.05,4.21l-.29.5-1.38,5.59c-.92,3.64-1.45,5.6-1.58,5.88-.36.75-.96,1.13-1.79,1.13-.36,0-.65-.1-.88-.29s-.38-.36-.46-.5c-.08-.14-.13-.28-.13-.42,0-.31.47-2.29,1.42-5.96l1.5-6.09c.08-.42.13-.95.13-1.58,0-1.64-.61-2.46-1.83-2.46h-.21c-2.39,0-4.41,1.4-6.05,4.21l-.29.5-1.38,5.59c-.92,3.64-1.45,5.6-1.58,5.88-.36.75-.96,1.13-1.79,1.13-.36,0-.65-.08-.88-.25s-.38-.33-.46-.5c-.08-.17-.11-.31-.08-.42,0-.36.53-2.64,1.58-6.84,1.08-4.28,1.63-6.52,1.63-6.71.08-.42.13-.79.13-1.13,0-1-.35-1.5-1.04-1.5-.61,0-1.13.39-1.54,1.17-.42.78-.74,1.63-.96,2.54-.22.92-.39,1.42-.5,1.5-.06.06-.28.08-.67.08h-.58c-.17-.17-.25-.29-.25-.38Z"/>
    <path class="st1" d="M290.73,508.04c.03-.17.07-.39.13-.67.06-.28.22-.81.5-1.58.28-.78.56-1.43.83-1.96.28-.53.72-1.04,1.33-1.54.61-.5,1.22-.74,1.83-.71s1.21.13,1.79.29c.58.17,1,.42,1.25.75.25.33.47.64.67.92.19.28.31.54.33.79l.08.29c0,.06.01.08.04.08l.46-.46c1.67-1.78,3.63-2.67,5.88-2.67.47,0,.9.03,1.29.08.39.06.75.15,1.08.29.33.14.6.28.79.42.19.14.4.31.63.5.22.19.36.38.42.54.06.17.17.35.33.54.17.19.22.36.17.5-.06.14-.01.26.13.38.14.11.17.21.08.29l.33-.42c1.75-2.09,3.82-3.13,6.21-3.13,1.5,0,2.71.38,3.63,1.13.92.75,1.39,1.85,1.42,3.29,0,1.42-.53,3.61-1.58,6.59-1.06,2.97-1.58,4.75-1.58,5.34.03.39.1.65.21.79.11.14.32.21.63.21.78,0,1.5-.42,2.17-1.25.67-.83,1.21-1.97,1.63-3.42.08-.31.17-.49.25-.54.08-.06.31-.08.67-.08.56,0,.83.11.83.33,0,.03-.06.24-.17.63-.22.81-.53,1.6-.92,2.38-.39.78-1.03,1.56-1.92,2.34-.89.78-1.85,1.15-2.88,1.13-1.31,0-2.25-.38-2.84-1.13-.58-.75-.88-1.53-.88-2.34,0-.53.5-2.2,1.5-5,1-2.81,1.52-4.92,1.54-6.34,0-1.64-.61-2.46-1.83-2.46h-.21c-2.39,0-4.41,1.4-6.05,4.21l-.29.5-1.38,5.59c-.92,3.64-1.45,5.6-1.58,5.88-.36.75-.96,1.13-1.79,1.13-.36,0-.65-.1-.88-.29s-.38-.36-.46-.5c-.08-.14-.13-.28-.13-.42,0-.31.47-2.29,1.42-5.96l1.5-6.09c.08-.42.13-.95.13-1.58,0-1.64-.61-2.46-1.83-2.46h-.21c-2.39,0-4.41,1.4-6.05,4.21l-.29.5-1.38,5.59c-.92,3.64-1.45,5.6-1.58,5.88-.36.75-.96,1.13-1.79,1.13-.36,0-.65-.08-.88-.25s-.38-.33-.46-.5c-.08-.17-.11-.31-.08-.42,0-.36.53-2.64,1.58-6.84,1.08-4.28,1.63-6.52,1.63-6.71.08-.42.13-.79.13-1.13,0-1-.35-1.5-1.04-1.5-.61,0-1.13.39-1.54,1.17-.42.78-.74,1.63-.96,2.54-.22.92-.39,1.42-.5,1.5-.06.06-.28.08-.67.08h-.58c-.17-.17-.25-.29-.25-.38Z"/>
    <path d="M266.66,401.55c0,.92.35,1.38,1.04,1.38,1.03,0,1.9-1.46,2.63-4.38.17-.56.31-.85.42-.88.06-.03.19-.04.42-.04h.67c.08,0,.15.03.21.08.06.06.08.15.08.29-.03.17-.07.39-.13.67-.06.28-.21.81-.46,1.58-.25.78-.53,1.43-.83,1.96-.31.53-.74,1.04-1.29,1.54s-1.19.74-1.92.71c-1,0-1.93-.31-2.79-.92s-1.31-1.64-1.33-3.08c0-.33.01-.57.04-.71l2.71-10.75c1.75-7.08,2.63-10.74,2.63-10.96,0-.08-.01-.15-.04-.21-.03-.06-.08-.11-.17-.17-.08-.06-.15-.08-.21-.08s-.17-.01-.33-.04c-.17-.03-.28-.04-.33-.04s-.18-.01-.38-.04c-.19-.03-.33-.03-.42,0h-.54c-.08,0-.19-.01-.33-.04-.14-.03-.22-.07-.25-.13-.03-.06-.04-.14-.04-.25,0-.06.03-.25.08-.58.14-.53.29-.82.46-.88.17-.06,1.17-.14,3-.25.42-.03.89-.06,1.42-.08.53-.03.94-.07,1.25-.13.31-.06.46-.07.46-.04.33,0,.5.11.5.33,0,.31-1.01,4.47-3.04,12.5-2.03,8.03-3.07,12.24-3.13,12.63v.33c0,.17-.01.31-.04.42v.25Z"/>
    <path class="st4" d="M266.66,401.55c0,.92.35,1.38,1.04,1.38,1.03,0,1.9-1.46,2.63-4.38.17-.56.31-.85.42-.88.06-.03.19-.04.42-.04h.67c.08,0,.15.03.21.08.06.06.08.15.08.29-.03.17-.07.39-.13.67-.06.28-.21.81-.46,1.58-.25.78-.53,1.43-.83,1.96-.31.53-.74,1.04-1.29,1.54s-1.19.74-1.92.71c-1,0-1.93-.31-2.79-.92s-1.31-1.64-1.33-3.08c0-.33.01-.57.04-.71l2.71-10.75c1.75-7.08,2.63-10.74,2.63-10.96,0-.08-.01-.15-.04-.21-.03-.06-.08-.11-.17-.17-.08-.06-.15-.08-.21-.08s-.17-.01-.33-.04c-.17-.03-.28-.04-.33-.04s-.18-.01-.38-.04c-.19-.03-.33-.03-.42,0h-.54c-.08,0-.19-.01-.33-.04-.14-.03-.22-.07-.25-.13-.03-.06-.04-.14-.04-.25,0-.06.03-.25.08-.58.14-.53.29-.82.46-.88.17-.06,1.17-.14,3-.25.42-.03.89-.06,1.42-.08.53-.03.94-.07,1.25-.13.31-.06.46-.07.46-.04.33,0,.5.11.5.33,0,.31-1.01,4.47-3.04,12.5-2.03,8.03-3.07,12.24-3.13,12.63v.33c0,.17-.01.31-.04.42v.25Z"/>
    <path d="M606.03,559.85c-.47,0-.71-.14-.71-.42,0-.06.04-.25.13-.58.11-.44.22-.7.33-.75s.43-.1.96-.13c.75,0,1.58-.04,2.5-.13.39-.08.65-.25.79-.5.06-.14,1.04-4.05,2.96-11.72,1.92-7.67,2.89-11.57,2.92-11.68,0-.19-.06-.29-.17-.29-.22-.08-.96-.15-2.21-.21h-1.29c-.17-.17-.25-.28-.25-.33s.03-.29.08-.71c.11-.47.25-.76.42-.88h22.48c.19.11.29.26.29.46,0,.14-.18,1.7-.54,4.67-.36,2.97-.56,4.5-.58,4.59-.06.19-.33.29-.83.29h-.5c-.19-.14-.29-.32-.29-.54,0-.03.04-.36.13-1,.08-.64.13-1.38.13-2.21s-.1-1.52-.29-2.04c-.19-.53-.46-.96-.79-1.29-.33-.33-.85-.56-1.54-.67-.7-.11-1.4-.21-2.13-.29-.72-.08-1.72-.1-3-.04h-.96c-2.28.03-3.49.07-3.63.13-.14.06-.24.17-.29.33-.03.03-.5,1.85-1.42,5.46l-1.33,5.38h3.25c.56,0,.95-.01,1.17-.04.22-.03.53-.07.92-.13.39-.06.72-.15,1-.29.28-.14.51-.31.71-.5.36-.33.67-.79.92-1.38.25-.58.43-1.11.54-1.58.11-.47.18-.72.21-.75.08-.14.35-.21.79-.21h.5c.19.14.29.28.29.42,0,.08-.43,1.9-1.29,5.46s-1.33,5.39-1.42,5.5c-.06.19-.33.29-.83.29h-.5c-.19-.17-.29-.33-.29-.5,0-.08.07-.39.21-.92.14-.53.21-1.08.21-1.67,0-.81-.28-1.31-.83-1.5-.56-.19-1.79-.29-3.71-.29h-2.29l-1.33,5.3c-.89,3.45-1.33,5.25-1.33,5.42,0,.39,1.24.58,3.71.58h1.04c.17.17.25.26.25.29s-.03.31-.08.83c-.11.36-.25.63-.42.79h-.71c-1.14-.06-3.24-.08-6.3-.08h-4.13c-.95,0-1.47.01-1.58.04Z"/>
    <path class="st1" d="M606.03,559.85c-.47,0-.71-.14-.71-.42,0-.06.04-.25.13-.58.11-.44.22-.7.33-.75s.43-.1.96-.13c.75,0,1.58-.04,2.5-.13.39-.08.65-.25.79-.5.06-.14,1.04-4.05,2.96-11.72,1.92-7.67,2.89-11.57,2.92-11.68,0-.19-.06-.29-.17-.29-.22-.08-.96-.15-2.21-.21h-1.29c-.17-.17-.25-.28-.25-.33s.03-.29.08-.71c.11-.47.25-.76.42-.88h22.48c.19.11.29.26.29.46,0,.14-.18,1.7-.54,4.67-.36,2.97-.56,4.5-.58,4.59-.06.19-.33.29-.83.29h-.5c-.19-.14-.29-.32-.29-.54,0-.03.04-.36.13-1,.08-.64.13-1.38.13-2.21s-.1-1.52-.29-2.04c-.19-.53-.46-.96-.79-1.29-.33-.33-.85-.56-1.54-.67-.7-.11-1.4-.21-2.13-.29-.72-.08-1.72-.1-3-.04h-.96c-2.28.03-3.49.07-3.63.13-.14.06-.24.17-.29.33-.03.03-.5,1.85-1.42,5.46l-1.33,5.38h3.25c.56,0,.95-.01,1.17-.04.22-.03.53-.07.92-.13.39-.06.72-.15,1-.29.28-.14.51-.31.71-.5.36-.33.67-.79.92-1.38.25-.58.43-1.11.54-1.58.11-.47.18-.72.21-.75.08-.14.35-.21.79-.21h.5c.19.14.29.28.29.42,0,.08-.43,1.9-1.29,5.46s-1.33,5.39-1.42,5.5c-.06.19-.33.29-.83.29h-.5c-.19-.17-.29-.33-.29-.5,0-.08.07-.39.21-.92.14-.53.21-1.08.21-1.67,0-.81-.28-1.31-.83-1.5-.56-.19-1.79-.29-3.71-.29h-2.29l-1.33,5.3c-.89,3.45-1.33,5.25-1.33,5.42,0,.39,1.24.58,3.71.58h1.04c.17.17.25.26.25.29s-.03.31-.08.83c-.11.36-.25.63-.42.79h-.71c-1.14-.06-3.24-.08-6.3-.08h-4.13c-.95,0-1.47.01-1.58.04Z"/>
    <path d="M632.84,557.69c0-.28.15-.75.44-1.42.29-.67.77-1.37,1.42-2.09.65-.73,1.38-1.08,2.18-1.06.81,0,1.45.23,1.95.68.49.45.75,1.08.77,1.89-.04.37-.07.58-.09.62,0,.06-.16.51-.47,1.36-.31.85-.64,1.8-.97,2.86-.33,1.06-.49,1.91-.47,2.54,0,.85.14,1.43.41,1.77s.69.51,1.24.53c.45,0,.87-.11,1.27-.32s.7-.44.91-.68c.22-.24.48-.56.8-.97,0-.02.05-.22.15-.59.1-.37.24-.95.41-1.74s.36-1.51.56-2.18c.75-2.95,1.16-4.49,1.24-4.63.26-.53.68-.8,1.27-.8.26,0,.46.07.62.21.16.14.27.26.32.35.06.1.08.19.06.27,0,.26-.48,2.32-1.44,6.19-.96,3.87-1.51,5.99-1.65,6.37-.55,1.63-1.5,2.93-2.86,3.89s-2.71,1.45-4.07,1.47c-.88,0-1.66-.22-2.33-.65s-1-1.08-1-1.95c0-.43.07-.8.21-1.09.14-.29.32-.51.56-.65s.43-.24.59-.29c.16-.06.32-.09.5-.09.86,0,1.3.41,1.3,1.24,0,.39-.12.74-.35,1.03s-.46.49-.68.59c-.22.1-.34.15-.38.15l-.09.03c.04.1.23.22.56.35.33.14.67.21,1,.21h.24c.33,0,.59-.02.77-.06.65-.18,1.25-.55,1.8-1.12s.97-1.18,1.27-1.83c.29-.65.52-1.2.68-1.65.16-.45.24-.75.24-.88l-.18.12c-.12.08-.3.19-.56.32s-.51.26-.77.35c-.39.1-.78.15-1.15.15-.9,0-1.7-.22-2.39-.65-.69-.43-1.14-1.13-1.36-2.09-.02-.14-.03-.44-.03-.91,0-1.12.34-2.58,1.03-4.39.69-1.81,1.03-2.96,1.03-3.45v-.41c0-.06-.04-.13-.12-.21-.08-.08-.19-.12-.32-.12h-.12c-.45,0-.86.19-1.24.56s-.67.78-.88,1.21c-.22.43-.38.85-.5,1.24-.12.39-.2.61-.24.65-.04.04-.2.06-.47.06h-.41c-.12-.12-.18-.21-.18-.27Z"/>
    <path class="st7" d="M632.84,557.69c0-.28.15-.75.44-1.42.29-.67.77-1.37,1.42-2.09.65-.73,1.38-1.08,2.18-1.06.81,0,1.45.23,1.95.68.49.45.75,1.08.77,1.89-.04.37-.07.58-.09.62,0,.06-.16.51-.47,1.36-.31.85-.64,1.8-.97,2.86-.33,1.06-.49,1.91-.47,2.54,0,.85.14,1.43.41,1.77s.69.51,1.24.53c.45,0,.87-.11,1.27-.32s.7-.44.91-.68c.22-.24.48-.56.8-.97,0-.02.05-.22.15-.59.1-.37.24-.95.41-1.74s.36-1.51.56-2.18c.75-2.95,1.16-4.49,1.24-4.63.26-.53.68-.8,1.27-.8.26,0,.46.07.62.21.16.14.27.26.32.35.06.1.08.19.06.27,0,.26-.48,2.32-1.44,6.19-.96,3.87-1.51,5.99-1.65,6.37-.55,1.63-1.5,2.93-2.86,3.89s-2.71,1.45-4.07,1.47c-.88,0-1.66-.22-2.33-.65s-1-1.08-1-1.95c0-.43.07-.8.21-1.09.14-.29.32-.51.56-.65s.43-.24.59-.29c.16-.06.32-.09.5-.09.86,0,1.3.41,1.3,1.24,0,.39-.12.74-.35,1.03s-.46.49-.68.59c-.22.1-.34.15-.38.15l-.09.03c.04.1.23.22.56.35.33.14.67.21,1,.21h.24c.33,0,.59-.02.77-.06.65-.18,1.25-.55,1.8-1.12s.97-1.18,1.27-1.83c.29-.65.52-1.2.68-1.65.16-.45.24-.75.24-.88l-.18.12c-.12.08-.3.19-.56.32s-.51.26-.77.35c-.39.1-.78.15-1.15.15-.9,0-1.7-.22-2.39-.65-.69-.43-1.14-1.13-1.36-2.09-.02-.14-.03-.44-.03-.91,0-1.12.34-2.58,1.03-4.39.69-1.81,1.03-2.96,1.03-3.45v-.41c0-.06-.04-.13-.12-.21-.08-.08-.19-.12-.32-.12h-.12c-.45,0-.86.19-1.24.56s-.67.78-.88,1.21c-.22.43-.38.85-.5,1.24-.12.39-.2.61-.24.65-.04.04-.2.06-.47.06h-.41c-.12-.12-.18-.21-.18-.27Z"/>
    <line class="st11" x1="349.35" y1="587.09" x2="331.96" y2="621.86"/>
    <polygon points="324.02 637.76 326.66 619.21 337.27 624.51 324.02 637.76"/>
    <polygon class="st11" points="324.02 637.76 326.66 619.21 337.27 624.51 324.02 637.76"/>
    <path d="M337.58,650.52c-.47,0-.71-.14-.71-.42,0-.06.04-.25.13-.58.11-.44.22-.69.33-.75.11-.06.43-.1.96-.13.75,0,1.58-.04,2.5-.13.39-.08.65-.25.79-.5.06-.14,1.04-4.04,2.96-11.72,1.92-7.67,2.89-11.56,2.92-11.67,0-.19-.06-.29-.17-.29-.22-.08-.96-.15-2.21-.21h-1.29c-.17-.17-.25-.28-.25-.33s.03-.29.08-.71c.11-.47.25-.76.42-.88h22.47c.19.11.29.26.29.46,0,.14-.18,1.7-.54,4.67-.36,2.97-.56,4.5-.58,4.59-.06.19-.33.29-.83.29h-.5c-.19-.14-.29-.32-.29-.54,0-.03.04-.36.13-1,.08-.64.13-1.38.13-2.21s-.1-1.51-.29-2.04c-.19-.53-.46-.96-.79-1.29s-.85-.56-1.54-.67-1.4-.21-2.13-.29c-.72-.08-1.72-.1-3-.04h-.96c-2.28.03-3.49.07-3.63.13-.14.06-.24.17-.29.33-.03.03-.5,1.85-1.42,5.46l-1.33,5.38h3.25c.56,0,.95-.01,1.17-.04.22-.03.53-.07.92-.13.39-.06.72-.15,1-.29.28-.14.51-.31.71-.5.36-.33.67-.79.92-1.38.25-.58.43-1.11.54-1.58s.18-.72.21-.75c.08-.14.35-.21.79-.21h.5c.19.14.29.28.29.42,0,.08-.43,1.9-1.29,5.46-.86,3.56-1.33,5.39-1.42,5.5-.06.19-.33.29-.83.29h-.5c-.19-.17-.29-.33-.29-.5,0-.08.07-.39.21-.92.14-.53.21-1.08.21-1.67,0-.81-.28-1.31-.83-1.5-.56-.19-1.79-.29-3.71-.29h-2.29l-1.33,5.3c-.89,3.45-1.33,5.25-1.33,5.42,0,.39,1.24.58,3.71.58h1.04c.17.17.25.26.25.29s-.03.31-.08.83c-.11.36-.25.63-.42.79h-.71c-1.14-.06-3.24-.08-6.3-.08h-4.13c-.95,0-1.47.01-1.58.04Z"/>
    <path class="st1" d="M337.58,650.52c-.47,0-.71-.14-.71-.42,0-.06.04-.25.13-.58.11-.44.22-.69.33-.75.11-.06.43-.1.96-.13.75,0,1.58-.04,2.5-.13.39-.08.65-.25.79-.5.06-.14,1.04-4.04,2.96-11.72,1.92-7.67,2.89-11.56,2.92-11.67,0-.19-.06-.29-.17-.29-.22-.08-.96-.15-2.21-.21h-1.29c-.17-.17-.25-.28-.25-.33s.03-.29.08-.71c.11-.47.25-.76.42-.88h22.47c.19.11.29.26.29.46,0,.14-.18,1.7-.54,4.67-.36,2.97-.56,4.5-.58,4.59-.06.19-.33.29-.83.29h-.5c-.19-.14-.29-.32-.29-.54,0-.03.04-.36.13-1,.08-.64.13-1.38.13-2.21s-.1-1.51-.29-2.04c-.19-.53-.46-.96-.79-1.29s-.85-.56-1.54-.67-1.4-.21-2.13-.29c-.72-.08-1.72-.1-3-.04h-.96c-2.28.03-3.49.07-3.63.13-.14.06-.24.17-.29.33-.03.03-.5,1.85-1.42,5.46l-1.33,5.38h3.25c.56,0,.95-.01,1.17-.04.22-.03.53-.07.92-.13.39-.06.72-.15,1-.29.28-.14.51-.31.71-.5.36-.33.67-.79.92-1.38.25-.58.43-1.11.54-1.58s.18-.72.21-.75c.08-.14.35-.21.79-.21h.5c.19.14.29.28.29.42,0,.08-.43,1.9-1.29,5.46-.86,3.56-1.33,5.39-1.42,5.5-.06.19-.33.29-.83.29h-.5c-.19-.17-.29-.33-.29-.5,0-.08.07-.39.21-.92.14-.53.21-1.08.21-1.67,0-.81-.28-1.31-.83-1.5-.56-.19-1.79-.29-3.71-.29h-2.29l-1.33,5.3c-.89,3.45-1.33,5.25-1.33,5.42,0,.39,1.24.58,3.71.58h1.04c.17.17.25.26.25.29s-.03.31-.08.83c-.11.36-.25.63-.42.79h-.71c-1.14-.06-3.24-.08-6.3-.08h-4.13c-.95,0-1.47.01-1.58.04Z"/>
    <path d="M365.3,648.29c.14-.83.67-1.78,1.59-2.86.92-1.08,2.06-1.63,3.42-1.65.69,0,1.32.18,1.89.53.57.35.99.8,1.27,1.33.83-1.24,1.82-1.86,2.98-1.86.73,0,1.36.22,1.89.65.53.43.81,1.01.83,1.74,0,.57-.14,1.03-.41,1.39s-.54.57-.8.65-.48.12-.68.12c-.37,0-.68-.11-.91-.32-.24-.22-.35-.5-.35-.85,0-.9.49-1.52,1.47-1.86-.22-.26-.61-.38-1.18-.38-.26,0-.44.02-.56.06-.75.31-1.3.96-1.65,1.95-1.18,4.34-1.77,6.88-1.77,7.61,0,.55.16.94.47,1.18.31.24.66.35,1.03.35.73,0,1.44-.32,2.15-.97.71-.65,1.19-1.44,1.44-2.39.06-.2.12-.3.18-.32.06-.02.22-.04.47-.06h.12c.29,0,.44.08.44.24,0,.02-.02.13-.06.32-.31,1.12-.92,2.11-1.83,2.98-.9.86-1.96,1.3-3.15,1.3-1.38,0-2.42-.62-3.12-1.86-.81,1.22-1.73,1.83-2.77,1.83h-.18c-.96,0-1.65-.26-2.06-.77-.41-.51-.63-1.05-.65-1.62,0-.63.19-1.14.56-1.53.37-.39.82-.59,1.33-.59.85,0,1.27.41,1.27,1.24,0,.39-.12.74-.35,1.03-.24.29-.46.49-.68.59-.22.1-.34.15-.38.15l-.09.03s.06.06.18.12c.12.06.28.13.47.21.2.08.38.11.56.09.71,0,1.32-.44,1.83-1.33.18-.31.4-.98.68-2s.55-2.08.83-3.18c.28-1.1.43-1.75.47-1.95.1-.53.15-.91.15-1.15,0-.55-.15-.94-.44-1.18-.29-.24-.63-.35-1-.35-.79,0-1.52.31-2.21.94-.69.63-1.17,1.43-1.44,2.42-.04.18-.09.28-.15.29-.06.02-.22.04-.47.06h-.41c-.12-.12-.18-.23-.18-.32Z"/>
    <path class="st7" d="M365.3,648.29c.14-.83.67-1.78,1.59-2.86.92-1.08,2.06-1.63,3.42-1.65.69,0,1.32.18,1.89.53.57.35.99.8,1.27,1.33.83-1.24,1.82-1.86,2.98-1.86.73,0,1.36.22,1.89.65.53.43.81,1.01.83,1.74,0,.57-.14,1.03-.41,1.39s-.54.57-.8.65-.48.12-.68.12c-.37,0-.68-.11-.91-.32-.24-.22-.35-.5-.35-.85,0-.9.49-1.52,1.47-1.86-.22-.26-.61-.38-1.18-.38-.26,0-.44.02-.56.06-.75.31-1.3.96-1.65,1.95-1.18,4.34-1.77,6.88-1.77,7.61,0,.55.16.94.47,1.18.31.24.66.35,1.03.35.73,0,1.44-.32,2.15-.97.71-.65,1.19-1.44,1.44-2.39.06-.2.12-.3.18-.32.06-.02.22-.04.47-.06h.12c.29,0,.44.08.44.24,0,.02-.02.13-.06.32-.31,1.12-.92,2.11-1.83,2.98-.9.86-1.96,1.3-3.15,1.3-1.38,0-2.42-.62-3.12-1.86-.81,1.22-1.73,1.83-2.77,1.83h-.18c-.96,0-1.65-.26-2.06-.77-.41-.51-.63-1.05-.65-1.62,0-.63.19-1.14.56-1.53.37-.39.82-.59,1.33-.59.85,0,1.27.41,1.27,1.24,0,.39-.12.74-.35,1.03-.24.29-.46.49-.68.59-.22.1-.34.15-.38.15l-.09.03s.06.06.18.12c.12.06.28.13.47.21.2.08.38.11.56.09.71,0,1.32-.44,1.83-1.33.18-.31.4-.98.68-2s.55-2.08.83-3.18c.28-1.1.43-1.75.47-1.95.1-.53.15-.91.15-1.15,0-.55-.15-.94-.44-1.18-.29-.24-.63-.35-1-.35-.79,0-1.52.31-2.21.94-.69.63-1.17,1.43-1.44,2.42-.04.18-.09.28-.15.29-.06.02-.22.04-.47.06h-.41c-.12-.12-.18-.23-.18-.32Z"/>
    <path d="M140.46,53.52c-.64-2.2-1.68-3.29-3.13-3.29-.97,0-1.9.43-2.79,1.29-.89.86-1.58,1.99-2.08,3.38-.81,2.2-1.38,4.48-1.71,6.84v.46c0,.22-.01.39-.04.5,0,1.25.25,2.11.75,2.59.5.47,1.1.72,1.79.75,1.5,0,3.04-1,4.63-3l.33-.46,2.25-9.05ZM141.04,38.63s1.03-.07,3-.21,2.99-.22,3.04-.25c.33,0,.5.11.5.33,0,.19-1.01,4.39-3.04,12.59-2.03,8.2-3.07,12.38-3.13,12.55-.06.17-.07.38-.04.63,0,1.17.39,1.75,1.17,1.75.25-.03.53-.15.83-.38.58-.56,1.15-1.89,1.71-4,.17-.56.31-.85.42-.88.06-.03.19-.04.42-.04h.33c.42,0,.63.11.63.33,0,.14-.04.36-.13.67-.36,1.39-.78,2.52-1.25,3.38-.47.86-.86,1.42-1.17,1.67-.31.25-.69.47-1.17.67-.22.06-.56.08-1,.08-.95,0-1.74-.21-2.38-.63-.64-.42-1.06-.85-1.25-1.29l-.25-.63s-.08-.01-.17.04l-.17.17c-1.64,1.56-3.31,2.34-5,2.34-1.53,0-2.88-.56-4.04-1.67-1.17-1.11-1.75-2.88-1.75-5.3,0-1.33.28-2.7.83-4.09.56-1.39,1.22-2.59,2-3.59,1.31-1.58,2.61-2.68,3.92-3.29,1.31-.61,2.49-.92,3.54-.92,1.56,0,2.72.58,3.5,1.75.14.17.21.22.21.17.03-.11.4-1.63,1.13-4.54.72-2.92,1.11-4.46,1.17-4.63,0-.36-.1-.58-.29-.67-.19-.08-.74-.15-1.63-.21h-.88c-.17-.17-.25-.28-.25-.33s.03-.32.08-.79c.14-.53.32-.79.54-.79Z"/>
    <path class="st1" d="M140.46,53.52c-.64-2.2-1.68-3.29-3.13-3.29-.97,0-1.9.43-2.79,1.29-.89.86-1.58,1.99-2.08,3.38-.81,2.2-1.38,4.48-1.71,6.84v.46c0,.22-.01.39-.04.5,0,1.25.25,2.11.75,2.59.5.47,1.1.72,1.79.75,1.5,0,3.04-1,4.63-3l.33-.46,2.25-9.05ZM141.04,38.63s1.03-.07,3-.21,2.99-.22,3.04-.25c.33,0,.5.11.5.33,0,.19-1.01,4.39-3.04,12.59-2.03,8.2-3.07,12.38-3.13,12.55-.06.17-.07.38-.04.63,0,1.17.39,1.75,1.17,1.75.25-.03.53-.15.83-.38.58-.56,1.15-1.89,1.71-4,.17-.56.31-.85.42-.88.06-.03.19-.04.42-.04h.33c.42,0,.63.11.63.33,0,.14-.04.36-.13.67-.36,1.39-.78,2.52-1.25,3.38-.47.86-.86,1.42-1.17,1.67-.31.25-.69.47-1.17.67-.22.06-.56.08-1,.08-.95,0-1.74-.21-2.38-.63-.64-.42-1.06-.85-1.25-1.29l-.25-.63s-.08-.01-.17.04l-.17.17c-1.64,1.56-3.31,2.34-5,2.34-1.53,0-2.88-.56-4.04-1.67-1.17-1.11-1.75-2.88-1.75-5.3,0-1.33.28-2.7.83-4.09.56-1.39,1.22-2.59,2-3.59,1.31-1.58,2.61-2.68,3.92-3.29,1.31-.61,2.49-.92,3.54-.92,1.56,0,2.72.58,3.5,1.75.14.17.21.22.21.17.03-.11.4-1.63,1.13-4.54.72-2.92,1.11-4.46,1.17-4.63,0-.36-.1-.58-.29-.67-.19-.08-.74-.15-1.63-.21h-.88c-.17-.17-.25-.28-.25-.33s.03-.32.08-.79c.14-.53.32-.79.54-.79Z"/>
    <polygon points="344.38 242.65 342.13 262.2 355.66 247.91 344.38 242.65"/>
    <path class="st0" d="M386.5,513.61c.67,1.62-.67,3.7-3,4.67-1.11.46-2.31.6-3.33.38-1.02-.22-1.77-.78-2.09-1.56L210.11,111.58c-.67-1.62.67-3.7,2.99-4.67,2.33-.97,4.75-.44,5.42,1.18l167.97,405.51Z"/>
    <path class="st2" d="M386.5,513.61c.67,1.62-.67,3.7-3,4.67-1.11.46-2.31.6-3.33.38s-1.77-.78-2.09-1.56L210.11,111.58c-.67-1.62.67-3.7,2.99-4.67,2.33-.97,4.75-.44,5.42,1.18l167.97,405.51Z"/>
    <path class="st2" d="M378.08,517.09c-.32-.77-.19-1.7.38-2.57.56-.88,1.51-1.63,2.62-2.09,2.33-.97,4.76-.43,5.42,1.18"/>
    <path d="M393.35,516.42c0,.64-.06,1.28-.19,1.91-.13.63-.31,1.24-.56,1.83s-.55,1.16-.9,1.69c-.36.53-.76,1.03-1.22,1.48-.45.45-.95.86-1.48,1.22-.53.36-1.1.66-1.69.9-.59.25-1.2.43-1.83.56-.63.13-1.27.19-1.91.19s-1.28-.06-1.91-.19c-.63-.13-1.24-.31-1.83-.56-.59-.25-1.16-.55-1.69-.9-.53-.36-1.03-.76-1.48-1.22-.45-.45-.86-.95-1.22-1.48-.36-.53-.66-1.1-.9-1.69-.25-.59-.43-1.2-.56-1.83-.13-.63-.19-1.27-.19-1.91,0-.64.06-1.28.19-1.91.13-.63.31-1.24.56-1.83.25-.59.55-1.16.9-1.69.36-.53.76-1.03,1.22-1.48.45-.45.95-.86,1.48-1.22.53-.36,1.1-.66,1.69-.9.59-.25,1.2-.43,1.83-.56.63-.13,1.27-.19,1.91-.19s1.28.06,1.91.19c.63.13,1.24.31,1.83.56.59.25,1.16.55,1.69.9.53.36,1.03.76,1.48,1.22.45.45.86.95,1.22,1.48.36.53.66,1.1.9,1.69.25.59.43,1.2.56,1.83.13.63.19,1.27.19,1.91Z"/>
    <path class="st13" d="M393.35,516.42c0,.64-.06,1.28-.19,1.91-.13.63-.31,1.24-.56,1.83s-.55,1.16-.9,1.69c-.36.53-.76,1.03-1.22,1.48-.45.45-.95.86-1.48,1.22-.53.36-1.1.66-1.69.9-.59.25-1.2.43-1.83.56-.63.13-1.27.19-1.91.19s-1.28-.06-1.91-.19c-.63-.13-1.24-.31-1.83-.56-.59-.25-1.16-.55-1.69-.9-.53-.36-1.03-.76-1.48-1.22-.45-.45-.86-.95-1.22-1.48-.36-.53-.66-1.1-.9-1.69-.25-.59-.43-1.2-.56-1.83-.13-.63-.19-1.27-.19-1.91,0-.64.06-1.28.19-1.91.13-.63.31-1.24.56-1.83.25-.59.55-1.16.9-1.69.36-.53.76-1.03,1.22-1.48.45-.45.95-.86,1.48-1.22.53-.36,1.1-.66,1.69-.9.59-.25,1.2-.43,1.83-.56.63-.13,1.27-.19,1.91-.19s1.28.06,1.91.19c.63.13,1.24.31,1.83.56.59.25,1.16.55,1.69.9.53.36,1.03.76,1.48,1.22.45.45.86.95,1.22,1.48.36.53.66,1.1.9,1.69.25.59.43,1.2.56,1.83.13.63.19,1.27.19,1.91Z"/>
    <path class="st14" d="M227.34,104.96c.17.95.24,1.9.22,2.87-.02.96-.14,1.91-.34,2.85-.21.94-.51,1.85-.89,2.73s-.86,1.72-1.41,2.51c-.55.79-1.18,1.52-1.87,2.18-.7.67-1.45,1.26-2.26,1.78-.81.52-1.67.95-2.56,1.3-.9.35-1.82.61-2.77.77-.95.17-1.9.24-2.87.22-.96-.02-1.91-.14-2.85-.34-.94-.21-1.85-.51-2.73-.89-.88-.39-1.72-.86-2.51-1.41-.79-.55-1.52-1.18-2.18-1.87-.67-.7-1.26-1.45-1.78-2.26-.52-.81-.95-1.67-1.3-2.56-.35-.9-.61-1.82-.77-2.77-.17-.95-.24-1.9-.22-2.87.02-.96.14-1.91.34-2.85.21-.94.51-1.85.89-2.73.39-.88.86-1.72,1.41-2.51.55-.79,1.18-1.52,1.87-2.18s1.45-1.26,2.26-1.78c.81-.52,1.67-.95,2.56-1.3.9-.35,1.82-.61,2.77-.77.95-.17,1.9-.24,2.87-.22.96.02,1.91.14,2.85.34.94.21,1.85.51,2.73.89.88.39,1.72.86,2.51,1.41.79.55,1.52,1.18,2.18,1.87.67.7,1.26,1.45,1.78,2.26.52.81.95,1.67,1.3,2.56.35.9.61,1.82.77,2.77Z"/>
    <path class="st3" d="M227.34,104.96c.17.95.24,1.9.22,2.87-.02.96-.14,1.91-.34,2.85-.21.94-.51,1.85-.89,2.73-.39.88-.86,1.72-1.41,2.51-.55.79-1.18,1.52-1.87,2.18-.7.67-1.45,1.26-2.26,1.78-.81.52-1.67.95-2.56,1.3-.9.35-1.82.61-2.77.77-.95.17-1.9.24-2.87.22-.96-.02-1.91-.14-2.85-.34-.94-.21-1.85-.51-2.73-.89-.88-.39-1.72-.86-2.51-1.41-.79-.55-1.52-1.18-2.18-1.87-.67-.7-1.26-1.45-1.78-2.26-.52-.81-.95-1.67-1.3-2.56-.35-.9-.61-1.82-.77-2.77-.17-.95-.24-1.9-.22-2.87.02-.96.14-1.91.34-2.85.21-.94.51-1.85.89-2.73.39-.88.86-1.72,1.41-2.51.55-.79,1.18-1.52,1.87-2.18s1.45-1.26,2.26-1.78c.81-.52,1.67-.95,2.56-1.3.9-.35,1.82-.61,2.77-.77.95-.17,1.9-.24,2.87-.22.96.02,1.91.14,2.85.34.94.21,1.85.51,2.73.89.88.39,1.72.86,2.51,1.41s1.52,1.18,2.18,1.87c.67.7,1.26,1.45,1.78,2.26.52.81.95,1.67,1.3,2.56.35.9.61,1.82.77,2.77Z"/>
    <path d="M269.86,237.85c.34.24.62.53.84.88.22.35.37.72.44,1.13.07.41.06.81-.03,1.21-.09.4-.25.77-.49,1.11-.24.34-.53.62-.88.84-.35.22-.73.37-1.13.44-.41.07-.81.06-1.21-.03-.4-.09-.77-.25-1.11-.49-.34-.24-.62-.53-.84-.88-.22-.35-.37-.73-.44-1.13-.07-.41-.06-.81.03-1.21.09-.4.25-.77.49-1.11.24-.34.53-.62.88-.84.35-.22.73-.37,1.13-.44.41-.07.81-.06,1.21.03.4.09.77.25,1.11.49Z"/>
    <path class="st10" d="M269.86,237.85c.34.24.62.53.84.88.22.35.37.72.44,1.13.07.41.06.81-.03,1.21-.09.4-.25.77-.49,1.11-.24.34-.53.62-.88.84-.35.22-.73.37-1.13.44-.41.07-.81.06-1.21-.03-.4-.09-.77-.25-1.11-.49-.34-.24-.62-.53-.84-.88-.22-.35-.37-.73-.44-1.13-.07-.41-.06-.81.03-1.21.09-.4.25-.77.49-1.11.24-.34.53-.62.88-.84.35-.22.73-.37,1.13-.44.41-.07.81-.06,1.21.03.4.09.77.25,1.11.49Z"/>
    <path d="M137.36,208.84c-.47,0-.71-.13-.71-.38,0-.06.04-.25.13-.58.14-.53.28-.82.42-.88.08-.03.29-.04.63-.04h.25c1.67,0,2.72-.1,3.17-.29.03,0,.06-.01.08-.04.14-.06.29-.38.46-.96s.85-3.31,2.04-8.17c.33-1.25.58-2.24.75-2.96,1.95-7.78,2.92-11.7,2.92-11.76-.06-.11-.08-.18-.08-.21-.28-.17-1.26-.25-2.96-.25h-.83c-.25-.17-.31-.51-.17-1.04.11-.42.19-.67.25-.75.06-.08.25-.13.58-.13h.17c2,.06,4.03.08,6.09.08,3.39,0,5.17-.03,5.34-.08h.42c.19.19.29.35.29.46s-.04.35-.13.71c-.08.36-.18.58-.29.67-.08.06-.4.08-.96.08-.86,0-1.75.04-2.67.13-.39.08-.65.24-.79.46-.19.39-.9,3.04-2.13,7.96-.31,1.31-.61,2.57-.92,3.79-1.95,7.67-2.92,11.59-2.92,11.76,0,.19.14.32.42.38.28.06,1,.11,2.17.17h1.33c.17.22.25.35.25.38s-.04.28-.13.75c-.11.36-.25.63-.42.79h-.67c-1.03-.06-2.93-.08-5.71-.08h-4.75c-.5,0-.81.01-.92.04Z"/>
    <path class="st1" d="M137.36,208.84c-.47,0-.71-.13-.71-.38,0-.06.04-.25.13-.58.14-.53.28-.82.42-.88.08-.03.29-.04.63-.04h.25c1.67,0,2.72-.1,3.17-.29.03,0,.06-.01.08-.04.14-.06.29-.38.46-.96s.85-3.31,2.04-8.17c.33-1.25.58-2.24.75-2.96,1.95-7.78,2.92-11.7,2.92-11.76-.06-.11-.08-.18-.08-.21-.28-.17-1.26-.25-2.96-.25h-.83c-.25-.17-.31-.51-.17-1.04.11-.42.19-.67.25-.75.06-.08.25-.13.58-.13h.17c2,.06,4.03.08,6.09.08,3.39,0,5.17-.03,5.34-.08h.42c.19.19.29.35.29.46s-.04.35-.13.71c-.08.36-.18.58-.29.67-.08.06-.4.08-.96.08-.86,0-1.75.04-2.67.13-.39.08-.65.24-.79.46-.19.39-.9,3.04-2.13,7.96-.31,1.31-.61,2.57-.92,3.79-1.95,7.67-2.92,11.59-2.92,11.76,0,.19.14.32.42.38.28.06,1,.11,2.17.17h1.33c.17.22.25.35.25.38s-.04.28-.13.75c-.11.36-.25.63-.42.79h-.67c-1.03-.06-2.93-.08-5.71-.08h-4.75c-.5,0-.81.01-.92.04Z"/>
    <path d="M159.84,207.42v-1.04c0-.69.22-1.29.67-1.79.44-.5,1.04-.75,1.79-.75s1.47.35,2.09,1.04c.61.7.93,1.92.96,3.67,0,.97-.13,1.92-.38,2.84s-.54,1.71-.88,2.38c-.33.67-.7,1.24-1.08,1.71-.39.47-.72.85-1,1.13s-.46.4-.54.38c-.11,0-.29-.13-.54-.38-.25-.25-.38-.43-.38-.54s.15-.33.46-.67.65-.75,1.04-1.25c.39-.5.75-1.2,1.08-2.08s.56-1.9.67-3.04v-.5l-.04.04c-.06.03-.13.06-.21.08-.08.03-.17.07-.25.13-.08.06-.21.08-.38.08s-.33.01-.5.04c-.75,0-1.36-.24-1.83-.71l-.75-.75Z"/>
    <path class="st1" d="M159.84,207.42v-1.04c0-.69.22-1.29.67-1.79.44-.5,1.04-.75,1.79-.75s1.47.35,2.09,1.04c.61.7.93,1.92.96,3.67,0,.97-.13,1.92-.38,2.84s-.54,1.71-.88,2.38c-.33.67-.7,1.24-1.08,1.71-.39.47-.72.85-1,1.13s-.46.4-.54.38c-.11,0-.29-.13-.54-.38-.25-.25-.38-.43-.38-.54s.15-.33.46-.67.65-.75,1.04-1.25c.39-.5.75-1.2,1.08-2.08s.56-1.9.67-3.04v-.5l-.04.04c-.06.03-.13.06-.21.08-.08.03-.17.07-.25.13-.08.06-.21.08-.38.08s-.33.01-.5.04c-.75,0-1.36-.24-1.83-.71l-.75-.75Z"/>
    <path d="M187.18,182.65c0-.17-.79-.28-2.38-.33-.67,0-1.1-.01-1.29-.04-.19-.03-.29-.17-.29-.42,0-.03.03-.18.08-.46.03-.08.06-.18.08-.29.03-.11.04-.18.04-.21s.03-.1.08-.21c.06-.11.08-.15.08-.13s.06,0,.17-.08c.11-.08.18-.11.21-.08s.14.03.33,0c.19-.03.36-.04.5-.04h1.25c.67,0,1.29.01,1.88.04h3.79c.33,0,.56.07.67.21.03.11.54,4.03,1.54,11.76l1.5,11.63.96-1.54c.67-1,1.56-2.39,2.67-4.17,1.11-1.78,2.34-3.73,3.67-5.84,4.87-7.76,7.33-11.66,7.38-11.72l.13-.13c.06-.06.11-.1.17-.13l.25-.08h5.67c.64,0,1.04-.01,1.21-.04.95,0,1.42.15,1.42.46,0,.14-.04.38-.13.71-.08.33-.13.51-.13.54-.11.17-.63.25-1.54.25-1.11.03-1.82.07-2.13.13-.31.06-.56.21-.75.46-.08.14-1.08,4.07-3,11.8s-2.89,11.63-2.92,11.72c0,.11.01.18.04.21.03.03.13.08.29.17.17.08.4.11.71.08s.76,0,1.38.08h1.29c.17.25.25.4.25.46,0,.44-.1.86-.29,1.25-.14.14-.36.21-.67.21-.14,0-.71-.01-1.71-.04-1-.03-2.28-.04-3.84-.04h-3.84c-.86,0-1.35.01-1.46.04-.47,0-.71-.14-.71-.42,0-.06.03-.25.08-.58.11-.44.22-.7.33-.75s.43-.1.96-.13c.75,0,1.58-.04,2.5-.13.39-.08.65-.25.79-.5.06-.11.58-2.14,1.58-6.09,1-3.95,1.99-7.88,2.96-11.8.97-3.92,1.46-5.88,1.46-5.88l-8.09,12.89c-5.45,8.67-8.24,13.08-8.38,13.22-.06.03-.11.06-.17.08-.14.08-.36.13-.67.13-.42,0-.67-.1-.75-.29-.06-.11-.63-4.42-1.71-12.93l-1.63-12.8-2.84,11.26c-1.86,7.39-2.79,11.22-2.79,11.47.17.92,1.17,1.38,3,1.38h.42c.17.14.26.26.29.38.03.11-.01.36-.13.75-.11.44-.22.69-.33.75-.11.03-.26.04-.46.04h-.5c-.28,0-.75-.01-1.42-.04s-1.56-.04-2.67-.04c-.83,0-1.7.01-2.59.04-.89.03-1.4.04-1.54.04-.42,0-.68-.03-.79-.08-.11-.06-.17-.18-.17-.38,0-.06.04-.25.13-.58s.15-.54.21-.63c.06-.17.36-.25.92-.25,1.95,0,3.18-.56,3.71-1.67.11-.17,1.07-3.89,2.88-11.18,1.81-7.28,2.72-11.11,2.75-11.47Z"/>
    <path class="st1" d="M187.18,182.65c0-.17-.79-.28-2.38-.33-.67,0-1.1-.01-1.29-.04-.19-.03-.29-.17-.29-.42,0-.03.03-.18.08-.46.03-.08.06-.18.08-.29.03-.11.04-.18.04-.21s.03-.1.08-.21c.06-.11.08-.15.08-.13s.06,0,.17-.08c.11-.08.18-.11.21-.08s.14.03.33,0c.19-.03.36-.04.5-.04h1.25c.67,0,1.29.01,1.88.04h3.79c.33,0,.56.07.67.21.03.11.54,4.03,1.54,11.76l1.5,11.63.96-1.54c.67-1,1.56-2.39,2.67-4.17,1.11-1.78,2.34-3.73,3.67-5.84,4.87-7.76,7.33-11.66,7.38-11.72l.13-.13c.06-.06.11-.1.17-.13l.25-.08h5.67c.64,0,1.04-.01,1.21-.04.95,0,1.42.15,1.42.46,0,.14-.04.38-.13.71-.08.33-.13.51-.13.54-.11.17-.63.25-1.54.25-1.11.03-1.82.07-2.13.13-.31.06-.56.21-.75.46-.08.14-1.08,4.07-3,11.8s-2.89,11.63-2.92,11.72c0,.11.01.18.04.21.03.03.13.08.29.17.17.08.4.11.71.08s.76,0,1.38.08h1.29c.17.25.25.4.25.46,0,.44-.1.86-.29,1.25-.14.14-.36.21-.67.21-.14,0-.71-.01-1.71-.04-1-.03-2.28-.04-3.84-.04h-3.84c-.86,0-1.35.01-1.46.04-.47,0-.71-.14-.71-.42,0-.06.03-.25.08-.58.11-.44.22-.7.33-.75s.43-.1.96-.13c.75,0,1.58-.04,2.5-.13.39-.08.65-.25.79-.5.06-.11.58-2.14,1.58-6.09,1-3.95,1.99-7.88,2.96-11.8.97-3.92,1.46-5.88,1.46-5.88l-8.09,12.89c-5.45,8.67-8.24,13.08-8.38,13.22-.06.03-.11.06-.17.08-.14.08-.36.13-.67.13-.42,0-.67-.1-.75-.29-.06-.11-.63-4.42-1.71-12.93l-1.63-12.8-2.84,11.26c-1.86,7.39-2.79,11.22-2.79,11.47.17.92,1.17,1.38,3,1.38h.42c.17.14.26.26.29.38.03.11-.01.36-.13.75-.11.44-.22.69-.33.75-.11.03-.26.04-.46.04h-.5c-.28,0-.75-.01-1.42-.04s-1.56-.04-2.67-.04c-.83,0-1.7.01-2.59.04-.89.03-1.4.04-1.54.04-.42,0-.68-.03-.79-.08-.11-.06-.17-.18-.17-.38,0-.06.04-.25.13-.58s.15-.54.21-.63c.06-.17.36-.25.92-.25,1.95,0,3.18-.56,3.71-1.67.11-.17,1.07-3.89,2.88-11.18,1.81-7.28,2.72-11.11,2.75-11.47Z"/>
    <path class="st11" d="M269.85,240.4c-61.38,0-92.07-7.41-92.07-22.22"/>
    <path class="st8" d="M299.82,289.58c11.81-10.6,27.72-14.99,44.43-12.26"/>
    <polygon points="310.1 288.46 292.5 297.26 301.3 279.66 310.1 288.46"/>
    <path class="st16" d="M239.21,616.68c-14.97,4.01-32.02-11-38.05-33.52-2.9-10.82-2.82-21.96.22-30.97,3.03-9.01,8.78-15.15,15.97-17.08l14.45-3.87c14.97-4.01,32.01,11,38.04,33.52,6.03,22.52-1.21,44.04-16.19,48.05l-14.45,3.87Z"/>
    <path class="st2" d="M239.21,616.68c-14.97,4.01-32.02-11-38.05-33.52-2.9-10.82-2.82-21.96.22-30.97,3.03-9.01,8.78-15.15,15.97-17.08l14.45-3.87c14.97-4.01,32.01,11,38.04,33.52,6.03,22.52-1.21,44.04-16.19,48.05l-14.45,3.87Z"/>
    <path class="st2" d="M217.35,535.11c14.98-4.01,32.02,11,38.05,33.52,6.03,22.52-1.21,44.04-16.2,48.05"/>
    <path d="M232.1,593.68c-5.62,1.51-12.25-4.96-14.79-14.44-1.22-4.56-1.32-9.21-.27-12.94,1.04-3.73,3.15-6.24,5.85-6.96,5.62-1.51,12.23,4.96,14.78,14.45,2.54,9.48.05,18.39-5.57,19.9Z"/>
    <path class="st12" d="M232.1,593.68c-5.62,1.51-12.25-4.96-14.79-14.44-1.22-4.56-1.32-9.21-.27-12.94,1.04-3.73,3.15-6.24,5.85-6.96,5.62-1.51,12.23,4.96,14.78,14.45,2.54,9.48.05,18.39-5.57,19.9Z"/>
    <path class="st12" d="M222.9,559.33c5.62-1.51,12.23,4.96,14.78,14.45,2.54,9.48.05,18.39-5.57,19.9"/>
    <path class="st16" d="M550.56,535.11c14.97,4.01,22.23,25.53,16.2,48.05-2.9,10.82-8.54,20.43-15.68,26.71-7.13,6.29-15.18,8.73-22.37,6.81l-14.45-3.87c-14.97-4.01-22.22-25.53-16.19-48.05,6.03-22.52,23.07-37.53,38.04-33.52l14.45,3.87Z"/>
    <path class="st2" d="M550.56,535.11c14.97,4.01,22.23,25.53,16.2,48.05-2.9,10.82-8.54,20.43-15.68,26.71-7.13,6.29-15.18,8.73-22.37,6.81l-14.45-3.87c-14.97-4.01-22.22-25.53-16.19-48.05s23.07-37.53,38.04-33.52l14.45,3.87Z"/>
    <path class="st2" d="M528.7,616.68c-14.98-4.01-22.23-25.53-16.2-48.05,6.03-22.52,23.07-37.53,38.05-33.52"/>
    <path d="M534.92,593.68c-5.62-1.51-8.12-10.42-5.58-19.9,1.22-4.56,3.46-8.63,6.24-11.34,2.77-2.71,5.85-3.83,8.54-3.1,5.62,1.51,8.12,10.41,5.57,19.9-2.54,9.48-9.15,15.95-14.78,14.45Z"/>
    <path class="st12" d="M534.92,593.68c-5.62-1.51-8.12-10.42-5.58-19.9,1.22-4.56,3.46-8.63,6.24-11.34,2.77-2.71,5.85-3.83,8.54-3.1,5.62,1.51,8.12,10.41,5.57,19.9-2.54,9.48-9.15,15.95-14.78,14.45Z"/>
    <path class="st12" d="M544.12,559.33c5.62,1.51,8.12,10.41,5.57,19.9-2.54,9.48-9.15,15.95-14.78,14.45"/>
    <line class="st11" x1="384.02" y1="516.86" x2="485.53" y2="627.6"/>
    <polygon points="499.34 642.68 480.51 632.21 490.55 623 499.34 642.68"/>
    <polygon class="st11" points="499.34 642.68 480.51 632.21 490.55 623 499.34 642.68"/>
    <line class="st11" x1="344.2" y1="516.2" x2="242.16" y2="270.51"/>
    <polygon points="349.65 529.33 339.82 518.01 348.58 514.38 349.65 529.33"/>
    <polygon class="st11" points="349.65 529.33 339.82 518.01 348.58 514.38 349.65 529.33"/>
    <polygon points="236.71 257.38 246.54 268.7 237.79 272.33 236.71 257.38"/>
    <polygon class="st11" points="236.71 257.38 246.54 268.7 237.79 272.33 236.71 257.38"/>
    <line class="st11" x1="268.46" y1="240.4" x2="223.12" y2="258.18"/>
    <line class="st11" x1="384.02" y1="516.86" x2="338.24" y2="537.31"/>
    <line class="st11" x1="563.59" y1="516.82" x2="600.61" y2="516.82"/>
    <polygon points="618.39 516.82 600.61 522.75 600.61 510.89 618.39 516.82"/>
    <polygon class="st11" points="618.39 516.82 600.61 522.75 600.61 510.89 618.39 516.82"/>
    <path d="M218.99,124.97l-1.57-3.79,1.64-.68,1.57,3.79M235.36,164.37l-8.19-19.7,1.64-.68,8.19,19.7M251.74,203.77l-8.19-19.7,1.64-.68,8.19,19.7M268.12,243.17l-8.19-19.7,1.64-.68,8.19,19.7M284.49,282.58l-8.19-19.7,1.64-.68,8.19,19.7M300.87,321.98l-8.19-19.7,1.64-.68,8.19,19.7M317.25,361.38l-8.19-19.7,1.64-.68,8.19,19.7M333.62,400.78l-8.19-19.7,1.64-.68,8.19,19.7M350,440.18l-8.19-19.7,1.64-.68,8.19,19.7M366.38,479.58l-8.19-19.7,1.64-.68,8.19,19.7M382.75,518.98l-8.19-19.7,1.64-.68,8.19,19.7"/>
    <line class="st9" x1="383.57" y1="526.2" x2="383.57" y2="29.49"/>
    <polygon points="383.57 14.38 388.61 29.49 378.53 29.49 383.57 14.38"/>
    <polygon class="st9" points="383.57 14.38 388.61 29.49 378.53 29.49 383.57 14.38"/>
    <path d="M312.83,95.63l-1.25-7.54,1.75-.29,1.25,7.54M319.82,137.73l-3.49-21.05,1.75-.29,3.49,21.05M326.81,179.82l-3.49-21.05,1.75-.29,3.49,21.05M333.79,221.91l-3.49-21.05,1.75-.29,3.49,21.05M340.78,264.01l-3.49-21.05,1.75-.29,3.49,21.05M347.77,306.1l-3.49-21.05,1.75-.29,3.49,21.05M354.75,348.19l-3.49-21.05,1.75-.29,3.49,21.05M361.74,390.29l-3.49-21.05,1.75-.29,3.49,21.05M368.72,432.38l-3.49-21.05,1.75-.29,3.49,21.05M375.71,474.47l-3.49-21.05,1.75-.29,3.49,21.05M382.7,516.57l-3.49-21.05,1.75-.29,3.49,21.05"/>
    <path d="M369.73,546.09l-9.54,19.08-1.59-.8,9.54-19.08M388.81,507.93l-9.54,19.08-1.59-.8,9.54-19.08"/>
    <path d="M544.47,515.53h6.22v1.78h-6.22M501.8,515.53h21.33v1.78h-21.33M459.13,515.53h21.33v1.78h-21.33M416.47,515.53h21.33v1.78h-21.33M373.8,515.53h21.33v1.78h-21.33"/>
    <line class="st9" x1="384.46" y1="527.09" x2="384.46" y2="34.83"/>
    <polygon points="384.46 15.27 390.98 34.83 377.95 34.83 384.46 15.27"/>
    <polygon class="st9" points="384.46 15.27 390.98 34.83 377.95 34.83 384.46 15.27"/>
    <path d="M215.26,103.06c.53.37.97.83,1.32,1.38.35.55.58,1.14.69,1.78.11.64.1,1.27-.04,1.91-.14.63-.4,1.22-.77,1.75-.37.53-.83.97-1.38,1.32-.55.35-1.14.58-1.78.69-.64.11-1.27.1-1.91-.04-.63-.14-1.21-.4-1.75-.77-.53-.37-.97-.83-1.32-1.38-.35-.55-.58-1.14-.69-1.78-.11-.64-.1-1.27.04-1.91.14-.63.4-1.21.77-1.75.37-.53.83-.97,1.38-1.32.55-.35,1.14-.58,1.78-.69.64-.11,1.27-.1,1.91.04.63.14,1.22.4,1.75.77Z"/>
    <path class="st10" d="M215.26,103.06c.53.37.97.83,1.32,1.38.35.55.58,1.14.69,1.78.11.64.1,1.27-.04,1.91-.14.63-.4,1.22-.77,1.75-.37.53-.83.97-1.38,1.32-.55.35-1.14.58-1.78.69-.64.11-1.27.1-1.91-.04-.63-.14-1.21-.4-1.75-.77-.53-.37-.97-.83-1.32-1.38-.35-.55-.58-1.14-.69-1.78-.11-.64-.1-1.27.04-1.91s.4-1.21.77-1.75c.37-.53.83-.97,1.38-1.32.55-.35,1.14-.58,1.78-.69.64-.11,1.27-.1,1.91.04.63.14,1.21.4,1.75.77Z"/>
    <line class="st11" x1="155.56" y1="67.95" x2="181.9" y2="85.68"/>
    <polygon points="196.65 95.62 178.59 90.6 185.21 80.77 196.65 95.62"/>
    <polygon class="st11" points="196.65 95.62 178.59 90.6 185.21 80.77 196.65 95.62"/>
    <path d="M33.04,549.35c-.5-.08-2.29-.13-5.38-.13-2.64,0-4.17.04-4.59.13h-.33v-1.92h.71c2.47-.11,4.16-.7,5.05-1.75.11-.17,1.27-1.95,3.46-5.34,2.2-3.39,3.31-5.1,3.34-5.13,0-.06-1.24-2.02-3.71-5.88-2.47-3.86-3.75-5.84-3.84-5.92-.28-.25-.61-.42-1-.5-.39-.08-1.25-.13-2.59-.13h-.83v-1.92h.38c.5.08,2.25.13,5.25.13,3.48,0,5.51-.04,6.09-.13h.46v1.92h-.21c-.47,0-1,.07-1.58.21-.58.14-.9.29-.96.46,0,.08.82,1.42,2.46,4,1.64,2.59,2.5,3.89,2.59,3.92.03,0,.76-1.11,2.21-3.34,1.45-2.22,2.17-3.36,2.17-3.42.03-.06.04-.14.04-.25,0-.33-.18-.65-.54-.96-.36-.31-.93-.51-1.71-.63h-.33v-1.92h.38c.5.08,2.29.13,5.38.13,2.64,0,4.17-.04,4.59-.13h.33v1.92h-.71c-2.28.08-3.89.61-4.84,1.58-.08.08-1.1,1.58-3.04,4.5-1.84,2.86-2.75,4.31-2.75,4.34,0,.06,1.42,2.31,4.25,6.76,2.84,4.45,4.31,6.71,4.42,6.8.22.25.53.42.92.5.39.08,1.13.14,2.21.17h1.29v1.92h-.38c-.5-.08-2.25-.13-5.25-.13-3.48,0-5.51.04-6.09.13h-.46v-1.92h.25c.39,0,.89-.07,1.5-.21.61-.14.93-.32.96-.54,0-.08-.5-.92-1.5-2.5-1-1.58-2.02-3.17-3.04-4.75l-1.54-2.38-.13.13c-.06.06-.15.18-.29.38-.14.19-.31.44-.5.75-.19.31-.46.71-.79,1.21-.33.5-.7,1.07-1.08,1.71-1.86,2.97-2.81,4.52-2.84,4.63,0,.39.22.74.67,1.04.44.31.97.49,1.58.54h.33v1.92h-.42Z"/>
    <path class="st1" d="M33.04,549.35c-.5-.08-2.29-.13-5.38-.13-2.64,0-4.17.04-4.59.13h-.33v-1.92h.71c2.47-.11,4.16-.7,5.05-1.75.11-.17,1.27-1.95,3.46-5.34,2.2-3.39,3.31-5.1,3.34-5.13,0-.06-1.24-2.02-3.71-5.88-2.47-3.86-3.75-5.84-3.84-5.92-.28-.25-.61-.42-1-.5-.39-.08-1.25-.13-2.59-.13h-.83v-1.92h.38c.5.08,2.25.13,5.25.13,3.48,0,5.51-.04,6.09-.13h.46v1.92h-.21c-.47,0-1,.07-1.58.21-.58.14-.9.29-.96.46,0,.08.82,1.42,2.46,4,1.64,2.59,2.5,3.89,2.59,3.92.03,0,.76-1.11,2.21-3.34,1.45-2.22,2.17-3.36,2.17-3.42.03-.06.04-.14.04-.25,0-.33-.18-.65-.54-.96-.36-.31-.93-.51-1.71-.63h-.33v-1.92h.38c.5.08,2.29.13,5.38.13,2.64,0,4.17-.04,4.59-.13h.33v1.92h-.71c-2.28.08-3.89.61-4.84,1.58-.08.08-1.1,1.58-3.04,4.5-1.84,2.86-2.75,4.31-2.75,4.34,0,.06,1.42,2.31,4.25,6.76,2.84,4.45,4.31,6.71,4.42,6.8.22.25.53.42.92.5.39.08,1.13.14,2.21.17h1.29v1.92h-.38c-.5-.08-2.25-.13-5.25-.13-3.48,0-5.51.04-6.09.13h-.46v-1.92h.25c.39,0,.89-.07,1.5-.21.61-.14.93-.32.96-.54,0-.08-.5-.92-1.5-2.5-1-1.58-2.02-3.17-3.04-4.75l-1.54-2.38-.13.13c-.06.06-.15.18-.29.38-.14.19-.31.44-.5.75-.19.31-.46.71-.79,1.21-.33.5-.7,1.07-1.08,1.71-1.86,2.97-2.81,4.52-2.84,4.63,0,.39.22.74.67,1.04.44.31.97.49,1.58.54h.33v1.92h-.42Z"/>
    <path d="M63.9,538c-.59-.63-1.29-.94-2.09-.94s-1.53.31-2.12.94c-.49.51-.82,1.22-.97,2.12-.16.9-.24,2.79-.24,5.66,0,3.11.08,5.15.24,6.13.16.98.51,1.76,1.06,2.33.55.59,1.23.88,2.03.88s1.45-.29,2.01-.88c.57-.59.92-1.42,1.06-2.48.14-1.06.22-3.06.24-5.99,0-2.85-.08-4.73-.24-5.63-.16-.9-.48-1.62-.97-2.15ZM57.27,538.36c1.1-1.59,2.6-2.39,4.51-2.39.94,0,1.89.26,2.83.77.94.51,1.71,1.42,2.3,2.71.73,1.63,1.09,3.87,1.09,6.72,0,3.05-.42,5.38-1.27,6.99-.39.83-.93,1.48-1.62,1.98-.69.49-1.29.8-1.8.91-.51.12-1.01.19-1.5.21-.51,0-1.02-.06-1.53-.18s-1.11-.43-1.8-.94c-.69-.51-1.23-1.17-1.62-1.98-.85-1.61-1.27-3.94-1.27-6.99,0-3.42.56-6.02,1.68-7.81Z"/>
    <path class="st7" d="M63.9,538c-.59-.63-1.29-.94-2.09-.94s-1.53.31-2.12.94c-.49.51-.82,1.22-.97,2.12-.16.9-.24,2.79-.24,5.66,0,3.11.08,5.15.24,6.13.16.98.51,1.76,1.06,2.33.55.59,1.23.88,2.03.88s1.45-.29,2.01-.88c.57-.59.92-1.42,1.06-2.48.14-1.06.22-3.06.24-5.99,0-2.85-.08-4.73-.24-5.63-.16-.9-.48-1.62-.97-2.15ZM57.27,538.36c1.1-1.59,2.6-2.39,4.51-2.39.94,0,1.89.26,2.83.77.94.51,1.71,1.42,2.3,2.71.73,1.63,1.09,3.87,1.09,6.72,0,3.05-.42,5.38-1.27,6.99-.39.83-.93,1.48-1.62,1.98-.69.49-1.29.8-1.8.91-.51.12-1.01.19-1.5.21-.51,0-1.02-.06-1.53-.18s-1.11-.43-1.8-.94c-.69-.51-1.23-1.17-1.62-1.98-.85-1.61-1.27-3.94-1.27-6.99,0-3.42.56-6.02,1.68-7.81Z"/>
    <line class="st11" x1="107.56" y1="465.09" x2="87.9" y2="503.96"/>
    <polygon points="78.68 522.21 81.82 500.88 93.98 507.03 78.68 522.21"/>
    <polygon class="st11" points="78.68 522.21 81.82 500.88 93.98 507.03 78.68 522.21"/>
  </g>
</svg>