<?xml version="1.0" encoding="UTF-8"?>
<svg id="Capa_1" data-name="Capa 1" xmlns="http://www.w3.org/2000/svg" xmlns:xlink="http://www.w3.org/1999/xlink" viewBox="0 0 269.29 269.29">
  <defs>
    <style>
      .cls-1 {
        fill: url(#linear-gradient-8);
      }

      .cls-1, .cls-2, .cls-3, .cls-4, .cls-5, .cls-6, .cls-7, .cls-8, .cls-9, .cls-10, .cls-11, .cls-12, .cls-13, .cls-14, .cls-15, .cls-16, .cls-17 {
        stroke: #1d1d1b;
        stroke-miterlimit: 10;
        stroke-width: .5px;
      }

      .cls-2 {
        fill: #575756;
      }

      .cls-3 {
        fill: url(#linear-gradient-5);
      }

      .cls-3, .cls-8, .cls-12, .cls-14 {
        opacity: .24;
      }

      .cls-4 {
        fill: url(#linear-gradient-4);
      }

      .cls-5 {
        fill: #f6b2b6;
      }

      .cls-6 {
        fill: #878787;
      }

      .cls-7 {
        fill: #1d1d1b;
      }

      .cls-8 {
        fill: url(#linear-gradient);
      }

      .cls-9 {
        opacity: .33;
      }

      .cls-9, .cls-11 {
        fill: none;
      }

      .cls-10 {
        fill: url(#linear-gradient-7);
      }

      .cls-12 {
        fill: url(#linear-gradient-2);
      }

      .cls-13 {
        fill: #f6b2b7;
      }

      .cls-14 {
        fill: url(#linear-gradient-6);
      }

      .cls-15 {
        fill: url(#linear-gradient-3);
      }

      .cls-16 {
        fill: #706f6f;
      }

      .cls-17 {
        fill: #424241;
      }
    </style>
    <linearGradient id="linear-gradient" x1="87.26" y1="64.45" x2="144.18" y2="64.45" gradientUnits="userSpaceOnUse">
      <stop offset="0" stop-color="#ebefbe"/>
      <stop offset="1" stop-color="#fff"/>
    </linearGradient>
    <linearGradient id="linear-gradient-2" x1="90.68" y1="60.95" x2="261.26" y2="60.95" gradientUnits="userSpaceOnUse">
      <stop offset="0" stop-color="#eaeeb8"/>
      <stop offset="1" stop-color="#fff"/>
    </linearGradient>
    <linearGradient id="linear-gradient-3" x1="8.17" y1="72.88" x2="238.21" y2="72.88" gradientUnits="userSpaceOnUse">
      <stop offset="0" stop-color="#eaeeb8"/>
      <stop offset="1" stop-color="#fff"/>
    </linearGradient>
    <linearGradient id="linear-gradient-4" x1="56.55" y1="71.89" x2="141.48" y2="71.89" gradientUnits="userSpaceOnUse">
      <stop offset="0" stop-color="#ecf0c3"/>
      <stop offset=".1" stop-color="#e9edc7"/>
      <stop offset=".61" stop-color="#e1e1d8"/>
      <stop offset="1" stop-color="#dedede"/>
    </linearGradient>
    <linearGradient id="linear-gradient-5" x1="125.11" y1="204.84" x2="182.04" y2="204.84" gradientUnits="userSpaceOnUse">
      <stop offset="0" stop-color="#fff"/>
      <stop offset="1" stop-color="#ebefbe"/>
    </linearGradient>
    <linearGradient id="linear-gradient-6" x1="8.03" y1="208.34" x2="178.62" y2="208.34" gradientUnits="userSpaceOnUse">
      <stop offset="0" stop-color="#fff"/>
      <stop offset="1" stop-color="#eaeeb8"/>
    </linearGradient>
    <linearGradient id="linear-gradient-7" x1="31.08" y1="196.41" x2="261.12" y2="196.41" gradientUnits="userSpaceOnUse">
      <stop offset="0" stop-color="#fff"/>
      <stop offset="1" stop-color="#eaeeb8"/>
    </linearGradient>
    <linearGradient id="linear-gradient-8" x1="127.81" y1="197.41" x2="212.74" y2="197.41" gradientUnits="userSpaceOnUse">
      <stop offset="0" stop-color="#dedede"/>
      <stop offset=".39" stop-color="#e0e0da"/>
      <stop offset=".77" stop-color="#e6e8ce"/>
      <stop offset="1" stop-color="#ecf0c3"/>
    </linearGradient>
  </defs>
  <g>
    <path class="cls-8" d="M87.69,87.1c.44-.5.44-.56,3.45-4.91,2.21-3.12,2.52-3.4,3.84-4.6.68-.61,2.41-1.56,4.33-2.49,1.14-.45,4.2-2.27,14.92-4.19,2.71-.44,5.2-.79,9.03-1.34,1-.14,2.07-.3,3.28-.48,2.58-.54,13.37-1.53,15.66-6.9.9-2.22,1.44-4.89,1.44-4.89.4-1.96.53-3.64.53-3.99,1.18-12.25-32.73-19.14-48.4,2.22-9.81,12.93-8.79,32.6-8.06,31.57Z"/>
    <path class="cls-12" d="M91.2,28.68c4.86-2.44,10.58-8.13,22.21-11.26,16.39-3.79,28.5-4.38,54.92,1.74,18.68,5.03,27.3,9.95,32.34,11.84,18.7,8,26.97,14.44,35.69,18.18,5.49,2.51,14.33,6.38,20.92,18.06,2.84,5.09,4.07,9.5,3.98,14.57-.12,7.11-2.92,14.94-7.38,19.85-6.82,7.43-14.28,5.63-18.43,5.11-7.24-1.06-11.66-5.75-17.04-10.48-2.48-2.16-5.22-4.43-8.2-8.63-2.11-2.94-2.4-4.25-4.61-6.51-2.56-2.54-4.01-2.71-8.93-4.81-1.61-.49-.14-.55-12.65-5.49-7.61-2.68-7.33-2.38-8.67-2.86-4.54-1.38-5.06-1.64-8.02-2.25-4.79-.89-5.1-.41-7.72-1.16-1.75-.49-4.88-1.69-7.34-3.21-4.19-2.64-7.33-6.82-8.08-7.77-5.06-6.95-19.09-14.62-31.92-18.47-12.7-4.25-24.21-4.68-21.07-6.45Z"/>
    <path class="cls-15" d="M48.31,103.92s0,0,0,0c-.48,2.51-1.77,5.79-1.76,5.79-2.29,6.07-2.67,7.47-4.17,9.1-.72.81-3.45,3.8-8.34,4.84-7.85,1.76-15.47-3.26-16.77-4.33-10.42-7.14-9.27-22.67-8.85-24.25.28-1.95,1.64-7.92,7.11-15.25,15.57-20.43,31.06-30.17,42.96-37.01,3.11-1.77,6.72-3.6,6.72-3.6,2.85-1.45,5.32-2.6,7.04-3.37,1.47-.65,3.06-1.38,6.24-2.66,6.01-2.36,6.33-2.37,8.33-3.08,3.22-1.07,4.92-1.58,7.28-2.24,4.65-1.25,4.94-1.26,8.86-2.14,2.29-.49,5.05-1.05,8.61-1.68,3.26-.55,3.33-.63,8.23-1.3,4.12-.52,6.19-.69,8.82-.84,2.2-.08,2.04-.16,8.97-.12,5.96.14,6.13.21,8.52.37,3.1.28,3.09.28,7.59.86,4.3.61,4.37.61,8.01,1.27,3.69.71,6.51,1.42,8.23,1.87,3,.79,5.18,1.47,7.37,2.18,3.08,1.02,5.3,1.84,8.24,3.01,3.2,1.3,4.78,2.01,6.46,2.79,3.61,1.7,5.37,2.65,7.3,3.77,2.6,1.54,4.45,2.81,7.25,4.87,2.55,1.89,4.39,3.42,6.09,4.87,2.34,2.02,3.99,3.56,6.01,5.55,2.22,2.19,3.82,3.95,4.39,4.58,0,0,2.37,2.61,4.16,4.82,3.23,3.45,12.58,17.37,10.76,20.1-1.43,2.2-11.35-5.05-14.27-6.57-.46-.28-2.28-1.4-4.59-2.77-2.36-1.4-4.21-2.46-5.31-3.08-2.47-1.39-4.4-2.43-5.24-2.88-1.29-.69-3.35-1.78-6.04-3.15-1.56-.79-3.08-1.61-6.18-3.08-1.66-.79-3.62-1.68-6.26-2.8-1.57-.67-3.78-1.58-6.72-2.69-3.68-1.39-6.63-2.37-8.09-2.86-1.96-.63-3.53-1.15-6.7-2.06-5.47-1.5-5.83-1.52-7.35-1.81-.56-.1-3.49-.61-7.39-.64,0,0-3.19-.04-6.9,1.46-.73.29-2.05.9-2.49,2.33-.24.78-.21,1.28-.28,1.55.13,2.2-33.95-13.42-44.43,4.97-5.28,9.29-5.99,14.57-6.05,14.56-.39,2.09-1.05,6.6-3.4,10.37-.49.8-.9,1.29-1.52,2.06-1.64,2.04-3.57,4.56-6.74,6.29-1.17.63-4.68,2.91-9.34,1.96-.66-.13-1.56-.28-2.59-.3-.24,0-.45.43-.56.61-1.28,2.12-1.58,2.76-3.06,5.04-1.79,2.79-3.68,4.32-5.36,5.4-2.61,1.7-4.38,2.99-6.95,2.34-2.51-.64-5.86-3.02-5.87-2.98Z"/>
    <path class="cls-11" d="M46.8,87.46c1.25,3.36,1.67,6.06,1.85,7.76.04.35.11,1.19.14,2.29.08,2.8-.21,4.96-.48,6.41"/>
    <path class="cls-5" d="M51.27,99.2c.91.47,1.86.93,3.19,1.49,0,0,2.25.88,3.68.91.09,0,.17,0,.17,0,.91-.03,1.36-.31,1.55-.45.23-.17.88-.63,1.01-1.63.06-.5.02-1.26-.24-2.03-.16-.49-.37-.84-.26-1.04.13-.23.59-.05.75,0,1.31.46,3.18-.06,4.04-1.23.49-.68.89-1.9.47-2.8-.11-.23-.45-.58-.8-.78-.26-.15-.45-.27-.51-.3-1.01-.49-3.76-2.78-4.92-2.96-.36-.06-.75,0-1,.41-.15.26-.29.56-.52,2.69-.04.4-.07.68-.27.84-.23.19-.52.08-1.06-.03-.73-.15-1.1-.2-1.38-.19-.19,0-.8.02-1.3.42-.46.37-.4.7-.95,1.72-.3.56-.56,1.06-1.03,1.51-.55.53-1.12.81-1.62,1.05-1.02.47-1.49.43-1.5.7,0,.43,1.16,1.01,2.48,1.7Z"/>
    <path class="cls-11" d="M57.63,92.34c.33.63.74,1.34,1.24,2.09.53.79,1.05,1.46,1.51,2.02"/>
    <path class="cls-11" d="M41.8,71.78c-1.79-1.79-4.63-.95-4.9-.85-1.86.6-2.97,2.04-3.56,2.83-2.01,2.69-3.05,6.92-1.72,10.5.34.96,1.18,3.14,3.23,4.12,1.76.84,3.36.37,3.76.25,2.03-.62,3.05-2.35,4.08-4.01.14-.22,1.56-2.57,2.02-5.79.14-1.01.11-1.55.02-2-.16-.81-.49-1.31-1.67-3.13-1.24-1.9-1.22-1.89-1.26-1.92Z"/>
    <path class="cls-7" d="M42.47,76.73c.65,1.01.47,2.4-.38,3.12-.85.72-2.08.53-2.75-.45-.67-.98-.51-2.4.37-3.15.88-.75,2.12-.53,2.77.48Z"/>
    <path class="cls-7" d="M40.03,83.86c.42.6.2,1.59-.48,2.21-.68.63-1.59.67-2.02.09-.43-.58-.23-1.59.47-2.23.7-.65,1.61-.67,2.03-.07Z"/>
    <path class="cls-4" d="M73.28,93.91c-1.47-.02-2.76-.34-3.69-.57-1.08-.26-2.76-.67-4.9-1.79-.51-.27-1.25-.66-2.2-1.34-.84-.61-2.12-1.52-3.39-3.19-.35-.47-1.44-1.97-2.12-4.1-.2-.7-.94-3.12.17-8.48.91-4.3,2.55-7.42,3.46-8.95,1-1.68,1.87-2.85,2.07-3.12.9-1.16,2.42-2.93,4.63-4.62.66-.51,1.72-1.3,3.25-2.07,1.24-.62,2.21-.93,2.95-1.17,1.99-.62,3.57-.82,5.21-1,.77-.08,1.65-.14,3.39-.2,3.63-.11,4.08,0,5.81-.07,1.76-.06,3.06-.17,3.45-.2,2.32-.2,4.07-.5,4.91-.64,6.7-1.22,16.5-2.98,24.72-2.49,12.6.94,10.56,1.3,14.32,1.59,2.58.3,5.37.93,6.09,1.93.41.57-1.11,1.79-2.16,2.22-2.7,1.1-4.45.83-5.53.96-3.11.36-6.22.65-9.3,1.1-7,1.08-10.45,1.94-14.2,3.52-3.65,1.58-7.16,3.28-10.83,7.11-1.18,1.23-3.38,3.57-5.43,7.41-1.89,3.58-1.97,5.02-3.73,7.85-1.71,2.78-3.33,4.34-4.24,5.21-1.44,1.38-3.39,3.27-6.5,4.3-2.54.85-4.69.79-6.2.77Z"/>
    <path class="cls-16" d="M23.38,114.69c4.44,3.54,10.5,2.77,13.87-1.27,3.36-4.06,3.28-10.74-.5-15.36-3.77-4.61-10.4-4.61-14.42.52-4.03,5.13-3.38,12.57,1.05,16.1Z"/>
    <path class="cls-11" d="M42.36,72.63c-.55-.85,1.2-2.04,1.72-2.44.55-.41,2.06-2.18,5.31-5.53,1.52-1.56,3.54-3.59,5.54-6.71,1.37-2.11,1.21-2.45,2.34-3.93,2.37-3.06,5.27-4.22,6.33-4.65,6.55-2.66,13.05-6.03,19.59-8.35,1.99-.55,10.22-4.08,27.39-7.28,24.32-3.56,28.79-2.39,38.13-1.94-.71-.02,42.21,1.35,75.99,33.3,4.05,3.64,9.87,10.14,9.45,10.86-.16.3-.56.1-11.27-7.95-23.18-15.86-40.63-25.06-67.27-29.95-12.92-1.18-8.48-2.05-36.59-.32-14.19,1.55-28.05,5.65-41.39,10.96-.94.38-5.29,2.08-10.66,5.29-6.64,3.99-10.11,7.28-11.33,8.4-4.72,4.48-6.83,6.93-7.54,8.83-.6,1.61-1.48,5.04-2.82,5.05-.05,0-.1,0-.16-.01-.75-.16-1-1-1.98-2.44-.6-.88-.64-.98-.78-1.2Z"/>
    <path class="cls-6" d="M134.09,51.36c-1.27-.14-1.27-.22-4.74-.68,0,0-2.23-.31-5.26-.53-1.73-.11-3.51-.24-7.76-.28-5.61,0-8.4.67-11.25,1.07-3.41.5-6.31.98-7.17,1.17-.2.04,1-1.08,1.78-1.73.01-.01.02-.02.03-.03,1.65-1.37,3.66-1.67,7.9-2.09,2.77-.27,5.22-.42,7.43-.56,1.79-.12,3.69-.2,3.69-.2.92-.04,1.57-.06,1.74-.07,5.97-.13,10.24.43,10.23.42,3.37.46,3.18.65,5.67.96,1.3.18,1.99.33,3.36.67,1.3.32,2.57.71,3.62,1.95.27.32.95,1.15.8,1.88-.06.28-.23.49-.29.56-.21.24-.5.34-.89.3-.86-.09-1.56-.76-1.71-.89-.49-.45-1.34-.96-3.29-1.32-1.32-.24-1.66-.31-3.87-.59Z"/>
    <path class="cls-11" d="M48.55,94.39c-.17-1.01-.27-2.5.32-3.87.39-.87.84-1.3,3.96-3.61,2.13-1.54,2.92-2.06,3.4-3.33.35-.92.4-1.84.39-2.48"/>
    <g>
      <path class="cls-11" d="M58.49,42.81c-1.85,7.73-2.71,13.29-2.98,14.88-.05.28-.16,1,.17,1.6.33.6.94.79,1.27.89,2.08.61,5.6,1.68,6.05,1.81"/>
      <path class="cls-11" d="M65.21,39.21c-2.14,7.56-3.19,13.03-3.38,14.32-.05.36-.12,1.02.19,1.61.24.45.59.67.86.82,1.31.72,3.77,1.64,4.43,1.8"/>
      <path class="cls-11" d="M71.6,36.13c-1.85,6.63-2.79,11.47-3.05,12.91-.07.43-.21,1.3.18,2.07.22.43.51.66.72.82,1.19.9,3.72,2.12,4.46,2.48"/>
      <path class="cls-11" d="M78.86,33.03c-2.55,6.7-3.81,11.7-3.87,12.99-.04,1.03.32,1.72.32,1.72.26.5.61.77.78.9.84.63,3.65,2.64,6.45,4.69"/>
      <path class="cls-11" d="M86.81,30.09c-2.73,6.77-4.22,11.75-4.41,12.87-.13.82.06,1.48.06,1.48,0,0,.17.59.61,1.11.67.78,4.59,4.15,8.57,7.49"/>
      <path class="cls-11" d="M94.3,27.79c-2.32,6.24-3.72,10.66-4.26,12.05-.11.28-.42,1.07-.21,1.91.15.61.52.99.71,1.18.9.86,5.08,4.07,8.99,7.58"/>
      <path class="cls-11" d="M103.19,25.66c-2.35,5.48-3.84,9.57-4.44,11.18-.13.35-.46,1.23-.21,2.13.18.67.59,1.07.77,1.24.97.91,4.76,4.38,8.46,8.03"/>
      <path class="cls-11" d="M112.44,23.87c-2.92,5.5-4.81,9.61-5.59,11.21-.15.32-.55,1.14-.37,2.02.17.84.76,1.32.97,1.5,1.18.98,4.86,4.88,8.31,9.05"/>
      <path class="cls-11" d="M120.39,22.64c-3.14,5.9-5.12,9.9-6.08,11.33-.17.25-.71,1.04-.6,1.93.1.83.71,1.35.91,1.53,1.2,1.04,5.07,5.24,8.87,9.99"/>
      <path class="cls-11" d="M128.41,21.89c-3.59,5.8-5.8,9.81-6.57,11.06-.13.21-.48.78-.43,1.48.06.89.74,1.47.94,1.65,1.08.98,4.65,5.6,8.54,11.8"/>
      <path class="cls-11" d="M137.59,21.75c-3.92,5.27-6.51,9.15-7.57,10.5-.17.21-.65.83-.66,1.65-.02,1.05.72,1.84.95,2.11,1.25,1.37,5.23,7.1,8.95,13.35"/>
      <path class="cls-11" d="M145.54,22.08c-2.47,3.18-4.49,5.92-6.3,8.41-.54.74-1.38,1.91-1.4,3.47-.02,1.87,1.14,3.23,1.67,3.91,1.64,2.03,4.87,6.75,7.29,11.91"/>
      <path class="cls-11" d="M153.41,22.94c-4.19,4.22-6.95,7.64-7.72,8.97-.43.74-.51,1.31-.51,1.7,0,.89.41,1.55.62,1.87.84,1.26,4.87,7.04,8.29,12.78"/>
      <path class="cls-11" d="M161.95,24.29c-3.82,3.96-6.48,7.1-7.73,8.63-.26.32-.81,1.02-.86,1.96-.07,1.25.78,2.22,1.08,2.58,1.39,1.64,4.55,6.42,7.33,11.54"/>
      <path class="cls-11" d="M169.65,26.04c-2.97,3.07-5.18,5.43-7.08,7.46-.63.67-1.44,1.54-1.52,2.78-.12,1.88,1.49,3.06,2.64,4.87,1.17,1.83,3.41,5.37,5.17,9.63"/>
      <path class="cls-11" d="M177.09,28.23c-3.22,3.28-6.34,7.06-7.02,8.21-.4.67-.52,1.21-.56,1.54,0,0-.13.87.15,1.87.38,1.35,3.24,7.27,6.09,13.07"/>
      <path class="cls-11" d="M185.56,31.31c-.61.48-5.7,5.25-7.2,7.74-.31.49-.64,1.16-.68,2.01-.08,1.38.66,2.4.9,2.76,1.06,1.56,3.35,6.32,5.29,11.99"/>
      <path class="cls-11" d="M192.28,34.27c-2.22,2.4-4.91,4.89-6.26,6.37-.36.39-1.05,1.14-1.21,2.27-.17,1.15.29,2.09.48,2.51.92,1.93,3.22,7.55,5.18,13.05"/>
      <path class="cls-11" d="M199.19,37.79c-2.98,2.21-5.8,4.78-6.68,5.66-.23.23-.65.67-.87,1.39,0,0-.23.75-.11,1.71.2,1.38,3.88,8.14,5.82,15.07"/>
      <path class="cls-11" d="M206.57,42.73c-2.17,1.94-4.35,3.89-5.61,5.06-.33.31-.99.92-1.28,1.96-.24.86-.12,1.65-.02,2.19.68,3,3.85,12.32,3.82,12.75"/>
      <path class="cls-11" d="M212.65,47.61c-.33.27-3.71,3.17-5.15,5.06-.27.35-.67.91-.85,1.74-.17.79-.06,1.45,0,1.79.27,1.41,1.71,6.86,2.63,11.54"/>
      <path class="cls-11" d="M218.35,52.85c-.35.21-3.58,3.12-4.97,4.5-.23.22-.6.61-.81,1.25-.23.71-.15,1.37-.09,1.74.2,1.33,1.03,6.16,1.78,10.16"/>
      <path class="cls-11" d="M223.06,57.74c-.43.25-3.21,1.97-4.46,3.29-.18.19-.46.5-.65,1-.32.84-.2,1.68-.13,2.13.22,1.39.79,5.66,1.42,9.23"/>
      <path class="cls-11" d="M227.12,62.43c-.6.36-1.91,1.12-2.93,1.77-.59.38-1.02.67-1.28,1.29-.25.59-.22,1.19-.19,1.56.21,2.35,1.29,8.71,1.38,9.26"/>
    </g>
    <path class="cls-16" d="M76.73,64.7c-.98.74-1.99,1.53-3.53,2.19-5.84,2.46-12.44,3.82-14.82,3.59-.07,0-.37.66-.64,1.53-.23.77-.39,1.48-.54,2.17-.39,1.84-.73,3.53-.65,5.47.03.79.11,2.39.76,4.2-.04.06,1.79,4.81,8.14,8.09.21.11-.25-.57-.41-1.5-.26-1.55,1.01-2.64,2.07-5.48.64-1.75,1.4-4.78,1.66-6.15.04-.2.14-.83.52-1.46.26-.43.56-.71.75-.86.09-.07.17-.12.18-.13,3.65-2.48,7.74-7.58,7.77-7.59.86-1.08,3.81-4.62,6.14-8.44.29-.47,1.01-1.7,2.29-2.95.78-.77,1.72-1.5,3.42-2.39,4.2-2.19,8.26-2.66,8.22-2.85,0,0-.01-.02-.02-.02-2.8.41-7.53.99-7.53,1.01-1.85.77-2.76,1.18-2.88,1.24-5.31,2.93-6.19,6.81-10.91,10.32Z"/>
    <path class="cls-2" d="M80.66,54.88c.14.25.22.5.25.65.45,2.46-3.87,5.79-7.17,7.58-3.81,2-8.5,3.02-9.65,1.51-.85-1.14.08-3.48.24-3.67.15-.19.22-.37.32-.51,1.68-2.27,4.32-3.87,4.73-4.11,1.11-.65,1.99-1.03,2.51-1.25.6-.26,1.52-.64,2.75-.95.87-.22,1.52-.38,2.41-.41,1.21-.05,2.9-.09,3.61,1.16Z"/>
    <path class="cls-17" d="M32.59,102.65c1.74,1.88,1.91,4.79.45,6.58-1.46,1.79-4.1,1.93-5.95.25-1.85-1.68-2.12-4.73-.54-6.71,1.58-1.98,4.31-2,6.05-.12Z"/>
    <path class="cls-7" d="M30.99,104.54c.76.79.85,2.06.21,2.86-.65.8-1.8.84-2.58.09-.79-.75-.89-2.05-.22-2.88.67-.83,1.84-.86,2.6-.07Z"/>
    <path class="cls-9" d="M48.8,57.97c3.7-6.41,7.77-10.97,10.87-13.94,2.99-2.85,4.7-3.95,6.74-3.98,4.1-.05,7.13,4.32,8.36,7.61,2.68,7.38-.04,16.3-4.15,20.29-.43.42-1.07.96-2.25,1.64-2.51,1.49-7.7,3.65-17.14,3.02"/>
  </g>
  <g>
    <path class="cls-3" d="M181.6,182.2c-.44.5-.44.56-3.45,4.91-2.21,3.12-2.52,3.4-3.84,4.6-.68.61-2.41,1.56-4.33,2.49-1.14.45-4.2,2.27-14.92,4.19-2.71.44-5.2.79-9.03,1.34-1,.14-2.07.3-3.28.48-2.58.54-13.37,1.53-15.66,6.9-.9,2.22-1.44,4.89-1.44,4.89-.4,1.96-.53,3.64-.53,3.99-1.18,12.25,32.73,19.14,48.4-2.22,9.81-12.93,8.79-32.6,8.06-31.57Z"/>
    <path class="cls-14" d="M178.09,240.61c-4.86,2.44-10.58,8.13-22.21,11.26-16.39,3.79-28.5,4.38-54.92-1.74-18.68-5.03-27.3-9.95-32.34-11.84-18.7-8-26.97-14.44-35.69-18.18-5.49-2.51-14.33-6.38-20.92-18.06-2.84-5.09-4.07-9.5-3.98-14.57.12-7.11,2.92-14.94,7.38-19.85,6.82-7.43,14.28-5.63,18.43-5.11,7.24,1.06,11.66,5.75,17.04,10.48,2.48,2.16,5.22,4.43,8.2,8.63,2.11,2.94,2.4,4.25,4.61,6.51,2.56,2.54,4.01,2.71,8.93,4.81,1.61.49.14.55,12.65,5.49,7.61,2.68,7.33,2.38,8.67,2.86,4.54,1.38,5.06,1.64,8.02,2.25,4.79.89,5.1.41,7.72,1.16,1.75.49,4.88,1.69,7.34,3.21,4.19,2.64,7.33,6.82,8.08,7.77,5.06,6.95,19.09,14.62,31.92,18.47,12.7,4.25,24.21,4.68,21.07,6.46Z"/>
    <path class="cls-10" d="M220.98,165.37s0,0,0,0c.48-2.52,1.77-5.79,1.76-5.79,2.29-6.07,2.67-7.47,4.17-9.1.72-.81,3.45-3.8,8.34-4.84,7.85-1.76,15.47,3.26,16.77,4.33,10.42,7.14,9.27,22.67,8.85,24.25-.28,1.95-1.64,7.92-7.11,15.25-15.57,20.43-31.06,30.17-42.96,37.01-3.11,1.77-6.72,3.6-6.72,3.6-2.85,1.45-5.32,2.6-7.04,3.37-1.47.65-3.06,1.38-6.24,2.66-6.01,2.36-6.33,2.37-8.33,3.08-3.22,1.07-4.92,1.58-7.28,2.24-4.65,1.25-4.94,1.26-8.86,2.14-2.29.49-5.05,1.05-8.61,1.68-3.26.55-3.33.63-8.23,1.3-4.12.52-6.19.69-8.82.84-2.2.08-2.04.16-8.97.12-5.96-.14-6.13-.21-8.52-.37-3.1-.28-3.09-.28-7.59-.86-4.3-.61-4.37-.61-8.01-1.27-3.69-.71-6.51-1.42-8.23-1.87-3-.79-5.18-1.47-7.37-2.18-3.08-1.02-5.3-1.84-8.24-3.01-3.21-1.3-4.78-2.01-6.46-2.79-3.61-1.7-5.37-2.65-7.3-3.77-2.6-1.54-4.45-2.81-7.25-4.87-2.55-1.89-4.39-3.42-6.09-4.87-2.34-2.02-3.99-3.56-6.01-5.55-2.22-2.19-3.82-3.95-4.39-4.58,0,0-2.37-2.61-4.16-4.82-3.23-3.45-12.58-17.37-10.76-20.1,1.43-2.2,11.35,5.05,14.27,6.57.46.28,2.28,1.4,4.59,2.77,2.36,1.4,4.21,2.46,5.31,3.08,2.47,1.39,4.4,2.43,5.24,2.88,1.29.69,3.35,1.78,6.04,3.15,1.56.79,3.08,1.61,6.18,3.08,1.66.79,3.62,1.68,6.26,2.8,1.57.67,3.78,1.58,6.72,2.69,3.68,1.39,6.63,2.38,8.09,2.86,1.96.63,3.53,1.15,6.7,2.06,5.47,1.5,5.83,1.52,7.35,1.81.56.1,3.49.61,7.39.64,0,0,3.19.04,6.9-1.46.73-.29,2.05-.9,2.49-2.33.24-.78.21-1.28.28-1.55-.13-2.2,33.95,13.42,44.43-4.97,5.28-9.29,5.99-14.57,6.05-14.56.39-2.09,1.05-6.6,3.4-10.37.49-.8.9-1.29,1.52-2.06,1.64-2.04,3.57-4.56,6.74-6.29,1.17-.63,4.68-2.91,9.34-1.96.66.13,1.56.28,2.59.3.24,0,.45-.43.56-.61,1.28-2.12,1.58-2.76,3.06-5.04,1.79-2.79,3.68-4.32,5.36-5.4,2.61-1.7,4.38-2.99,6.95-2.34,2.51.64,5.86,3.02,5.87,2.98Z"/>
    <path class="cls-11" d="M222.49,181.83c-1.25-3.36-1.67-6.06-1.85-7.76-.04-.35-.11-1.19-.14-2.29-.08-2.8.21-4.96.48-6.41"/>
    <path class="cls-13" d="M218.02,170.09c-.91-.47-1.86-.93-3.19-1.49,0,0-2.25-.88-3.68-.91-.09,0-.17,0-.17,0-.91.03-1.36.31-1.55.45-.23.17-.88.63-1.01,1.63-.06.5-.02,1.26.24,2.03.16.49.37.84.26,1.04-.13.23-.59.05-.75,0-1.31-.46-3.18.06-4.04,1.23-.49.68-.89,1.9-.47,2.8.11.23.45.58.8.78.26.15.45.27.51.3,1.01.49,3.76,2.78,4.92,2.96.36.06.75,0,1-.41.15-.26.29-.56.52-2.69.04-.4.07-.68.27-.84.23-.19.52-.08,1.06.03.73.15,1.1.2,1.38.19.19,0,.8-.02,1.3-.42.46-.37.4-.7.95-1.72.3-.56.56-1.06,1.03-1.51.55-.53,1.12-.81,1.62-1.05,1.02-.47,1.49-.43,1.5-.7,0-.43-1.16-1.01-2.48-1.7Z"/>
    <path class="cls-11" d="M211.66,176.95c-.33-.63-.74-1.34-1.24-2.09-.53-.79-1.05-1.46-1.51-2.02"/>
    <path class="cls-11" d="M227.49,197.51c1.79,1.79,4.63.95,4.9.85,1.86-.6,2.97-2.04,3.56-2.83,2.01-2.69,3.05-6.92,1.72-10.5-.34-.96-1.18-3.14-3.23-4.12-1.76-.84-3.36-.37-3.76-.25-2.03.62-3.05,2.35-4.08,4.01-.14.22-1.56,2.57-2.02,5.79-.14,1.01-.11,1.55-.02,2,.16.81.49,1.31,1.67,3.13,1.24,1.9,1.22,1.89,1.26,1.92Z"/>
    <path class="cls-7" d="M226.82,192.56c-.65-1.01-.47-2.4.38-3.12.85-.72,2.08-.53,2.75.45.67.98.51,2.4-.37,3.15-.88.75-2.12.53-2.77-.48Z"/>
    <path class="cls-7" d="M229.26,185.43c-.42-.6-.2-1.59.48-2.21.68-.63,1.59-.67,2.02-.09.43.58.23,1.59-.47,2.23-.7.65-1.61.67-2.03.07Z"/>
    <path class="cls-1" d="M196.01,175.38c1.47.02,2.76.34,3.69.57,1.08.26,2.76.67,4.9,1.79.51.27,1.25.66,2.2,1.34.84.61,2.12,1.52,3.39,3.19.35.47,1.44,1.97,2.12,4.1.2.7.94,3.12-.17,8.48-.91,4.3-2.55,7.42-3.46,8.95-1,1.68-1.87,2.85-2.07,3.12-.9,1.16-2.42,2.93-4.63,4.62-.66.51-1.72,1.3-3.25,2.07-1.24.62-2.21.93-2.95,1.17-1.99.62-3.57.82-5.21,1-.77.08-1.65.14-3.39.2-3.63.11-4.08,0-5.81.07-1.76.06-3.06.17-3.45.2-2.32.2-4.07.5-4.91.64-6.7,1.22-16.5,2.98-24.72,2.49-12.6-.94-10.56-1.3-14.32-1.59-2.58-.3-5.37-.93-6.09-1.93-.41-.57,1.11-1.79,2.16-2.22,2.7-1.1,4.45-.83,5.53-.96,3.11-.36,6.22-.65,9.3-1.1,7-1.08,10.45-1.94,14.2-3.52,3.65-1.58,7.16-3.28,10.83-7.11,1.18-1.23,3.38-3.57,5.43-7.41,1.89-3.58,1.97-5.02,3.73-7.85,1.71-2.78,3.33-4.34,4.24-5.21,1.44-1.38,3.39-3.27,6.5-4.3,2.54-.85,4.69-.79,6.2-.77Z"/>
    <path class="cls-16" d="M245.91,154.6c-4.44-3.54-10.5-2.77-13.87,1.27-3.36,4.06-3.28,10.74.5,15.36,3.77,4.61,10.4,4.61,14.42-.52,4.03-5.13,3.38-12.57-1.05-16.1Z"/>
    <path class="cls-11" d="M226.93,196.66c.56.85-1.2,2.04-1.72,2.44-.55.41-2.06,2.18-5.31,5.53-1.52,1.56-3.54,3.59-5.54,6.71-1.37,2.11-1.21,2.45-2.34,3.93-2.37,3.06-5.27,4.22-6.33,4.65-6.55,2.66-13.05,6.03-19.59,8.35-1.99.55-10.22,4.08-27.39,7.28-24.32,3.56-28.79,2.39-38.13,1.94.7.02-42.21-1.35-75.99-33.3-4.05-3.64-9.87-10.14-9.45-10.86.16-.3.56-.1,11.27,7.95,23.18,15.86,40.63,25.06,67.27,29.95,12.92,1.18,8.48,2.05,36.59.32,14.19-1.55,28.05-5.65,41.39-10.96.94-.38,5.29-2.08,10.66-5.29,6.64-3.99,10.11-7.28,11.33-8.4,4.72-4.48,6.83-6.93,7.54-8.83.6-1.61,1.48-5.04,2.82-5.05.05,0,.1,0,.16.01.75.16,1,1,1.98,2.44.6.88.64.98.78,1.2Z"/>
    <path class="cls-6" d="M135.21,217.93c1.27.14,1.27.22,4.74.68,0,0,2.23.31,5.26.53,1.73.11,3.51.24,7.76.28,5.61,0,8.4-.67,11.25-1.07,3.41-.5,6.31-.98,7.17-1.17.2-.04-1,1.08-1.78,1.73-.01.01-.02.02-.03.03-1.65,1.37-3.66,1.67-7.9,2.09-2.77.27-5.22.42-7.43.56-1.79.12-3.69.2-3.69.2-.92.04-1.57.06-1.74.07-5.97.13-10.24-.43-10.23-.42-3.37-.46-3.18-.65-5.67-.96-1.3-.18-1.99-.33-3.36-.67-1.3-.32-2.57-.71-3.62-1.95-.27-.32-.95-1.15-.8-1.88.06-.28.23-.49.29-.56.21-.24.5-.34.89-.3.86.09,1.56.76,1.71.89.49.45,1.34.96,3.29,1.32,1.32.24,1.66.31,3.87.59Z"/>
    <path class="cls-11" d="M220.74,174.9c.17,1.01.27,2.5-.32,3.87-.39.87-.84,1.3-3.96,3.61-2.13,1.54-2.92,2.06-3.4,3.33-.35.92-.4,1.84-.39,2.48"/>
    <g>
      <path class="cls-11" d="M210.8,226.49c1.85-7.73,2.71-13.28,2.98-14.88.05-.28.16-1-.17-1.6-.33-.6-.94-.79-1.27-.89-2.08-.61-5.6-1.68-6.05-1.81"/>
      <path class="cls-11" d="M204.08,230.08c2.14-7.56,3.19-13.03,3.38-14.32.05-.36.12-1.02-.19-1.61-.24-.45-.59-.67-.86-.82-1.31-.72-3.77-1.64-4.43-1.8"/>
      <path class="cls-11" d="M197.69,233.16c1.85-6.63,2.79-11.47,3.05-12.91.07-.43.21-1.3-.18-2.07-.22-.43-.51-.66-.72-.82-1.19-.9-3.72-2.12-4.46-2.48"/>
      <path class="cls-11" d="M190.43,236.27c2.55-6.7,3.81-11.69,3.87-12.99.04-1.03-.32-1.72-.32-1.72-.26-.5-.61-.77-.78-.9-.84-.63-3.65-2.64-6.45-4.69"/>
      <path class="cls-11" d="M182.48,239.2c2.73-6.77,4.22-11.75,4.41-12.87.13-.82-.06-1.48-.06-1.48,0,0-.17-.59-.61-1.11-.67-.78-4.59-4.15-8.57-7.49"/>
      <path class="cls-11" d="M174.99,241.5c2.32-6.24,3.72-10.66,4.26-12.05.11-.28.42-1.07.21-1.91-.15-.61-.52-.99-.71-1.18-.9-.86-5.08-4.07-8.99-7.58"/>
      <path class="cls-11" d="M166.1,243.64c2.35-5.48,3.84-9.57,4.44-11.18.13-.35.46-1.23.21-2.13-.18-.67-.59-1.07-.77-1.24-.97-.91-4.76-4.38-8.46-8.03"/>
      <path class="cls-11" d="M156.85,245.42c2.92-5.5,4.81-9.61,5.59-11.21.15-.32.55-1.14.37-2.02-.17-.84-.76-1.32-.97-1.5-1.18-.98-4.86-4.88-8.31-9.05"/>
      <path class="cls-11" d="M148.9,246.65c3.14-5.9,5.12-9.9,6.08-11.33.17-.25.71-1.04.6-1.93-.1-.83-.71-1.35-.91-1.53-1.2-1.04-5.07-5.24-8.87-9.99"/>
      <path class="cls-11" d="M140.88,247.41c3.59-5.8,5.8-9.81,6.57-11.06.13-.21.48-.78.43-1.48-.06-.89-.74-1.47-.94-1.65-1.08-.98-4.65-5.6-8.54-11.8"/>
      <path class="cls-11" d="M131.7,247.54c3.92-5.27,6.51-9.15,7.57-10.5.17-.21.65-.83.66-1.65.02-1.05-.72-1.84-.95-2.11-1.25-1.37-5.23-7.1-8.95-13.35"/>
      <path class="cls-11" d="M123.75,247.21c2.47-3.18,4.49-5.92,6.3-8.41.54-.74,1.38-1.91,1.4-3.47.02-1.87-1.14-3.23-1.67-3.91-1.64-2.03-4.87-6.75-7.29-11.91"/>
      <path class="cls-11" d="M115.89,246.35c4.19-4.22,6.95-7.64,7.72-8.97.43-.74.51-1.31.51-1.7,0-.89-.41-1.55-.62-1.87-.84-1.26-4.87-7.04-8.29-12.78"/>
      <path class="cls-11" d="M107.34,245c3.82-3.96,6.48-7.1,7.73-8.63.26-.32.81-1.02.86-1.96.07-1.25-.78-2.22-1.08-2.58-1.39-1.64-4.55-6.42-7.33-11.54"/>
      <path class="cls-11" d="M99.64,243.25c2.97-3.07,5.18-5.43,7.08-7.46.63-.67,1.44-1.54,1.52-2.78.12-1.88-1.49-3.06-2.64-4.87-1.17-1.83-3.41-5.37-5.17-9.63"/>
      <path class="cls-11" d="M92.2,241.07c3.22-3.28,6.34-7.06,7.02-8.21.4-.67.52-1.21.56-1.54,0,0,.13-.87-.15-1.87-.38-1.35-3.24-7.26-6.09-13.07"/>
      <path class="cls-11" d="M83.73,237.98c.61-.48,5.7-5.25,7.2-7.74.31-.49.64-1.16.68-2.01.07-1.38-.66-2.4-.9-2.76-1.06-1.56-3.35-6.32-5.29-11.99"/>
      <path class="cls-11" d="M77.01,235.02c2.22-2.4,4.91-4.89,6.26-6.37.36-.39,1.05-1.14,1.21-2.27.17-1.15-.29-2.09-.48-2.51-.92-1.93-3.22-7.54-5.18-13.05"/>
      <path class="cls-11" d="M70.1,231.5c2.98-2.21,5.8-4.78,6.68-5.66.23-.23.65-.67.87-1.39,0,0,.23-.75.11-1.71-.2-1.38-3.88-8.14-5.82-15.07"/>
      <path class="cls-11" d="M62.72,226.56c2.17-1.94,4.35-3.89,5.61-5.06.33-.31.99-.92,1.28-1.96.24-.86.12-1.65.02-2.19-.68-3-3.85-12.32-3.82-12.75"/>
      <path class="cls-11" d="M56.64,221.68c.33-.27,3.71-3.17,5.15-5.06.27-.35.67-.91.85-1.74.17-.79.06-1.45,0-1.79-.27-1.41-1.71-6.86-2.63-11.54"/>
      <path class="cls-11" d="M50.94,216.44c.35-.21,3.58-3.12,4.97-4.5.23-.22.6-.61.81-1.25.23-.71.15-1.37.09-1.74-.2-1.33-1.03-6.16-1.78-10.16"/>
      <path class="cls-11" d="M46.23,211.56c.43-.25,3.21-1.97,4.46-3.29.18-.19.46-.5.65-1,.32-.84.2-1.68.13-2.13-.22-1.39-.79-5.66-1.42-9.23"/>
      <path class="cls-11" d="M42.18,206.86c.6-.36,1.91-1.12,2.93-1.77.59-.38,1.02-.67,1.28-1.29.25-.59.22-1.19.19-1.56-.21-2.35-1.3-8.71-1.38-9.26"/>
    </g>
    <path class="cls-16" d="M192.56,204.6c.98-.74,1.99-1.53,3.53-2.19,5.84-2.46,12.44-3.82,14.82-3.59.07,0,.37-.66.64-1.53.23-.77.39-1.48.54-2.17.39-1.84.73-3.53.65-5.47-.03-.79-.11-2.39-.76-4.2.04-.06-1.79-4.81-8.14-8.09-.21-.11.25.57.41,1.5.26,1.55-1.01,2.64-2.07,5.48-.64,1.75-1.4,4.78-1.66,6.15-.04.2-.14.83-.52,1.46-.26.43-.56.71-.75.86-.09.07-.17.12-.18.13-3.65,2.48-7.74,7.58-7.77,7.59-.86,1.08-3.81,4.62-6.14,8.44-.29.47-1.01,1.7-2.29,2.95-.78.76-1.72,1.5-3.42,2.39-4.2,2.19-8.26,2.66-8.22,2.85,0,0,.01.02.02.02,2.8-.41,7.53-.99,7.53-1.01,1.85-.77,2.76-1.18,2.88-1.24,5.31-2.93,6.19-6.81,10.91-10.32Z"/>
    <path class="cls-2" d="M188.63,214.41c-.14-.25-.22-.5-.25-.65-.45-2.46,3.87-5.79,7.17-7.58,3.81-2,8.5-3.02,9.65-1.51.85,1.14-.08,3.48-.24,3.67-.15.19-.22.37-.32.51-1.68,2.27-4.32,3.87-4.73,4.11-1.11.65-1.99,1.03-2.51,1.25-.6.25-1.52.64-2.75.95-.87.22-1.52.38-2.41.41-1.21.05-2.9.09-3.61-1.16Z"/>
    <path class="cls-17" d="M236.7,166.64c-1.73-1.88-1.91-4.79-.45-6.58,1.46-1.79,4.1-1.93,5.95-.25,1.85,1.68,2.12,4.73.54,6.71-1.58,1.98-4.31,2-6.05.12Z"/>
    <path class="cls-7" d="M238.3,164.75c-.76-.79-.85-2.06-.21-2.86.65-.8,1.8-.84,2.58-.09.79.75.89,2.05.22,2.88-.67.83-1.84.86-2.6.07Z"/>
    <path class="cls-9" d="M220.49,211.33c-3.7,6.41-7.77,10.97-10.87,13.94-2.99,2.85-4.7,3.95-6.74,3.98-4.1.05-7.13-4.32-8.36-7.61-2.68-7.38.04-16.3,4.15-20.29.43-.41,1.07-.96,2.25-1.64,2.51-1.49,7.7-3.65,17.14-3.02"/>
  </g>
</svg>